SplineFontDB: 3.2
FontName: Garuda-BoldOblique
FullName: Garuda Bold Oblique
FamilyName: Garuda
Weight: Bold
Copyright: Generated by NECTEC for Public Domain\n\nModified under GNU General Public License by TLWG
Version: 004.002
ItalicAngle: -12
UnderlinePosition: -27
UnderlineWidth: 20
Ascent: 872
Descent: 128
InvalidEm: 0
LayerCount: 3
Layer: 0 0 "Back" 1
Layer: 1 0 "Fore" 0
Layer: 2 1 "Quad" 0
FSType: 0
OS2Version: 4
OS2_WeightWidthSlopeOnly: 0
OS2_UseTypoMetrics: 1
CreationTime: 1153661423
ModificationTime: 1587792298
PfmFamily: 33
TTFWeight: 700
TTFWidth: 5
LineGap: 0
VLineGap: 0
Panose: 2 11 7 4 2 2 2 2 2 4
OS2TypoAscent: 1284
OS2TypoAOffset: 0
OS2TypoDescent: -591
OS2TypoDOffset: 0
OS2TypoLinegap: 0
OS2WinAscent: 1284
OS2WinAOffset: 0
OS2WinDescent: 591
OS2WinDOffset: 0
HheadAscent: 1284
HheadAOffset: 0
HheadDescent: -591
HheadDOffset: 0
OS2Vendor: 'PfEd'
Lookup: 6 0 0 "'ccmp' Thai Tone Tilde Reordering" { "'ccmp' Thai Tone Tilde Reordering"  } ['ccmp' ('DFLT' <'dflt' > 'latn' <'dflt' > 'thai' <'KUY ' 'MLY ' 'PAL ' 'SAN ' 'THA ' 'dflt' > ) ]
Lookup: 6 0 0 "'ccmp' Thai Tone Macron Reordering" { "'ccmp' Thai Tone Macron Reordering"  } ['ccmp' ('DFLT' <'dflt' > 'latn' <'dflt' > 'thai' <'KUY ' 'MLY ' 'PAL ' 'SAN ' 'THA ' 'dflt' > ) ]
Lookup: 6 0 0 "'ccmp' Thai Below Vowel Macron Reordering" { "'ccmp' Thai Below Vowel Macron Reordering"  } ['ccmp' ('DFLT' <'dflt' > 'latn' <'dflt' > 'thai' <'KUY ' 'MLY ' 'PAL ' 'SAN ' 'THA ' 'dflt' > ) ]
Lookup: 4 0 0 "'ccmp' Patani Malay Ligatures" { "'ccmp' Patani Malay Ligatures"  } ['ccmp' ('DFLT' <'dflt' > 'thai' <'KUY ' 'MLY ' 'PAL ' 'SAN ' 'THA ' 'dflt' > ) ]
Lookup: 6 0 0 "'ccmp' Thai Conditional Descender Removal" { "'ccmp' Thai Conditional Descender Removal"  } ['ccmp' ('DFLT' <'dflt' > 'thai' <'KUY ' 'MLY ' 'THA ' 'dflt' > ) ]
Lookup: 1 0 0 "'ccmp' Pali-Sanskrit Descender Removal" { "'ccmp' Pali-Sanskrit Descender Removal" ("descless") } ['ccmp' ('thai' <'PAL ' 'SAN ' > ) ]

StartChar: .notdef
Encoding: 65536 -1 0
Width: 766
VWidth: 2048
Flags: W
HStem: 0 95<212 595> 1242 95<455 838>
DStem2: 95 0 191.807 0 0.207912 0.978148<117.25 1289.71> 574.807 0 671 0 0.207912 0.978148<97.1224 1269.58>
LayerCount: 3
Fore
SplineSet
95 0 m 1
 379 1337 l 1
 955 1337 l 1
 671 0 l 1
 95 0 l 1
212 95 m 1
 595 95 l 1
 838 1242 l 1
 455 1242 l 1
 212 95 l 1
EndSplineSet
Validated: 1
Layer: 2
SplineSet
95 0 m 1,0,-1
 379 1337 l 1,1,-1
 955 1337 l 1,2,-1
 671 0 l 1,3,-1
 95 0 l 1,0,-1
212 95 m 1,4,-1
 595 95 l 1,5,-1
 838 1242 l 1,6,-1
 455 1242 l 1,7,-1
 212 95 l 1,4,-1
EndSplineSet
EndChar

StartChar: exclam
Encoding: 33 33 2
Width: 308
Flags: W
HStem: 2 145<138.19 213.668> 680 20G<246.738 369>
VStem: 108 137<34.1785 115.616> 147 118<212 330> 251 118<582 700>
DStem2: 102.363 2 220.363 2 0.207912 0.978148<239.225 713.65>
LayerCount: 3
Fore
SplineSet
265 212 m 1xd0
 147 212 l 1xd0
 251 700 l 1
 369 700 l 1xc8
 265 212 l 1xd0
245 93 m 3xe0
 245 53 213 2 161 2 c 3
 123 2 108 28 108 57 c 3
 108 99 141 147 192 147 c 3
 230 147 245 121 245 93 c 3xe0
EndSplineSet
Layer: 2
SplineSet
265 212 m 1,0,-1
 147 212 l 1,1,-1
 251 700 l 1,2,-1
 369 700 l 1,3,-1
 265 212 l 1,0,-1
245 93 m 259,4,5
 245 60 245 60 221.5 31 c 128,-1,6
 198 2 198 2 161 2 c 259,7,8
 134 2 134 2 121 17.5 c 128,-1,9
 108 33 108 33 108 57 c 259,10,11
 108 91 108 91 132 119 c 128,-1,12
 156 147 156 147 192 147 c 259,13,14
 219 147 219 147 232 131.5 c 128,-1,15
 245 116 245 116 245 93 c 259,4,5
EndSplineSet
EndChar

StartChar: quotedbl
Encoding: 34 34 3
Width: 458
Flags: W
HStem: 455 242<209 221 444 457>
VStem: 209 101<596 697> 444 101<596 697>
LayerCount: 3
Fore
SplineSet
457 455 m 1
 431 455 l 1
 419 578 l 1
 444 697 l 1
 545 697 l 1
 520 578 l 1
 457 455 l 1
221 455 m 1
 195 455 l 1
 184 578 l 1
 209 697 l 1
 310 697 l 1
 285 578 l 1
 221 455 l 1
EndSplineSet
Validated: 1
Layer: 2
SplineSet
457 455 m 1,0,-1
 431 455 l 1,1,-1
 419 578 l 1,2,-1
 444 697 l 1,3,-1
 545 697 l 1,4,-1
 520 578 l 1,5,-1
 457 455 l 1,0,-1
221 455 m 1,6,-1
 195 455 l 1,7,-1
 184 578 l 1,8,-1
 209 697 l 1,9,-1
 310 697 l 1,10,-1
 285 578 l 1,11,-1
 221 455 l 1,6,-1
EndSplineSet
EndChar

StartChar: numbersign
Encoding: 35 35 4
Width: 597
Flags: W
HStem: 0 21G<86 192.313 290 394.554> 166 99<87 155 294 360 497 575> 412 103<181 254 391 462 593 655> 680 20G<357 465 566.568 670>
DStem2: 86 0 184 0 0.372533 0.928019<36.5083 179.756 323.412 444.929 591.552 753.55> 290 0 386 0 0.377087 0.926178<36.2003 180.142 323.494 446.444 591.239 755.794>
LayerCount: 3
Fore
SplineSet
497 265 m 1
 596 265 l 1
 575 166 l 1
 457 166 l 1
 386 0 l 1
 290 0 l 1
 360 166 l 1
 253 166 l 1
 184 0 l 1
 86 0 l 1
 155 166 l 1
 66 166 l 1
 87 265 l 1
 195 265 l 1
 254 412 l 1
 160 412 l 1
 181 515 l 1
 291 515 l 1
 365 700 l 1
 465 700 l 1
 391 515 l 1
 497 515 l 1
 575 700 l 1
 670 700 l 1
 593 515 l 1
 676 515 l 1
 655 412 l 1
 557 412 l 1
 497 265 l 1
294 265 m 1
 399 265 l 1
 462 412 l 1
 352 412 l 1
 294 265 l 1
EndSplineSet
Validated: 1
Layer: 2
SplineSet
497 265 m 1,0,-1
 596 265 l 1,1,-1
 575 166 l 1,2,-1
 457 166 l 1,3,-1
 386 0 l 1,4,-1
 290 0 l 1,5,-1
 360 166 l 1,6,-1
 253 166 l 1,7,-1
 184 0 l 1,8,-1
 86 0 l 1,9,-1
 155 166 l 1,10,-1
 66 166 l 1,11,-1
 87 265 l 1,12,-1
 195 265 l 1,13,-1
 254 412 l 1,14,-1
 160 412 l 1,15,-1
 181 515 l 1,16,-1
 291 515 l 1,17,-1
 365 700 l 1,18,-1
 465 700 l 1,19,-1
 391 515 l 1,20,-1
 497 515 l 1,21,-1
 575 700 l 1,22,-1
 670 700 l 1,23,-1
 593 515 l 1,24,-1
 676 515 l 1,25,-1
 655 412 l 1,26,-1
 557 412 l 1,27,-1
 497 265 l 1,0,-1
294 265 m 1,28,-1
 399 265 l 1,29,-1
 462 412 l 1,30,-1
 352 412 l 1,31,-1
 294 265 l 1,28,-1
EndSplineSet
EndChar

StartChar: dollar
Encoding: 36 36 5
Width: 574
Flags: W
HStem: 535 101<332.265 379> 680 20G<408.625 508>
VStem: 128 112<118.912 208.689> 184 115<382 501.152> 456 116<139.418 251.594> 506 116<437.348 525.761>
DStem2: 248 -75 343 -75 0.207912 0.978148<19.7516 78.644 202.741 366.313 485.827 623.906 746.609 792.37>
LayerCount: 3
Fore
SplineSet
399 636 m 1xd0
 413 700 l 1
 508 700 l 1
 494 636 l 1
 573 626 622 571 622 504 c 3
 622 462 609 434 589 434 c 2
 518 434 l 2
 508 434 503 441 503 449 c 3
 503 456 504 463 505 469 c 0
 506 475 506 479 506 481 c 3xd4
 506 507 495 524 472 532 c 1
 439 377 l 1
 530 344 572 299 572 230 c 3
 572 110 475 6 359 2 c 1
 343 -75 l 1
 248 -75 l 1
 264 2 l 1
 178 2 128 61 128 142 c 3
 128 188 137 210 158 210 c 2
 227 210 l 2
 237 210 243 204 243 190 c 3
 243 188 243 182 242 178 c 0
 240 169 240 164 240 160 c 3xe8
 240 132 256 116 287 106 c 1
 325 285 l 1
 228 307 184 349 184 415 c 3
 184 535 286 636 399 636 c 1xd0
350 400 m 1
 379 535 l 1
 335 528 299 489 299 454 c 3
 299 432 319 409 350 400 c 1
415 264 m 1
 381 104 l 1
 425 113 456 156 456 205 c 3xc8
 456 231 442 251 415 264 c 1
EndSplineSet
Layer: 2
SplineSet
399 636 m 1,0,-1
 413 700 l 1,1,-1
 508 700 l 1,2,-1
 494 636 l 1,3,4
 552 629 552 629 587 592 c 128,-1,5
 622 555 622 555 622 504 c 259,6,7
 622 472 622 472 613 453 c 128,-1,8
 604 434 604 434 589 434 c 2,9,-1
 518 434 l 2,10,11
 503 434 503 434 503 449 c 259,12,13
 503 457 503 457 505 469 c 0,14,15
 506 475 506 475 506 481 c 259,16,17
 506 520 506 520 472 532 c 1,18,-1
 439 377 l 1,19,20
 508 352 508 352 540 316.5 c 128,-1,21
 572 281 572 281 572 230 c 259,22,23
 572 140 572 140 509 72.5 c 128,-1,24
 446 5 446 5 359 2 c 1,25,-1
 343 -75 l 1,26,-1
 248 -75 l 1,27,-1
 264 2 l 1,28,29
 201 2 201 2 164.5 41 c 128,-1,30
 128 80 128 80 128 142 c 259,31,32
 128 210 128 210 158 210 c 2,33,-1
 227 210 l 2,34,35
 243 210 243 210 243 190 c 259,36,37
 243 182 243 182 242 178 c 0,38,39
 240 169 240 169 240 160 c 259,40,41
 240 121 240 121 287 106 c 1,42,-1
 325 285 l 1,43,44
 184 317 184 317 184 415 c 259,45,46
 184 504 184 504 249 570 c 128,-1,47
 314 636 314 636 399 636 c 1,0,-1
350 400 m 1,48,-1
 379 535 l 1,49,50
 347 530 347 530 323 505.5 c 128,-1,51
 299 481 299 481 299 454 c 259,52,53
 299 437 299 437 313 422 c 128,-1,54
 327 407 327 407 350 400 c 1,48,-1
415 264 m 1,55,-1
 381 104 l 1,56,57
 414 111 414 111 435 139.5 c 128,-1,58
 456 168 456 168 456 205 c 259,59,60
 456 244 456 244 415 264 c 1,55,-1
EndSplineSet
EndChar

StartChar: percent
Encoding: 37 37 6
Width: 697
Flags: W
HStem: -8 61<524.914 593.785> 0 21G<95 230.943> 308 61<570.548 640.8> 322 61<230.914 299.785> 638 61<276.548 346.8>
VStem: 95 120<0 120> 143 83<386.096 559.93> 352 83<464.643 634.706> 437 83<56.096 229.93> 646 83<134.643 304.706> 656 117<583 700>
DStem2: 95 0 215 0 0.625375 0.780325<75.0449 897.062>
LayerCount: 3
Fore
SplineSet
437 120 m 3xa9c0
 437 177 456 241 488 288 c 0
 525 344 568 369 623 369 c 3
 699 369 729 314 729 244 c 3
 729 183 711 123 676 71 c 0
 642 20 597 -8 542 -8 c 3
 466 -8 437 50 437 120 c 3xa9c0
555 53 m 3
 583 53 605 79 622 128 c 0
 637 171 646 223 646 257 c 3
 646 286 638 308 610 308 c 3
 583 308 560 281 544 237 c 0
 528 192 520 142 520 109 c 3
 520 79 527 53 555 53 c 3
143 450 m 3x1b80
 143 507 162 571 194 618 c 0
 231 674 274 699 329 699 c 3
 405 699 435 644 435 574 c 3
 435 513 417 453 382 401 c 0
 348 350 303 322 248 322 c 3
 172 322 143 380 143 450 c 3x1b80
261 383 m 3
 289 383 311 409 328 458 c 0
 343 501 352 553 352 587 c 3
 352 616 344 638 316 638 c 3
 289 638 266 611 250 567 c 0
 234 522 226 472 226 439 c 3
 226 409 233 383 261 383 c 3
656 700 m 1x4da0
 773 700 l 1
 215 0 l 1
 95 0 l 1
 656 700 l 1x4da0
EndSplineSet
Layer: 2
SplineSet
437 120 m 259,0,1
 437 213 437 213 488 288 c 0,2,3
 542 369 542 369 623 369 c 259,4,5
 677 369 677 369 703 334.5 c 128,-1,6
 729 300 729 300 729 244 c 259,7,8
 729 150 729 150 676 71 c 128,-1,9
 623 -8 623 -8 542 -8 c 259,10,11
 488 -8 488 -8 462.5 27.5 c 128,-1,12
 437 63 437 63 437 120 c 259,0,1
555 53 m 259,13,14
 596 53 596 53 622 128 c 0,15,16
 646 197 646 197 646 257 c 259,17,18
 646 308 646 308 610 308 c 259,19,20
 570 308 570 308 544 237 c 0,21,22
 520 169 520 169 520 109 c 259,23,24
 520 53 520 53 555 53 c 259,13,14
143 450 m 259,25,26
 143 543 143 543 194 618 c 0,27,28
 248 699 248 699 329 699 c 259,29,30
 383 699 383 699 409 664.5 c 128,-1,31
 435 630 435 630 435 574 c 259,32,33
 435 480 435 480 382 401 c 128,-1,34
 329 322 329 322 248 322 c 259,35,36
 194 322 194 322 168.5 357.5 c 128,-1,37
 143 393 143 393 143 450 c 259,25,26
261 383 m 259,38,39
 302 383 302 383 328 458 c 0,40,41
 352 527 352 527 352 587 c 259,42,43
 352 638 352 638 316 638 c 259,44,45
 276 638 276 638 250 567 c 0,46,47
 226 499 226 499 226 439 c 259,48,49
 226 383 226 383 261 383 c 259,38,39
656 700 m 1,50,-1
 773 700 l 1,51,-1
 215 0 l 1,52,-1
 95 0 l 1,53,-1
 656 700 l 1,50,-1
EndSplineSet
EndChar

StartChar: ampersand
Encoding: 38 38 7
Width: 717
Flags: W
HStem: -5 100<240.32 393.196 627.435 685.89> 616 100<398.85 507.634>
VStem: 70 124<140.522 262.234> 248 119<474.842 584.265> 525 122<497.874 599.703>
DStem2: 450 372 339 326 0.573773 -0.819014<0 169.582>
LayerCount: 3
Fore
SplineSet
287 409 m 1
 260 460 248 492 248 523 c 3
 248 637 363 716 480 716 c 3
 580 716 647 661 647 577 c 3
 647 482 582 423 450 372 c 1
 550 235 l 1
 598 280 632 332 656 389 c 1
 758 374 l 1
 724 299 671 228 599 155 c 1
 630 106 643 95 681 95 c 3
 688 95 695 95 704 96 c 1
 685 3 l 1
 667 -2 650 -5 634 -5 c 3
 575 -5 539 18 506 81 c 1
 421 18 358 -5 270 -5 c 3
 138 -5 70 53 70 156 c 3
 70 286 138 355 287 409 c 1
462 616 m 3
 414 616 367 582 367 532 c 3
 367 509 379 484 412 444 c 1
 484 472 525 504 525 548 c 3
 525 586 498 616 462 616 c 3
194 202 m 3
 194 141 245 95 311 95 c 3
 361 95 412 113 463 149 c 1
 339 326 l 1
 256 313 194 270 194 202 c 3
EndSplineSet
Layer: 2
SplineSet
287 409 m 1,0,1
 248 483 248 483 248 523 c 259,2,3
 248 606 248 606 318.5 661 c 128,-1,4
 389 716 389 716 480 716 c 259,5,6
 555 716 555 716 601 678 c 128,-1,7
 647 640 647 640 647 577 c 259,8,9
 647 507 647 507 599.5 459 c 128,-1,10
 552 411 552 411 450 372 c 1,11,-1
 550 235 l 1,12,13
 618 299 618 299 656 389 c 1,14,-1
 758 374 l 1,15,16
 710 267 710 267 599 155 c 1,17,18
 623 118 623 118 638 106.5 c 128,-1,19
 653 95 653 95 681 95 c 259,20,21
 695 95 695 95 704 96 c 1,22,-1
 685 3 l 1,23,24
 656 -5 656 -5 634 -5 c 259,25,26
 589 -5 589 -5 560 14.5 c 128,-1,27
 531 34 531 34 506 81 c 1,28,29
 442 34 442 34 389 14.5 c 128,-1,30
 336 -5 336 -5 270 -5 c 259,31,32
 172 -5 172 -5 121 36.5 c 128,-1,33
 70 78 70 78 70 156 c 259,34,35
 70 252 70 252 121.5 310 c 128,-1,36
 173 368 173 368 287 409 c 1,0,1
462 616 m 259,37,38
 424 616 424 616 395.5 592 c 128,-1,39
 367 568 367 568 367 532 c 259,40,41
 367 499 367 499 412 444 c 1,42,43
 525 488 525 488 525 548 c 259,44,45
 525 577 525 577 507 596.5 c 128,-1,46
 489 616 489 616 462 616 c 259,37,38
194 202 m 259,47,48
 194 156 194 156 227.5 125.5 c 128,-1,49
 261 95 261 95 311 95 c 259,50,51
 387 95 387 95 463 149 c 1,52,-1
 339 326 l 1,53,54
 274 316 274 316 234 283.5 c 128,-1,55
 194 251 194 251 194 202 c 259,47,48
EndSplineSet
EndChar

StartChar: quotesingle
Encoding: 39 39 8
Width: 298
Flags: W
HStem: 489 242<255 266>
VStem: 255 99<632 731>
LayerCount: 3
Fore
SplineSet
266 489 m 1
 240 489 l 1
 230 612 l 1
 255 731 l 1
 354 731 l 1
 329 612 l 1
 266 489 l 1
EndSplineSet
Validated: 1
Layer: 2
SplineSet
266 489 m 1,0,-1
 240 489 l 1,1,-1
 230 612 l 1,2,-1
 255 731 l 1,3,-1
 354 731 l 1,4,-1
 329 612 l 1,5,-1
 266 489 l 1,0,-1
EndSplineSet
EndChar

StartChar: parenleft
Encoding: 40 40 9
Width: 378
Flags: W
VStem: 99 101<-62.9937 271.986>
LayerCount: 3
Fore
SplineSet
200 64 m 3
 200 -17 211 -96 231 -167 c 1
 155 -167 l 1
 119 -83 99 13 99 114 c 3
 99 348 204 573 348 731 c 1
 424 731 l 1
 288 545 200 309 200 64 c 3
EndSplineSet
Layer: 2
SplineSet
200 64 m 259,0,1
 200 -57 200 -57 231 -167 c 1,2,-1
 155 -167 l 1,3,4
 99 -36 99 -36 99 114 c 259,5,6
 99 283 99 283 167 445 c 128,-1,7
 235 607 235 607 348 731 c 1,8,-1
 424 731 l 1,9,10
 319 587 319 587 259.5 415 c 128,-1,11
 200 243 200 243 200 64 c 259,0,1
EndSplineSet
EndChar

StartChar: parenright
Encoding: 41 41 10
Width: 378
Flags: W
VStem: 256 102<295.607 626.419>
LayerCount: 3
Fore
SplineSet
111 -167 m 1
 36 -167 l 1
 167 19 256 261 256 502 c 3
 256 582 245 659 223 731 c 1
 298 731 l 1
 337 649 358 557 358 456 c 3
 358 216 252 0 111 -167 c 1
EndSplineSet
Layer: 2
SplineSet
111 -167 m 1,0,-1
 36 -167 l 1,1,2
 138 -23 138 -23 197 151.5 c 128,-1,3
 256 326 256 326 256 502 c 259,4,5
 256 623 256 623 223 731 c 1,6,-1
 298 731 l 1,7,8
 358 605 358 605 358 456 c 259,9,10
 358 295 358 295 297.5 138.5 c 128,-1,11
 237 -18 237 -18 111 -167 c 1,0,-1
EndSplineSet
EndChar

StartChar: asterisk
Encoding: 42 42 11
Width: 597
Flags: W
DStem2: 330.098 327 406.098 327 0.207912 0.978148<284.677 433.365>
LayerCount: 3
Fore
SplineSet
468 512 m 1
 532 382 l 1
 452 327 l 1
 397 463 l 1
 286 327 l 1
 228 382 l 1
 350 512 l 1
 213 558 l 1
 258 644 l 1
 386 590 l 1
 415 752 l 1
 502 752 l 1
 462 590 l 1
 615 647 l 1
 623 558 l 1
 468 512 l 1
EndSplineSet
Validated: 1
Layer: 2
SplineSet
468 512 m 1,0,-1
 532 382 l 1,1,-1
 452 327 l 1,2,-1
 397 463 l 1,3,-1
 286 327 l 1,4,-1
 228 382 l 1,5,-1
 350 512 l 1,6,-1
 213 558 l 1,7,-1
 258 644 l 1,8,-1
 386 590 l 1,9,-1
 415 752 l 1,10,-1
 502 752 l 1,11,-1
 462 590 l 1,12,-1
 615 647 l 1,13,-1
 623 558 l 1,14,-1
 468 512 l 1,0,-1
EndSplineSet
EndChar

StartChar: plus
Encoding: 43 43 12
Width: 565
Flags: W
HStem: 259 100<142 290 418 565>
VStem: 249 107<64 171> 353 107<446 553>
DStem2: 249 64 356 64 0.207912 0.978148<22.2466 199.263 323.691 499.937>
LayerCount: 3
Fore
SplineSet
397 259 m 1xa0
 356 64 l 1
 249 64 l 1xc0
 290 259 l 1
 121 259 l 1
 142 359 l 1
 311 359 l 1
 353 553 l 1
 460 553 l 1
 418 359 l 1
 586 359 l 1
 565 259 l 1
 397 259 l 1xa0
EndSplineSet
Validated: 1
Layer: 2
SplineSet
397 259 m 1,0,-1
 356 64 l 1,1,-1
 249 64 l 1,2,-1
 290 259 l 1,3,-1
 121 259 l 1,4,-1
 142 359 l 1,5,-1
 311 359 l 1,6,-1
 353 553 l 1,7,-1
 460 553 l 1,8,-1
 418 359 l 1,9,-1
 586 359 l 1,10,-1
 565 259 l 1,11,-1
 397 259 l 1,0,-1
EndSplineSet
EndChar

StartChar: comma
Encoding: 44 44 13
Width: 252
Flags: W
HStem: -161 51<29 83.224>
VStem: 62 158<18.4229 120.642>
LayerCount: 3
Fore
SplineSet
29 -110 m 1
 94 -102 124 -68 132 0 c 1
 87 0 62 25 62 59 c 3
 62 114 108 159 154 159 c 3
 197 159 220 131 220 85 c 3
 220 -35 119 -153 18 -161 c 1
 29 -110 l 1
EndSplineSet
Layer: 2
SplineSet
29 -110 m 1,0,1
 77 -104 77 -104 101.5 -77.5 c 128,-1,2
 126 -51 126 -51 132 0 c 1,3,4
 99 0 99 0 80.5 16.5 c 128,-1,5
 62 33 62 33 62 59 c 259,6,7
 62 99 62 99 90.5 129 c 128,-1,8
 119 159 119 159 154 159 c 259,9,10
 186 159 186 159 203 139.5 c 128,-1,11
 220 120 220 120 220 85 c 259,12,13
 220 -4 220 -4 157 -79.5 c 128,-1,14
 94 -155 94 -155 18 -161 c 1,15,-1
 29 -110 l 1,0,1
EndSplineSet
EndChar

StartChar: hyphen
Encoding: 45 45 14
AltUni2: 002010.ffffffff.0
Width: 455
Flags: W
HStem: 232 100<111 461>
LayerCount: 3
Fore
SplineSet
89 232 m 1
 111 332 l 1
 483 332 l 1
 461 232 l 1
 89 232 l 1
EndSplineSet
Validated: 1
Layer: 2
SplineSet
89 232 m 1,0,-1
 111 332 l 1,1,-1
 483 332 l 1,2,-1
 461 232 l 1,3,-1
 89 232 l 1,0,-1
EndSplineSet
EndChar

StartChar: period
Encoding: 46 46 15
Width: 217
Flags: W
HStem: 0 147<95.1902 170.842>
VStem: 65 138<33.3692 115.993>
LayerCount: 3
Fore
SplineSet
203 92 m 3
 203 52 170 0 118 0 c 3
 80 0 65 28 65 57 c 3
 65 99 98 147 149 147 c 3
 187 147 203 120 203 92 c 3
EndSplineSet
Layer: 2
SplineSet
203 92 m 259,0,1
 203 59 203 59 179 29.5 c 128,-1,2
 155 0 155 0 118 0 c 259,3,4
 91 0 91 0 78 16.5 c 128,-1,5
 65 33 65 33 65 57 c 259,6,7
 65 91 65 91 89 119 c 128,-1,8
 113 147 113 147 149 147 c 259,9,10
 176 147 176 147 189.5 131 c 128,-1,11
 203 115 203 115 203 92 c 259,0,1
EndSplineSet
EndChar

StartChar: slash
Encoding: 47 47 16
Width: 597
Flags: W
HStem: 0 21G<32 176.943> 680 20G<577.943 719>
VStem: 32 129<0 129> 594 125<575 700>
DStem2: 32 0 161 0 0.626053 0.779781<80.7608 897.688>
LayerCount: 3
Fore
SplineSet
594 700 m 1
 719 700 l 1
 161 0 l 1
 32 0 l 1
 594 700 l 1
EndSplineSet
Validated: 1
Layer: 2
SplineSet
594 700 m 1,0,-1
 719 700 l 1,1,-1
 161 0 l 1,2,-1
 32 0 l 1,3,-1
 594 700 l 1,0,-1
EndSplineSet
EndChar

StartChar: zero
Encoding: 48 48 17
Width: 697
Flags: W
HStem: 0 86<314.523 470.036> 614 86<418.456 571.66>
VStem: 142 119<142.546 391.171> 626 118<309.517 555.833>
LayerCount: 3
Fore
SplineSet
644 142 m 0
 578 52 484 0 369 0 c 3
 218 0 142 89 142 236 c 3
 142 362 182 472 244 556 c 0
 311 647 406 700 518 700 c 3
 665 700 744 608 744 460 c 3
 744 340 709 230 644 142 c 0
500 614 m 3
 429 614 367 572 324 493 c 0
 285 423 261 332 261 243 c 3
 261 141 304 86 387 86 c 3
 460 86 521 129 564 209 c 0
 602 279 626 367 626 456 c 3
 626 559 582 614 500 614 c 3
EndSplineSet
Layer: 2
SplineSet
644 142 m 0,0,1
 540 0 540 0 369 0 c 259,2,3
 257 0 257 0 199.5 62 c 128,-1,4
 142 124 142 124 142 236 c 259,5,6
 142 418 142 418 244 556 c 0,7,8
 350 700 350 700 518 700 c 259,9,10
 627 700 627 700 685.5 636.5 c 128,-1,11
 744 573 744 573 744 460 c 259,12,13
 744 277 744 277 644 142 c 0,0,1
500 614 m 259,14,15
 390 614 390 614 324 493 c 0,16,17
 261 380 261 380 261 243 c 259,18,19
 261 164 261 164 294 125 c 128,-1,20
 327 86 327 86 387 86 c 259,21,22
 498 86 498 86 564 209 c 0,23,24
 626 323 626 323 626 456 c 259,25,26
 626 533 626 533 594 573.5 c 128,-1,27
 562 614 562 614 500 614 c 259,14,15
EndSplineSet
EndChar

StartChar: one
Encoding: 49 49 18
Width: 697
Flags: W
HStem: 0 21G<376 498.257> 680 20G<471 643>
VStem: 376 118<0 118>
DStem2: 376 0 494 0 0.207912 0.978148<24.5336 635.852>
LayerCount: 3
Fore
SplineSet
508 622 m 1
 462 580 400 528 321 479 c 1
 276 538 l 1
 331 571 447 654 495 700 c 1
 643 700 l 1
 494 0 l 1
 376 0 l 1
 508 622 l 1
EndSplineSet
Layer: 2
SplineSet
508 622 m 1,0,1
 416 538 416 538 321 479 c 1,2,-1
 276 538 l 1,3,4
 321 565 321 565 391 616 c 128,-1,5
 461 667 461 667 495 700 c 1,6,-1
 643 700 l 1,7,-1
 494 0 l 1,8,-1
 376 0 l 1,9,-1
 508 622 l 1,0,1
EndSplineSet
EndChar

StartChar: two
Encoding: 50 50 19
Width: 697
Flags: W
HStem: 0 86<285 668> 628 86<418.011 605.669>
VStem: 207 122<440.624 546.205> 665 119<479.415 580.38>
LayerCount: 3
Fore
SplineSet
546 714 m 3
 689 714 784 643 784 545 c 3
 784 439 700 373 511 276 c 0
 433 236 365 191 315 144 c 0
 300 129 292 118 285 86 c 1
 686 86 l 1
 668 0 l 1
 116 0 l 1
 137 101 168 163 228 216 c 0
 292 272 373 319 488 372 c 0
 599 423 665 478 665 531 c 3
 665 587 592 628 515 628 c 3
 416 628 329 567 329 483 c 3
 329 469 331 455 335 441 c 1
 220 400 l 1
 210 421 207 440 207 460 c 3
 207 609 372 714 546 714 c 3
EndSplineSet
Layer: 2
SplineSet
546 714 m 259,0,1
 652 714 652 714 718 666.5 c 128,-1,2
 784 619 784 619 784 545 c 259,3,4
 784 469 784 469 722 411 c 128,-1,5
 660 353 660 353 511 276 c 0,6,7
 389 213 389 213 315 144 c 0,8,9
 293 122 293 122 285 86 c 1,10,-1
 686 86 l 1,11,-1
 668 0 l 1,12,-1
 116 0 l 1,13,14
 132 76 132 76 157.5 126.5 c 128,-1,15
 183 177 183 177 228 216 c 0,16,17
 315 292 315 292 488 372 c 0,18,19
 665 453 665 453 665 531 c 259,20,21
 665 572 665 572 619.5 600 c 128,-1,22
 574 628 574 628 515 628 c 259,23,24
 439 628 439 628 384 586.5 c 128,-1,25
 329 545 329 545 329 483 c 259,26,27
 329 462 329 462 335 441 c 1,28,-1
 220 400 l 1,29,30
 207 427 207 427 207 460 c 259,31,32
 207 532 207 532 255.5 591 c 128,-1,33
 304 650 304 650 381.5 682 c 128,-1,34
 459 714 459 714 546 714 c 259,0,1
EndSplineSet
EndChar

StartChar: three
Encoding: 51 51 20
Width: 697
Flags: W
HStem: -8 86<306.714 511.744> 326 82<409.305 557.341> 620 86<436.193 616.188>
VStem: 141 120<119.504 212> 232 118<501 619> 608 116<160.759 285.396> 649 120<473.004 589.77>
LayerCount: 3
Fore
SplineSet
390 -8 m 3xe4
 231 -8 141 54 141 163 c 3
 141 179 142 195 146 212 c 1
 264 212 l 1
 262 201 261 190 261 180 c 3
 261 115 312 78 406 78 c 3
 513 78 608 137 608 232 c 3xf4
 608 296 548 326 423 326 c 2
 391 326 l 1
 410 412 l 1
 433 409 451 408 464 408 c 3
 569 408 649 459 649 537 c 3
 649 592 606 620 528 620 c 3
 443 620 365 570 350 501 c 1
 232 501 l 1
 259 627 385 706 557 706 c 3
 688 706 769 644 769 552 c 3xea
 769 462 706 403 604 377 c 1
 602 368 l 1
 674 358 724 304 724 231 c 3
 724 85 570 -8 390 -8 c 3xe4
EndSplineSet
Layer: 2
SplineSet
390 -8 m 0,0,1
 271 -8 271 -8 206 36.5 c 128,-1,2
 141 81 141 81 141 163 c 259,3,4
 141 191 141 191 146 212 c 1,5,-1
 264 212 l 1,6,7
 261 196 261 196 261 180 c 259,8,9
 261 131 261 131 298.5 104.5 c 128,-1,10
 336 78 336 78 406 78 c 259,11,12
 489 78 489 78 548.5 120.5 c 128,-1,13
 608 163 608 163 608 232 c 259,14,15
 608 277 608 277 565 301.5 c 128,-1,16
 522 326 522 326 423 326 c 2,17,-1
 391 326 l 1,18,-1
 410 412 l 1,19,20
 441 408 441 408 464 408 c 259,21,22
 544 408 544 408 596.5 443.5 c 128,-1,23
 649 479 649 479 649 537 c 259,24,25
 649 578 649 578 618.5 599 c 128,-1,26
 588 620 588 620 528 620 c 259,27,28
 464 620 464 620 412.5 586 c 128,-1,29
 361 552 361 552 350 501 c 1,30,-1
 232 501 l 1,31,32
 252 595 252 595 340 650.5 c 128,-1,33
 428 706 428 706 557 706 c 259,34,35
 654 706 654 706 711.5 664 c 128,-1,36
 769 622 769 622 769 552 c 259,37,38
 769 486 769 486 725.5 441.5 c 128,-1,39
 682 397 682 397 604 377 c 1,40,-1
 602 368 l 1,41,42
 656 360 656 360 690 322.5 c 128,-1,43
 724 285 724 285 724 231 c 259,44,45
 724 124 724 124 626.5 58 c 128,-1,46
 529 -8 529 -8 390 -8 c 0,0,1
EndSplineSet
EndChar

StartChar: four
Encoding: 52 52 21
Width: 697
Flags: W
HStem: 0 21G<463 585.229> 175 86<244 500 635 737> 680 20G<551.254 729>
VStem: 463 118<0 118>
DStem2: 463 0 581 0 0.207912 0.978148<24.5336 178.869 291.057 620.348>
LayerCount: 3
Fore
SplineSet
618 175 m 1
 581 0 l 1
 463 0 l 1
 500 175 l 1
 106 175 l 1
 127 271 l 1
 572 700 l 1
 729 700 l 1
 635 261 l 1
 755 261 l 1
 737 175 l 1
 618 175 l 1
591 607 m 1
 244 261 l 1
 517 261 l 1
 591 607 l 1
EndSplineSet
Validated: 1
Layer: 2
SplineSet
618 175 m 1,0,-1
 581 0 l 1,1,-1
 463 0 l 1,2,-1
 500 175 l 1,3,-1
 106 175 l 1,4,-1
 127 271 l 1,5,-1
 572 700 l 1,6,-1
 729 700 l 1,7,-1
 635 261 l 1,8,-1
 755 261 l 1,9,-1
 737 175 l 1,10,-1
 618 175 l 1,0,-1
591 607 m 1,11,-1
 244 261 l 1,12,-1
 517 261 l 1,13,-1
 591 607 l 1,11,-1
EndSplineSet
EndChar

StartChar: five
Encoding: 53 53 22
Width: 697
Flags: W
HStem: -12 86<319.931 503.632> 404 86<417.838 568.136> 614 86<406 782>
VStem: 157 123<112.165 187> 620 119<188.043 350.363>
DStem2: 188 317 340 432 0.336804 0.941575<159.475 353.071>
LayerCount: 3
Fore
SplineSet
545 490 m 3
 672 490 739 425 739 308 c 3
 739 111 611 -12 400 -12 c 3
 232 -12 157 45 157 166 c 3
 157 171 157 178 158 187 c 1
 281 187 l 1
 280 181 280 178 280 176 c 3
 280 109 322 74 410 74 c 3
 527 74 620 156 620 280 c 3
 620 353 569 404 489 404 c 3
 429 404 358 370 306 317 c 1
 188 317 l 1
 325 700 l 1
 787 700 l 1
 782 614 l 1
 406 614 l 1
 340 432 l 1
 435 481 468 490 545 490 c 3
EndSplineSet
Layer: 2
SplineSet
545 490 m 259,0,1
 640 490 640 490 689.5 443 c 128,-1,2
 739 396 739 396 739 308 c 259,3,4
 739 160 739 160 648.5 74 c 128,-1,5
 558 -12 558 -12 400 -12 c 259,6,7
 275 -12 275 -12 216 31.5 c 128,-1,8
 157 75 157 75 157 166 c 0,9,10
 157 178 157 178 158 187 c 1,11,-1
 281 187 l 1,12,13
 280 181 280 181 280 176 c 0,14,15
 280 74 280 74 410 74 c 259,16,17
 499 74 499 74 559.5 131.5 c 128,-1,18
 620 189 620 189 620 280 c 259,19,20
 620 335 620 335 584 369.5 c 128,-1,21
 548 404 548 404 489 404 c 259,22,23
 444 404 444 404 394.5 380.5 c 128,-1,24
 345 357 345 357 306 317 c 1,25,-1
 188 317 l 1,26,-1
 325 700 l 1,27,-1
 787 700 l 1,28,-1
 782 614 l 1,29,-1
 406 614 l 1,30,-1
 340 432 l 1,31,32
 411 469 411 469 449 479.5 c 128,-1,33
 487 490 487 490 545 490 c 259,0,1
EndSplineSet
EndChar

StartChar: six
Encoding: 54 54 23
Width: 697
Flags: W
HStem: -12 86<333.226 506.357> 379 86<412.523 564.25> 627 86<450.791 628.975>
VStem: 167 122<115.229 277.289> 608 121<177.12 337.445>
LayerCount: 3
Fore
SplineSet
410 -12 m 3
 248 -12 167 65 167 214 c 3
 167 249 172 289 181 332 c 0
 232 572 371 713 562 713 c 3
 698 713 773 660 782 553 c 1
 668 553 l 1
 652 610 603 627 536 627 c 3
 424 627 343 540 310 385 c 1
 381 439 453 465 523 465 c 3
 653 465 729 400 729 289 c 3
 729 108 588 -12 410 -12 c 3
483 379 m 3
 375 379 289 300 289 186 c 3
 289 114 335 74 415 74 c 3
 522 74 608 151 608 266 c 3
 608 337 563 379 483 379 c 3
EndSplineSet
Layer: 2
SplineSet
410 -12 m 259,0,1
 284 -12 284 -12 225.5 47 c 128,-1,2
 167 106 167 106 167 214 c 259,3,4
 167 265 167 265 181 332 c 0,5,6
 219 512 219 512 319 612.5 c 128,-1,7
 419 713 419 713 562 713 c 259,8,9
 769 713 769 713 782 553 c 1,10,-1
 668 553 l 1,11,12
 647 627 647 627 536 627 c 259,13,14
 452 627 452 627 393.5 564 c 128,-1,15
 335 501 335 501 310 385 c 1,16,17
 415 465 415 465 523 465 c 259,18,19
 620 465 620 465 674.5 418.5 c 128,-1,20
 729 372 729 372 729 289 c 259,21,22
 729 156 729 156 637.5 72 c 128,-1,23
 546 -12 546 -12 410 -12 c 259,0,1
483 379 m 259,24,25
 401 379 401 379 345 324.5 c 128,-1,26
 289 270 289 270 289 186 c 259,27,28
 289 132 289 132 322 103 c 128,-1,29
 355 74 355 74 415 74 c 259,30,31
 497 74 497 74 552.5 127.5 c 128,-1,32
 608 181 608 181 608 266 c 259,33,34
 608 319 608 319 575.5 349 c 128,-1,35
 543 379 543 379 483 379 c 259,24,25
EndSplineSet
EndChar

StartChar: seven
Encoding: 55 55 24
Width: 697
Flags: W
HStem: 0 21G<231 387> 614 86<281 680>
VStem: 231 145<0 67.9238>
LayerCount: 3
Fore
SplineSet
376 0 m 1
 231 0 l 1
 252 98 321 224 409 339 c 0
 483 435 576 529 680 614 c 1
 263 614 l 1
 281 700 l 1
 810 700 l 1
 790 607 l 1
 681 523 576 406 502 294 c 0
 440 201 398 102 376 0 c 1
EndSplineSet
Layer: 2
SplineSet
376 0 m 1,0,-1
 231 0 l 1,1,2
 263 148 263 148 409 339 c 0,3,4
 520 484 520 484 680 614 c 1,5,-1
 263 614 l 1,6,-1
 281 700 l 1,7,-1
 810 700 l 1,8,-1
 790 607 l 1,9,10
 625 480 625 480 502 294 c 0,11,12
 409 155 409 155 376 0 c 1,0,-1
EndSplineSet
EndChar

StartChar: eight
Encoding: 56 56 25
Width: 697
Flags: W
HStem: -6 86<319.603 500.326> 349 86<403.37 554.208> 619 86<429.567 599.023>
VStem: 151 120<124.602 263.726> 254 116<463.602 565.296> 600 119<170.31 308.419> 632 122<495.189 589.22>
LayerCount: 3
Fore
SplineSet
539 705 m 3xe8
 672 705 754 650 754 570 c 3xea
 754 489 687 424 584 392 c 1
 678 362 719 320 719 252 c 3
 719 100 565 -6 388 -6 c 3
 235 -6 151 62 151 168 c 3xf4
 151 286 225 353 360 392 c 1
 288 418 254 458 254 512 c 3
 254 630 385 705 539 705 c 3xe8
600 247 m 3xf4
 600 313 547 349 463 349 c 3
 362 349 271 289 271 188 c 3
 271 124 320 80 406 80 c 3
 510 80 600 150 600 247 c 3xf4
632 542 m 3xea
 632 586 590 619 521 619 c 3
 442 619 370 574 370 512 c 3
 370 468 412 435 481 435 c 3
 560 435 632 480 632 542 c 3xea
EndSplineSet
Layer: 2
SplineSet
539 705 m 259,0,1
 638 705 638 705 696 668 c 128,-1,2
 754 631 754 631 754 570 c 259,3,4
 754 510 754 510 708.5 463 c 128,-1,5
 663 416 663 416 584 392 c 1,6,7
 655 369 655 369 687 336 c 128,-1,8
 719 303 719 303 719 252 c 259,9,10
 719 140 719 140 621.5 67 c 128,-1,11
 524 -6 524 -6 388 -6 c 259,12,13
 275 -6 275 -6 213 40.5 c 128,-1,14
 151 87 151 87 151 168 c 259,15,16
 151 254 151 254 203.5 308 c 128,-1,17
 256 362 256 362 360 392 c 1,18,19
 254 430 254 430 254 512 c 259,20,21
 254 598 254 598 337 651.5 c 128,-1,22
 420 705 420 705 539 705 c 259,0,1
600 247 m 259,23,24
 600 296 600 296 563.5 322.5 c 128,-1,25
 527 349 527 349 463 349 c 259,26,27
 384 349 384 349 327.5 305 c 128,-1,28
 271 261 271 261 271 188 c 259,29,30
 271 139 271 139 307 109.5 c 128,-1,31
 343 80 343 80 406 80 c 259,32,33
 486 80 486 80 543 128 c 128,-1,34
 600 176 600 176 600 247 c 259,23,24
632 542 m 259,35,36
 632 576 632 576 602 597.5 c 128,-1,37
 572 619 572 619 521 619 c 259,38,39
 460 619 460 619 415 588 c 128,-1,40
 370 557 370 557 370 512 c 259,41,42
 370 478 370 478 400 456.5 c 128,-1,43
 430 435 430 435 481 435 c 259,44,45
 542 435 542 435 587 466 c 128,-1,46
 632 497 632 497 632 542 c 259,35,36
EndSplineSet
EndChar

StartChar: nine
Encoding: 57 57 26
Width: 697
Flags: W
HStem: -8 86<303.76 473.192> 246 86<374.327 529.625> 624 86<428.825 601.192>
VStem: 208 120<375.652 526.31> 644 124<429.325 584.34>
LayerCount: 3
Fore
SplineSet
755 384 m 0
 703 141 559 -8 369 -8 c 3
 242 -8 171 46 159 156 c 1
 266 156 l 1
 281 99 326 78 392 78 c 3
 503 78 595 185 627 337 c 1
 562 271 503 246 418 246 c 3
 282 246 208 312 208 419 c 3
 208 593 352 710 521 710 c 3
 687 710 768 638 768 495 c 3
 768 462 764 425 755 384 c 0
644 517 m 3
 644 585 600 624 518 624 c 3
 415 624 328 551 328 441 c 3
 328 374 376 332 456 332 c 3
 560 332 644 409 644 517 c 3
EndSplineSet
Layer: 2
SplineSet
755 384 m 0,0,1
 716 201 716 201 613.5 96.5 c 128,-1,2
 511 -8 511 -8 369 -8 c 259,3,4
 177 -8 177 -8 159 156 c 1,5,-1
 266 156 l 1,6,7
 287 78 287 78 392 78 c 259,8,9
 474 78 474 78 538.5 150 c 128,-1,10
 603 222 603 222 627 337 c 1,11,12
 578 288 578 288 530 267 c 128,-1,13
 482 246 482 246 418 246 c 259,14,15
 317 246 317 246 262.5 292 c 128,-1,16
 208 338 208 338 208 419 c 259,17,18
 208 547 208 547 299.5 628.5 c 128,-1,19
 391 710 391 710 521 710 c 259,20,21
 768 710 768 710 768 495 c 259,22,23
 768 443 768 443 755 384 c 0,0,1
644 517 m 259,24,25
 644 568 644 568 611.5 596 c 128,-1,26
 579 624 579 624 518 624 c 259,27,28
 439 624 439 624 383.5 573 c 128,-1,29
 328 522 328 522 328 441 c 259,30,31
 328 391 328 391 362 361.5 c 128,-1,32
 396 332 396 332 456 332 c 259,33,34
 535 332 535 332 589.5 384.5 c 128,-1,35
 644 437 644 437 644 517 c 259,24,25
EndSplineSet
EndChar

StartChar: colon
Encoding: 58 58 27
Width: 294
Flags: W
HStem: 2 145<119.829 195.157> 383 146<202.499 277.003>
VStem: 89 137<34.0504 116.193> 170 137<413.604 495.985>
LayerCount: 3
Fore
SplineSet
224 383 m 3xd0
 185 383 170 411 170 439 c 3
 170 484 208 529 255 529 c 3
 292 529 307 502 307 474 c 3
 307 429 274 383 224 383 c 3xd0
143 2 m 3
 105 2 89 29 89 58 c 3
 89 103 125 147 174 147 c 3
 212 147 226 122 226 94 c 3xe0
 226 48 191 2 143 2 c 3
EndSplineSet
Layer: 2
SplineSet
224 383 m 259,0,1
 197 383 197 383 183.5 399.5 c 128,-1,2
 170 416 170 416 170 439 c 259,3,4
 170 474 170 474 195 501.5 c 128,-1,5
 220 529 220 529 255 529 c 259,6,7
 281 529 281 529 294 513 c 128,-1,8
 307 497 307 497 307 474 c 259,9,10
 307 438 307 438 283.5 410.5 c 128,-1,11
 260 383 260 383 224 383 c 259,0,1
143 2 m 259,12,13
 116 2 116 2 102.5 18 c 128,-1,14
 89 34 89 34 89 58 c 259,15,16
 89 93 89 93 113.5 120 c 128,-1,17
 138 147 138 147 174 147 c 259,18,19
 199 147 199 147 212.5 133 c 128,-1,20
 226 119 226 119 226 94 c 259,21,22
 226 58 226 58 202 30 c 128,-1,23
 178 2 178 2 143 2 c 259,12,13
EndSplineSet
EndChar

StartChar: semicolon
Encoding: 59 59 28
Width: 320
Flags: W
HStem: -161 51<56 110.224> 379 145<205.036 281.31>
VStem: 89 158<18.4229 120.642> 174 139<411.445 492.25>
LayerCount: 3
Fore
SplineSet
56 -110 m 1xe0
 121 -102 151 -68 159 0 c 1
 114 0 89 25 89 59 c 3
 89 114 135 159 181 159 c 3
 224 159 247 131 247 85 c 3
 247 -35 146 -153 45 -161 c 1
 56 -110 l 1xe0
228 379 m 3
 190 379 174 406 174 434 c 3
 174 478 209 524 258 524 c 3
 296 524 313 496 313 468 c 3xd0
 313 423 275 379 228 379 c 3
EndSplineSet
Layer: 2
SplineSet
56 -110 m 1,0,1
 104 -104 104 -104 128.5 -77.5 c 128,-1,2
 153 -51 153 -51 159 0 c 1,3,4
 126 0 126 0 107.5 16.5 c 128,-1,5
 89 33 89 33 89 59 c 259,6,7
 89 99 89 99 117.5 129 c 128,-1,8
 146 159 146 159 181 159 c 259,9,10
 213 159 213 159 230 139.5 c 128,-1,11
 247 120 247 120 247 85 c 259,12,13
 247 -4 247 -4 184 -79.5 c 128,-1,14
 121 -155 121 -155 45 -161 c 1,15,-1
 56 -110 l 1,0,1
228 379 m 259,16,17
 201 379 201 379 187.5 395 c 128,-1,18
 174 411 174 411 174 434 c 259,19,20
 174 468 174 468 198.5 496 c 128,-1,21
 223 524 223 524 258 524 c 259,22,23
 285 524 285 524 299 507.5 c 128,-1,24
 313 491 313 491 313 468 c 259,25,26
 313 434 313 434 288 406.5 c 128,-1,27
 263 379 263 379 228 379 c 259,16,17
EndSplineSet
EndChar

StartChar: less
Encoding: 60 60 29
Width: 597
Flags: W
DStem2: 237 299 127 247 0.912337 -0.409439<0 349.363> 149 351 237 299 0.936959 0.34944<64.2815 466.913>
LayerCount: 3
Fore
SplineSet
127 247 m 1
 149 351 l 1
 637 533 l 1
 616 435 l 1
 237 299 l 1
 558 161 l 1
 537 63 l 1
 127 247 l 1
EndSplineSet
Validated: 1
Layer: 2
SplineSet
127 247 m 1,0,-1
 149 351 l 1,1,-1
 637 533 l 1,2,-1
 616 435 l 1,3,-1
 237 299 l 1,4,-1
 558 161 l 1,5,-1
 537 63 l 1,6,-1
 127 247 l 1,0,-1
EndSplineSet
EndChar

StartChar: equal
Encoding: 61 61 30
Width: 544
Flags: W
HStem: 138 92<115 526> 402 90<171 582>
LayerCount: 3
Fore
SplineSet
151 402 m 1
 171 492 l 1
 602 492 l 1
 582 402 l 1
 151 402 l 1
95 138 m 1
 115 230 l 1
 546 230 l 1
 526 138 l 1
 95 138 l 1
EndSplineSet
Validated: 1
Layer: 2
SplineSet
151 402 m 1,0,-1
 171 492 l 1,1,-1
 602 492 l 1,2,-1
 582 402 l 1,3,-1
 151 402 l 1,0,-1
95 138 m 1,4,-1
 115 230 l 1,5,-1
 546 230 l 1,6,-1
 526 138 l 1,7,-1
 95 138 l 1,4,-1
EndSplineSet
EndChar

StartChar: greater
Encoding: 62 62 31
Width: 597
Flags: W
DStem2: 108 161 87 63 0.936172 0.351542<0 403.322> 187 533 166 435 0.914725 -0.404077<20.3904 368.972>
LayerCount: 3
Fore
SplineSet
87 63 m 1
 108 161 l 1
 487 299 l 1
 166 435 l 1
 187 533 l 1
 599 351 l 1
 577 247 l 1
 87 63 l 1
EndSplineSet
Validated: 1
Layer: 2
SplineSet
87 63 m 1,0,-1
 108 161 l 1,1,-1
 487 299 l 1,2,-1
 166 435 l 1,3,-1
 187 533 l 1,4,-1
 599 351 l 1,5,-1
 577 247 l 1,6,-1
 87 63 l 1,0,-1
EndSplineSet
EndChar

StartChar: question
Encoding: 63 63 32
Width: 538
Flags: W
HStem: -2 115<241.125 318.875> 369 147<254.029 317.845> 626 81<321.722 449.46>
VStem: 166 86<441 560.931> 221 118<17.9316 92.5918> 252 81<141 208.656> 477 120<463.129 597.864>
LayerCount: 3
Fore
SplineSet
421 707 m 3xf2
 526 707 597 648 597 557 c 3
 597 471 536 376 472 325 c 0
 363 238 353 226 333 141 c 1
 252 141 l 1xe6
 273 239 315 303 378 367 c 0
 449 441 477 479 477 538 c 3
 477 590 442 626 385 626 c 3
 327 626 252 573 252 509 c 3
 252 506 252 503 253 500 c 1
 275 511 294 516 309 516 c 3
 339 516 357 495 357 465 c 3
 357 408 306 369 256 369 c 3
 200 369 166 411 166 471 c 3
 166 607 297 707 421 707 c 3xf2
292 113 m 3
 324 113 339 92 339 68 c 3
 339 31 309 -2 268 -2 c 3
 236 -2 221 18 221 42 c 3xea
 221 79 251 113 292 113 c 3
EndSplineSet
Layer: 2
SplineSet
421 707 m 259,0,1
 500 707 500 707 548.5 666 c 128,-1,2
 597 625 597 625 597 557 c 259,3,4
 597 496 597 496 560 431 c 128,-1,5
 523 366 523 366 472 325 c 0,6,7
 390 259 390 259 369 231.5 c 128,-1,8
 348 204 348 204 333 141 c 1,9,-1
 252 141 l 1,10,11
 267 211 267 211 297.5 263.5 c 128,-1,12
 328 316 328 316 378 367 c 0,13,14
 435 426 435 426 456 461 c 128,-1,15
 477 496 477 496 477 538 c 259,16,17
 477 577 477 577 452 601.5 c 128,-1,18
 427 626 427 626 385 626 c 259,19,20
 339 626 339 626 295.5 590.5 c 128,-1,21
 252 555 252 555 252 509 c 259,22,23
 252 503 252 503 253 500 c 1,24,25
 285 516 285 516 309 516 c 259,26,27
 331 516 331 516 344 502 c 128,-1,28
 357 488 357 488 357 465 c 259,29,30
 357 424 357 424 326 396.5 c 128,-1,31
 295 369 295 369 256 369 c 259,32,33
 215 369 215 369 190.5 397 c 128,-1,34
 166 425 166 425 166 471 c 259,35,36
 166 569 166 569 245 638 c 128,-1,37
 324 707 324 707 421 707 c 259,0,1
292 113 m 259,38,39
 315 113 315 113 327 100 c 128,-1,40
 339 87 339 87 339 68 c 259,41,42
 339 40 339 40 318.5 19 c 128,-1,43
 298 -2 298 -2 268 -2 c 259,44,45
 245 -2 245 -2 233 10.5 c 128,-1,46
 221 23 221 23 221 42 c 259,47,48
 221 70 221 70 241.5 91.5 c 128,-1,49
 262 113 262 113 292 113 c 259,38,39
EndSplineSet
EndChar

StartChar: at
Encoding: 64 64 33
Width: 784
Flags: W
HStem: -26 80<326.913 527.663> 135 98<341.711 432.512> 135 64<518 637.368> 440 96<427.111 531.599> 644 79<434.517 645.767>
VStem: 119 87<171.458 392.768> 257 108<245.74 367.047> 735 89<356.806 556.784>
LayerCount: 3
Fore
SplineSet
532 135 m 3xbf
 504 135 482 148 482 179 c 3
 482 184 482 189 483 195 c 1
 434 152 403 138 376 138 c 3
 306 138 257 195 257 271 c 3
 257 332 288 399 325 445 c 0
 368 499 428 536 493 536 c 3
 534 536 563 523 592 472 c 1
 614 530 l 1
 694 530 l 1
 597 259 l 2
 587 232 583 214 583 207 c 3
 583 201 586 199 596 199 c 3
 623 199 656 230 686 283 c 0
 719 342 735 394 735 463 c 3
 735 582 660 644 543 644 c 3
 452 644 371 606 305 531 c 0
 246 464 206 374 206 274 c 3
 206 136 299 54 433 54 c 3
 498 54 563 80 621 121 c 1
 705 121 l 1
 598 16 516 -26 408 -26 c 3
 225 -26 119 86 119 252 c 3
 119 385 172 493 253 580 c 0
 339 672 445 723 562 723 c 3
 718 723 824 621 824 482 c 3
 824 396 793 315 747 248 c 0
 697 175 620 135 532 135 c 3xbf
365 298 m 3
 365 261 384 233 421 233 c 3xdf
 455 233 486 252 508 280 c 0
 529 306 543 346 543 377 c 3
 543 415 523 440 485 440 c 3
 454 440 424 422 402 395 c 0
 381 369 365 338 365 298 c 3
EndSplineSet
Layer: 2
SplineSet
532 135 m 259,0,1
 482 135 482 135 482 179 c 259,2,3
 482 189 482 189 483 195 c 1,4,5
 418 138 418 138 376 138 c 259,6,7
 324 138 324 138 290.5 176 c 128,-1,8
 257 214 257 214 257 271 c 259,9,10
 257 360 257 360 325 445 c 0,11,12
 397 536 397 536 493 536 c 259,13,14
 526 536 526 536 548.5 522.5 c 128,-1,15
 571 509 571 509 592 472 c 1,16,-1
 614 530 l 1,17,-1
 694 530 l 1,18,-1
 597 259 l 2,19,20
 583 221 583 221 583 207 c 259,21,22
 583 199 583 199 596 199 c 259,23,24
 638 199 638 199 686 283 c 0,25,26
 735 371 735 371 735 463 c 259,27,28
 735 551 735 551 683.5 597.5 c 128,-1,29
 632 644 632 644 543 644 c 259,30,31
 404 644 404 644 305 531 c 0,32,33
 206 419 206 419 206 274 c 259,34,35
 206 172 206 172 268.5 113 c 128,-1,36
 331 54 331 54 433 54 c 259,37,38
 526 54 526 54 621 121 c 1,39,-1
 705 121 l 1,40,41
 624 42 624 42 556 8 c 128,-1,42
 488 -26 488 -26 408 -26 c 259,43,44
 273 -26 273 -26 196 50 c 128,-1,45
 119 126 119 126 119 252 c 259,46,47
 119 436 119 436 253 580 c 0,48,49
 387 723 387 723 562 723 c 259,50,51
 678 723 678 723 751 655 c 128,-1,52
 824 587 824 587 824 482 c 259,53,54
 824 360 824 360 747 248 c 0,55,56
 670 135 670 135 532 135 c 259,0,1
365 298 m 259,57,58
 365 269 365 269 379.5 251 c 128,-1,59
 394 233 394 233 421 233 c 259,60,61
 471 233 471 233 508 280 c 0,62,63
 543 323 543 323 543 377 c 259,64,65
 543 406 543 406 528 423 c 128,-1,66
 513 440 513 440 485 440 c 259,67,68
 439 440 439 440 402 395 c 0,69,70
 365 349 365 349 365 298 c 259,57,58
EndSplineSet
EndChar

StartChar: A
Encoding: 65 65 34
Width: 628
Flags: W
HStem: 0 21G<25 151 458.933 584> 150 100<263 445> 680 20G<357.229 541.257>
VStem: 460 124<0 124>
DStem2: 25 0 141 0 0.43898 0.898497<50.9217 218.62 329.101 709.258>
LayerCount: 3
Fore
SplineSet
460 0 m 1
 452 150 l 1
 216 150 l 1
 141 0 l 1
 25 0 l 1
 367 700 l 1
 540 700 l 1
 584 0 l 1
 460 0 l 1
429 592 m 1
 263 250 l 1
 445 250 l 1
 429 592 l 1
EndSplineSet
Validated: 1
Layer: 2
SplineSet
460 0 m 1,0,-1
 452 150 l 1,1,-1
 216 150 l 1,2,-1
 141 0 l 1,3,-1
 25 0 l 1,4,-1
 367 700 l 1,5,-1
 540 700 l 1,6,-1
 584 0 l 1,7,-1
 460 0 l 1,0,-1
429 592 m 1,8,-1
 263 250 l 1,9,-1
 445 250 l 1,10,-1
 429 592 l 1,8,-1
EndSplineSet
EndChar

StartChar: B
Encoding: 66 66 35
Width: 646
Flags: W
HStem: 0 100<222 452.167> 311 100<288 494.742> 600 100<329 545.681>
VStem: 520 113<162.254 286.382> 569 124<478.859 577.348>
DStem2: 83 0 200.744 0 0.207912 0.978148<126.714 342.46 444.641 638.035>
LayerCount: 3
Fore
SplineSet
365 0 m 2xf0
 83 0 l 1
 232 700 l 1
 514 700 l 2
 632 700 693 656 693 572 c 3xe8
 693 474 629 392 535 366 c 1
 531 357 l 1
 600 341 633 290 633 225 c 3
 633 82 520 0 365 0 c 2xf0
444 600 m 2
 329 600 l 1
 288 411 l 1
 415 411 l 2
 507 411 569 457 569 534 c 3
 569 580 532 600 444 600 c 2
403 311 m 2
 267 311 l 1
 222 100 l 1
 351 100 l 2
 452 100 520 146 520 237 c 3xf0
 520 287 482 311 403 311 c 2
EndSplineSet
Layer: 2
SplineSet
365 0 m 2,0,-1
 83 0 l 1,1,-1
 232 700 l 1,2,-1
 514 700 l 2,3,4
 605 700 605 700 649 667.5 c 128,-1,5
 693 635 693 635 693 572 c 259,6,7
 693 499 693 499 649.5 442.5 c 128,-1,8
 606 386 606 386 535 366 c 1,9,-1
 531 357 l 1,10,11
 581 345 581 345 607 310 c 128,-1,12
 633 275 633 275 633 225 c 259,13,14
 633 120 633 120 558.5 60 c 128,-1,15
 484 0 484 0 365 0 c 2,0,-1
444 600 m 2,16,-1
 329 600 l 1,17,-1
 288 411 l 1,18,-1
 415 411 l 2,19,20
 485 411 485 411 527 444 c 128,-1,21
 569 477 569 477 569 534 c 259,22,23
 569 569 569 569 539.5 584.5 c 128,-1,24
 510 600 510 600 444 600 c 2,16,-1
403 311 m 2,25,-1
 267 311 l 1,26,-1
 222 100 l 1,27,-1
 351 100 l 2,28,29
 429 100 429 100 474.5 135 c 128,-1,30
 520 170 520 170 520 237 c 259,31,32
 520 311 520 311 403 311 c 2,25,-1
EndSplineSet
EndChar

StartChar: C
Encoding: 67 67 36
Width: 646
Flags: W
HStem: -5 100<294.533 431.64> 616 100<390.302 529.469>
VStem: 113 121<163.274 394.136> 570 126<471 574.438>
LayerCount: 3
Fore
SplineSet
328 -5 m 3
 192 -5 113 85 113 238 c 3
 113 368 158 486 217 569 c 0
 288 669 377 716 485 716 c 3
 626 716 696 639 696 503 c 3
 696 493 696 482 695 471 c 1
 567 461 l 1
 569 474 570 486 570 497 c 3
 570 570 531 616 460 616 c 3
 405 616 358 581 306 504 c 0
 263 440 234 353 234 268 c 3
 234 166 281 95 356 95 c 3
 426 95 495 150 528 235 c 1
 643 227 l 1
 592 86 472 -5 328 -5 c 3
EndSplineSet
Layer: 2
SplineSet
328 -5 m 259,0,1
 226 -5 226 -5 169.5 59 c 128,-1,2
 113 123 113 123 113 238 c 259,3,4
 113 423 113 423 217 569 c 0,5,6
 321 716 321 716 485 716 c 259,7,8
 590 716 590 716 643 661 c 128,-1,9
 696 606 696 606 696 503 c 259,10,11
 696 482 696 482 695 471 c 1,12,-1
 567 461 l 1,13,14
 570 481 570 481 570 497 c 259,15,16
 570 552 570 552 541.5 584 c 128,-1,17
 513 616 513 616 460 616 c 259,18,19
 382 616 382 616 306 504 c 0,20,21
 234 397 234 397 234 268 c 259,22,23
 234 191 234 191 267 143 c 128,-1,24
 300 95 300 95 356 95 c 259,25,26
 409 95 409 95 456 133.5 c 128,-1,27
 503 172 503 172 528 235 c 1,28,-1
 643 227 l 1,29,30
 605 121 605 121 520 58 c 128,-1,31
 435 -5 435 -5 328 -5 c 259,0,1
EndSplineSet
EndChar

StartChar: D
Encoding: 68 68 37
Width: 646
Flags: W
HStem: 0 100<194 391.791> 600 100<301 493.325>
VStem: 562 119<314.985 534.908>
DStem2: 55 0 172.744 0 0.207912 0.978148<126.714 638.035>
LayerCount: 3
Fore
SplineSet
259 0 m 2
 55 0 l 1
 204 700 l 1
 382 700 l 2
 587 700 681 621 681 465 c 3
 681 335 638 220 572 140 c 0
 495 46 395 0 259 0 c 2
376 600 m 2
 301 600 l 1
 194 100 l 1
 268 100 l 2
 372 100 447 133 496 214 c 0
 533 276 562 362 562 449 c 3
 562 555 503 600 376 600 c 2
EndSplineSet
Layer: 2
SplineSet
259 0 m 2,0,-1
 55 0 l 1,1,-1
 204 700 l 1,2,-1
 382 700 l 2,3,4
 535 700 535 700 608 641.5 c 128,-1,5
 681 583 681 583 681 465 c 259,6,7
 681 272 681 272 572 140 c 0,8,9
 457 0 457 0 259 0 c 2,0,-1
376 600 m 2,10,-1
 301 600 l 1,11,-1
 194 100 l 1,12,-1
 268 100 l 2,13,14
 427 100 427 100 496 214 c 0,15,16
 562 325 562 325 562 449 c 259,17,18
 562 528 562 528 517 564 c 128,-1,19
 472 600 472 600 376 600 c 2,10,-1
EndSplineSet
EndChar

StartChar: E
Encoding: 69 69 38
Width: 568
Flags: W
HStem: 0 100<219 523> 293 100<282 516> 600 100<326 651>
DStem2: 80 0 197.744 0 0.207912 0.978148<126.714 324.021 426.41 638.035>
LayerCount: 3
Fore
SplineSet
80 0 m 1
 229 700 l 1
 672 700 l 1
 651 600 l 1
 326 600 l 1
 282 393 l 1
 538 393 l 1
 516 293 l 1
 260 293 l 1
 219 100 l 1
 544 100 l 1
 523 0 l 1
 80 0 l 1
EndSplineSet
Validated: 1
Layer: 2
SplineSet
80 0 m 1,0,-1
 229 700 l 1,1,-1
 672 700 l 1,2,-1
 651 600 l 1,3,-1
 326 600 l 1,4,-1
 282 393 l 1,5,-1
 538 393 l 1,6,-1
 516 293 l 1,7,-1
 260 293 l 1,8,-1
 219 100 l 1,9,-1
 544 100 l 1,10,-1
 523 0 l 1,11,-1
 80 0 l 1,0,-1
EndSplineSet
EndChar

StartChar: F
Encoding: 70 70 39
Width: 530
Flags: W
HStem: 0 21G<80 202.232> 293 100<282 516> 600 100<326 648>
VStem: 80 118<0 118>
DStem2: 80 0 198 0 0.207912 0.978148<24.5336 324.021 426.41 638.035>
LayerCount: 3
Fore
SplineSet
326 600 m 1
 282 393 l 1
 538 393 l 1
 516 293 l 1
 260 293 l 1
 198 0 l 1
 80 0 l 1
 229 700 l 1
 669 700 l 1
 648 600 l 1
 326 600 l 1
EndSplineSet
Validated: 1
Layer: 2
SplineSet
326 600 m 1,0,-1
 282 393 l 1,1,-1
 538 393 l 1,2,-1
 516 293 l 1,3,-1
 260 293 l 1,4,-1
 198 0 l 1,5,-1
 80 0 l 1,6,-1
 229 700 l 1,7,-1
 669 700 l 1,8,-1
 648 600 l 1,9,-1
 326 600 l 1,0,-1
EndSplineSet
EndChar

StartChar: G
Encoding: 71 71 40
Width: 646
Flags: W
HStem: -5 100<300.57 445.043> 261 100<433 536> 616 100<397.168 541.66>
VStem: 100 122<184.897 397.604> 589 116<497 565.297>
LayerCount: 3
Fore
SplineSet
481 0 m 1
 493 55 l 1
 455 12 415 -5 333 -5 c 3
 191 -5 100 94 100 249 c 3
 100 371 142 482 212 571 c 0
 290 671 387 716 501 716 c 3
 628 716 705 637 705 509 c 2
 705 497 l 1
 589 480 l 1
 589 489 l 2
 589 557 551 616 476 616 c 3
 415 616 358 583 301 504 c 0
 254 439 222 361 222 284 c 3
 222 181 281 95 373 95 c 3
 454 95 512 149 536 261 c 1
 411 261 l 1
 433 361 l 1
 676 361 l 1
 599 0 l 1
 481 0 l 1
EndSplineSet
Layer: 2
SplineSet
481 0 m 1,0,-1
 493 55 l 1,1,2
 464 22 464 22 428.5 8.5 c 128,-1,3
 393 -5 393 -5 333 -5 c 259,4,5
 226 -5 226 -5 163 64 c 128,-1,6
 100 133 100 133 100 249 c 259,7,8
 100 429 100 429 212 571 c 0,9,10
 325 716 325 716 501 716 c 259,11,12
 596 716 596 716 650.5 660.5 c 128,-1,13
 705 605 705 605 705 509 c 2,14,-1
 705 497 l 1,15,-1
 589 480 l 1,16,-1
 589 489 l 2,17,18
 589 543 589 543 559.5 579.5 c 128,-1,19
 530 616 530 616 476 616 c 259,20,21
 382 616 382 616 301 504 c 0,22,23
 222 395 222 395 222 284 c 259,24,25
 222 205 222 205 264 150 c 128,-1,26
 306 95 306 95 373 95 c 259,27,28
 500 95 500 95 536 261 c 1,29,-1
 411 261 l 1,30,-1
 433 361 l 1,31,-1
 676 361 l 1,32,-1
 599 0 l 1,33,-1
 481 0 l 1,0,-1
EndSplineSet
EndChar

StartChar: H
Encoding: 72 72 41
Width: 657
Flags: W
HStem: 0 21G<60 182.262 487 609.257> 305 100<264 552> 680 20G<204.743 327 631.729 754>
VStem: 60 118<0 118> 209 118<582 700> 487 118<0 118> 636 118<582 700>
DStem2: 60 0 178 0 0.207912 0.978148<24.5336 336.383 438.564 715.682> 487 0 605 0 0.207912 0.978148<24.5336 311.849 414.03 715.682>
LayerCount: 3
Fore
SplineSet
487 0 m 1
 552 305 l 1
 243 305 l 1
 178 0 l 1
 60 0 l 1
 209 700 l 1
 327 700 l 1
 264 405 l 1
 573 405 l 1
 636 700 l 1
 754 700 l 1
 605 0 l 1
 487 0 l 1
EndSplineSet
Validated: 1
Layer: 2
SplineSet
487 0 m 1,0,-1
 552 305 l 1,1,-1
 243 305 l 1,2,-1
 178 0 l 1,3,-1
 60 0 l 1,4,-1
 209 700 l 1,5,-1
 327 700 l 1,6,-1
 264 405 l 1,7,-1
 573 405 l 1,8,-1
 636 700 l 1,9,-1
 754 700 l 1,10,-1
 605 0 l 1,11,-1
 487 0 l 1,0,-1
EndSplineSet
EndChar

StartChar: I
Encoding: 73 73 42
Width: 294
Flags: W
HStem: 0 21G<84 206.257> 680 20G<228.743 351>
VStem: 84 118<0 118> 233 118<582 700>
DStem2: 84 0 202 0 0.207912 0.978148<24.5336 715.682>
LayerCount: 3
Fore
SplineSet
84 0 m 1
 233 700 l 1
 351 700 l 1
 202 0 l 1
 84 0 l 1
EndSplineSet
Validated: 1
Layer: 2
SplineSet
84 0 m 1,0,-1
 233 700 l 1,1,-1
 351 700 l 1,2,-1
 202 0 l 1,3,-1
 84 0 l 1,0,-1
EndSplineSet
EndChar

StartChar: J
Encoding: 74 74 43
Width: 482
Flags: W
HStem: -5 100<201.397 312.935> 680 20G<471.732 594>
VStem: 64 120<113.863 213.478> 476 118<582 700>
DStem2: 325.75 -5 444.3 -5 0.207912 0.978148<139.351 720.833>
LayerCount: 3
Fore
SplineSet
490 210 m 2
 464 88 356 -5 236 -5 c 3
 125 -5 64 59 64 145 c 3
 64 159 66 172 69 187 c 2
 87 274 l 1
 205 274 l 1
 187 187 l 2
 185 180 184 173 184 166 c 3
 184 123 214 95 251 95 c 3
 310 95 357 144 374 222 c 2
 476 700 l 1
 594 700 l 1
 490 210 l 2
EndSplineSet
Layer: 2
SplineSet
490 210 m 2,0,1
 470 118 470 118 398 56.5 c 128,-1,2
 326 -5 326 -5 236 -5 c 259,3,4
 155 -5 155 -5 109.5 37 c 128,-1,5
 64 79 64 79 64 145 c 259,6,7
 64 162 64 162 69 187 c 2,8,-1
 87 274 l 1,9,-1
 205 274 l 1,10,-1
 187 187 l 2,11,12
 184 177 184 177 184 166 c 259,13,14
 184 134 184 134 203.5 114.5 c 128,-1,15
 223 95 223 95 251 95 c 259,16,17
 295 95 295 95 328 129 c 128,-1,18
 361 163 361 163 374 222 c 2,19,-1
 476 700 l 1,20,-1
 594 700 l 1,21,-1
 490 210 l 2,0,1
EndSplineSet
EndChar

StartChar: K
Encoding: 75 75 44
Width: 628
Flags: W
HStem: 0 21G<80 202.308 453.767 593> 680 20G<224.743 347 566.394 710>
VStem: 80 118<0 118> 229 118<582 700> 458 135<0 135> 583 127<573 700>
DStem2: 80 0 198 0 0.207912 0.978148<24.5336 157.514 348.536 715.682> 265 317 389 326 0.64726 0.762269<0 87.1207 243.693 497.778> 499 438 389 326 0.209834 -0.977737<86.4248 419.646>
LayerCount: 3
Fore
SplineSet
458 0 m 1xf8
 389 326 l 1
 226 130 l 1
 198 0 l 1
 80 0 l 1
 229 700 l 1
 347 700 l 1
 265 317 l 1
 583 700 l 1
 710 700 l 1xf4
 499 438 l 1
 593 0 l 1
 458 0 l 1xf8
EndSplineSet
Validated: 1
Layer: 2
SplineSet
458 0 m 1,0,-1
 389 326 l 1,1,-1
 226 130 l 1,2,-1
 198 0 l 1,3,-1
 80 0 l 1,4,-1
 229 700 l 1,5,-1
 347 700 l 1,6,-1
 265 317 l 1,7,-1
 583 700 l 1,8,-1
 710 700 l 1,9,-1
 499 438 l 1,10,-1
 593 0 l 1,11,-1
 458 0 l 1,0,-1
EndSplineSet
EndChar

StartChar: L
Encoding: 76 76 45
Width: 490
Flags: W
HStem: 0 100<214 466> 680 20G<219.743 342>
VStem: 224 118<582 700>
DStem2: 75 0 192.744 0 0.207912 0.978148<126.714 715.682>
LayerCount: 3
Fore
SplineSet
75 0 m 1
 224 700 l 1
 342 700 l 1
 214 100 l 1
 487 100 l 1
 466 0 l 1
 75 0 l 1
EndSplineSet
Validated: 1
Layer: 2
SplineSet
75 0 m 1,0,-1
 224 700 l 1,1,-1
 342 700 l 1,2,-1
 214 100 l 1,3,-1
 487 100 l 1,4,-1
 466 0 l 1,5,-1
 75 0 l 1,0,-1
EndSplineSet
EndChar

StartChar: M
Encoding: 77 77 46
Width: 862
Flags: W
HStem: 0 21G<80 202.267 384.8 474.833 659 781.257> 600 100<326 350 760 787>
VStem: 80 118<0 118> 659 118<0 118>
DStem2: 80 0 198 0 0.207912 0.978148<24.5336 638.035> 443 700 350 600 0.0598923 -0.998205<94.2505 495.728> 470 205 465 0 0.441221 0.897399<0 482.426> 659 0 777 0 0.207912 0.978148<24.5336 613.501>
LayerCount: 3
Fore
SplineSet
659 0 m 1
 787 600 l 1
 760 600 l 1
 465 0 l 1
 386 0 l 1
 350 600 l 1
 326 600 l 1
 198 0 l 1
 80 0 l 1
 229 700 l 1
 443 700 l 1
 470 205 l 1
 712 700 l 1
 926 700 l 1
 777 0 l 1
 659 0 l 1
EndSplineSet
Validated: 1
Layer: 2
SplineSet
659 0 m 1,0,-1
 787 600 l 1,1,-1
 760 600 l 1,2,-1
 465 0 l 1,3,-1
 386 0 l 1,4,-1
 350 600 l 1,5,-1
 326 600 l 1,6,-1
 198 0 l 1,7,-1
 80 0 l 1,8,-1
 229 700 l 1,9,-1
 443 700 l 1,10,-1
 470 205 l 1,11,-1
 712 700 l 1,12,-1
 926 700 l 1,13,-1
 777 0 l 1,14,-1
 659 0 l 1,0,-1
EndSplineSet
EndChar

StartChar: N
Encoding: 78 78 47
Width: 646
Flags: W
HStem: 0 21G<80 202.267 449.476 565.257> 680 20G<224.743 373.353 587.76 710>
VStem: 80 118<0 118> 592 118<582 700>
DStem2: 80 0 198 0 0.207912 0.978148<24.5336 561.347> 368 700 310 525 0.266223 -0.963911<153.244 483.425> 443.474 0 561 0 0.207912 0.978148<238.205 715.584>
LayerCount: 3
Fore
SplineSet
455 0 m 1
 310 525 l 1
 198 0 l 1
 80 0 l 1
 229 700 l 1
 368 700 l 1
 493 233 l 1
 592 700 l 1
 710 700 l 1
 561 0 l 1
 455 0 l 1
EndSplineSet
Validated: 1
Layer: 2
SplineSet
455 0 m 1,0,-1
 310 525 l 1,1,-1
 198 0 l 1,2,-1
 80 0 l 1,3,-1
 229 700 l 1,4,-1
 368 700 l 1,5,-1
 493 233 l 1,6,-1
 592 700 l 1,7,-1
 710 700 l 1,8,-1
 561 0 l 1,9,-1
 455 0 l 1,0,-1
EndSplineSet
EndChar

StartChar: O
Encoding: 79 79 48
Width: 646
Flags: W
HStem: -5 100<274.795 411.948> 616 100<369.014 513.83>
VStem: 102 120<155.792 402.926> 568 120<323.118 556.72>
LayerCount: 3
Fore
SplineSet
317 -5 m 3
 180 -5 102 87 102 242 c 3
 102 374 141 484 208 574 c 0
 279 670 368 716 470 716 c 3
 605 716 688 624 688 472 c 3
 688 355 648 242 585 149 c 0
 510 38 424 -5 317 -5 c 3
449 616 m 3
 385 616 332 582 286 503 c 0
 247 437 222 352 222 264 c 3
 222 162 263 95 338 95 c 3
 400 95 455 136 499 211 c 0
 543 285 568 367 568 457 c 3
 568 555 525 616 449 616 c 3
EndSplineSet
Layer: 2
SplineSet
317 -5 m 259,0,1
 215 -5 215 -5 158.5 60 c 128,-1,2
 102 125 102 125 102 242 c 259,3,4
 102 432 102 432 208 574 c 0,5,6
 313 716 313 716 470 716 c 259,7,8
 571 716 571 716 629.5 651 c 128,-1,9
 688 586 688 586 688 472 c 259,10,11
 688 301 688 301 585 149 c 0,12,13
 481 -5 481 -5 317 -5 c 259,0,1
449 616 m 259,14,15
 352 616 352 616 286 503 c 0,16,17
 222 395 222 395 222 264 c 259,18,19
 222 186 222 186 252.5 140.5 c 128,-1,20
 283 95 283 95 338 95 c 259,21,22
 431 95 431 95 499 211 c 0,23,24
 568 327 568 327 568 457 c 259,25,26
 568 531 568 531 537 573.5 c 128,-1,27
 506 616 506 616 449 616 c 259,14,15
EndSplineSet
EndChar

StartChar: P
Encoding: 80 80 49
Width: 625
Flags: W
HStem: 0 21G<63 185.265> 272 100<260 479.684> 600 100<309 522.008>
VStem: 63 118<0 118> 554 123<439.479 570.034>
DStem2: 63 0 181 0 0.207912 0.978148<24.5336 302.649 404.83 638.035>
LayerCount: 3
Fore
SplineSet
612 357 m 0
 566 299 493 272 383 272 c 2
 239 272 l 1
 181 0 l 1
 63 0 l 1
 212 700 l 1
 469 700 l 2
 606 700 677 646 677 547 c 3
 677 471 650 406 612 357 c 0
439 600 m 2
 309 600 l 1
 260 372 l 1
 392 372 l 2
 440 372 481 387 509 412 c 0
 535 436 554 469 554 514 c 3
 554 570 512 600 439 600 c 2
EndSplineSet
Layer: 2
SplineSet
612 357 m 0,0,1
 545 272 545 272 383 272 c 2,2,-1
 239 272 l 1,3,-1
 181 0 l 1,4,-1
 63 0 l 1,5,-1
 212 700 l 1,6,-1
 469 700 l 2,7,8
 571 700 571 700 624 661 c 128,-1,9
 677 622 677 622 677 547 c 259,10,11
 677 441 677 441 612 357 c 0,0,1
439 600 m 2,12,-1
 309 600 l 1,13,-1
 260 372 l 1,14,-1
 392 372 l 2,15,16
 464 372 464 372 509 412 c 0,17,18
 554 454 554 454 554 514 c 259,19,20
 554 556 554 556 524 578 c 128,-1,21
 494 600 494 600 439 600 c 2,12,-1
EndSplineSet
EndChar

StartChar: Q
Encoding: 81 81 50
Width: 646
Flags: W
HStem: -153 100<466.419 541> -5 100<274.795 385.477> 616 100<373.701 513.83>
VStem: 102 120<155.792 400.788> 382 76<-83.4131 4.58234> 568 120<325.795 556.72>
LayerCount: 3
Fore
SplineSet
449 616 m 3
 385 616 328 574 286 503 c 0
 252 445 222 353 222 264 c 3
 222 162 263 95 338 95 c 3
 400 95 456 139 498 209 c 0
 542 283 568 363 568 457 c 3
 568 555 525 616 449 616 c 3
503 -153 m 3
 417 -153 382 -122 382 -44 c 3
 382 -29 384 -13 386 5 c 1
 364 0 341 -5 317 -5 c 3
 180 -5 102 87 102 242 c 3
 102 375 143 487 208 573 c 0
 282 672 369 716 470 716 c 3
 605 716 688 624 688 472 c 3
 688 374 657 279 623 211 c 0
 583 131 528 69 462 33 c 1
 460 22 458 11 458 2 c 3
 458 -33 476 -53 515 -53 c 1
 562 -50 l 1
 541 -150 l 1
 529 -152 514 -153 503 -153 c 3
EndSplineSet
Layer: 2
SplineSet
449 616 m 259,0,1
 353 616 353 616 286 503 c 0,2,3
 222 394 222 394 222 264 c 259,4,5
 222 186 222 186 252.5 140.5 c 128,-1,6
 283 95 283 95 338 95 c 259,7,8
 430 95 430 95 498 209 c 0,9,10
 568 327 568 327 568 457 c 259,11,12
 568 531 568 531 537 573.5 c 128,-1,13
 506 616 506 616 449 616 c 259,0,1
503 -153 m 259,14,15
 438 -153 438 -153 410 -127.5 c 128,-1,16
 382 -102 382 -102 382 -44 c 259,17,18
 382 -31 382 -31 386 5 c 1,19,20
 342 -5 342 -5 317 -5 c 259,21,22
 215 -5 215 -5 158.5 60 c 128,-1,23
 102 125 102 125 102 242 c 259,24,25
 102 433 102 433 208 573 c 0,26,27
 315 716 315 716 470 716 c 259,28,29
 571 716 571 716 629.5 651 c 128,-1,30
 688 586 688 586 688 472 c 259,31,32
 688 341 688 341 623 211 c 0,33,34
 561 87 561 87 462 33 c 1,35,36
 458 11 458 11 458 2 c 259,37,38
 458 -53 458 -53 515 -53 c 2,39,-1
 562 -50 l 1,40,-1
 541 -150 l 1,41,42
 523 -153 523 -153 503 -153 c 259,14,15
EndSplineSet
EndChar

StartChar: R
Encoding: 82 82 51
Width: 659
Flags: W
HStem: 0 21G<54 176.261 501.5 634.324> 291 100<255 506.728> 600 100<300 574.557>
VStem: 54 118<0 118> 496 121<19.5291 199.357> 520 120<169.722 277.652> 596 121<445.113 579.245>
DStem2: 54 0 172 0 0.207912 0.978148<24.5336 322.065 424.246 638.035>
LayerCount: 3
Fore
SplineSet
523 700 m 2xf4
 655 700 717 654 717 556 c 3xf2
 717 523 709 477 695 445 c 0
 678 409 654 389 591 345 c 1
 623 320 640 283 640 238 c 3xf4
 640 224 638 210 635 195 c 2
 622 130 l 2
 619 116 617 104 617 93 c 3
 617 69 624 51 638 37 c 1
 630 0 l 1
 504 0 l 1
 499 30 496 50 496 69 c 3xf8
 496 88 498 107 504 134 c 2
 514 177 l 2
 518 196 520 212 520 226 c 3
 520 272 496 291 440 291 c 2
 234 291 l 1
 172 0 l 1
 54 0 l 1
 203 700 l 1
 523 700 l 2xf4
481 391 m 2
 523 391 552 405 571 437 c 0
 583 457 596 493 596 528 c 3
 596 575 567 600 504 600 c 2
 300 600 l 1
 255 391 l 1
 481 391 l 2
EndSplineSet
Layer: 2
SplineSet
523 700 m 2,0,1
 622 700 622 700 669.5 664.5 c 128,-1,2
 717 629 717 629 717 556 c 259,3,4
 717 495 717 495 695 445 c 0,5,6
 683 419 683 419 662 399.5 c 128,-1,7
 641 380 641 380 591 345 c 1,8,9
 640 307 640 307 640 238 c 259,10,11
 640 220 640 220 635 195 c 2,12,-1
 622 130 l 2,13,14
 617 107 617 107 617 93 c 259,15,16
 617 58 617 58 638 37 c 1,17,-1
 630 0 l 1,18,-1
 504 0 l 1,19,20
 496 48 496 48 496 69 c 259,21,22
 496 98 496 98 504 134 c 2,23,-1
 514 177 l 2,24,25
 520 205 520 205 520 226 c 259,26,27
 520 260 520 260 501 275.5 c 128,-1,28
 482 291 482 291 440 291 c 2,29,-1
 234 291 l 1,30,-1
 172 0 l 1,31,-1
 54 0 l 1,32,-1
 203 700 l 1,33,-1
 523 700 l 2,0,1
481 391 m 2,34,35
 544 391 544 391 571 437 c 0,36,37
 596 479 596 479 596 528 c 259,38,39
 596 600 596 600 504 600 c 2,40,-1
 300 600 l 1,41,-1
 255 391 l 1,42,-1
 481 391 l 2,34,35
EndSplineSet
EndChar

StartChar: S
Encoding: 83 83 52
Width: 588
Flags: W
HStem: -5 100<229.515 382.435> 616 100<331.232 474.316>
VStem: 154 126<412 549.741> 450 125<160.592 267.672>
LayerCount: 3
Fore
SplineSet
229 633 m 0
 281 689 349 716 431 716 c 3
 550 716 616 668 632 573 c 1
 504 533 l 1
 492 594 465 616 406 616 c 3
 369 616 339 604 316 582 c 0
 296 563 280 535 280 497 c 3
 280 455 310 436 388 420 c 0
 513 395 575 341 575 260 c 3
 575 191 544 127 500 79 c 0
 445 20 372 -5 273 -5 c 3
 151 -5 69 52 61 163 c 1
 189 199 l 1
 198 124 239 95 308 95 c 3
 334 95 375 108 401 128 c 0
 436 155 450 180 450 217 c 3
 450 262 418 289 344 306 c 0
 204 338 154 375 154 449 c 3
 154 523 188 588 229 633 c 0
EndSplineSet
Layer: 2
SplineSet
229 633 m 0,0,1
 306 716 306 716 431 716 c 259,2,3
 516 716 516 716 568 681.5 c 128,-1,4
 620 647 620 647 632 573 c 1,5,-1
 504 533 l 1,6,7
 495 579 495 579 472.5 597.5 c 128,-1,8
 450 616 450 616 406 616 c 259,9,10
 352 616 352 616 316 582 c 128,-1,11
 280 548 280 548 280 497 c 259,12,13
 280 466 280 466 304.5 449 c 128,-1,14
 329 432 329 432 388 420 c 0,15,16
 486 401 486 401 530.5 359.5 c 128,-1,17
 575 318 575 318 575 260 c 259,18,19
 575 161 575 161 500 79 c 0,20,21
 422 -5 422 -5 273 -5 c 259,22,23
 180 -5 180 -5 123.5 38 c 128,-1,24
 67 81 67 81 61 163 c 1,25,-1
 189 199 l 1,26,27
 195 150 195 150 223 122.5 c 128,-1,28
 251 95 251 95 308 95 c 259,29,30
 358 95 358 95 401 128 c 0,31,32
 450 166 450 166 450 217 c 259,33,34
 450 251 450 251 424.5 272 c 128,-1,35
 399 293 399 293 344 306 c 0,36,37
 239 330 239 330 196.5 362 c 128,-1,38
 154 394 154 394 154 449 c 259,39,40
 154 551 154 551 229 633 c 0,0,1
EndSplineSet
EndChar

StartChar: T
Encoding: 84 84 53
Width: 530
Flags: W
HStem: 0 21G<203 325.267> 600 100<180 331 449 618>
VStem: 203 118<0 118>
DStem2: 203 0 321 0 0.207912 0.978148<24.5336 613.501>
LayerCount: 3
Fore
SplineSet
449 600 m 1
 321 0 l 1
 203 0 l 1
 331 600 l 1
 159 600 l 1
 180 700 l 1
 639 700 l 1
 618 600 l 1
 449 600 l 1
EndSplineSet
Validated: 1
Layer: 2
SplineSet
449 600 m 1,0,-1
 321 0 l 1,1,-1
 203 0 l 1,2,-1
 331 600 l 1,3,-1
 159 600 l 1,4,-1
 180 700 l 1,5,-1
 639 700 l 1,6,-1
 618 600 l 1,7,-1
 449 600 l 1,0,-1
EndSplineSet
EndChar

StartChar: U
Encoding: 85 85 54
Width: 646
Flags: W
HStem: -5 100<262.199 442.893> 680 20G<213.726 336 612.739 735>
VStem: 110 122<123.412 294> 218 118<582 700> 617 118<582 700>
DStem2: 67.6241 -5 185.924 -5 0.207912 0.978148<222.67 720.859> 466.924 -5 584.624 -5 0.207912 0.978148<154.452 720.797>
LayerCount: 3
Fore
SplineSet
326 -5 m 3xe8
 182 -5 110 48 110 159 c 3xe8
 110 181 112 206 118 232 c 2
 218 700 l 1
 336 700 l 1xd8
 238 240 l 2
 234 220 232 202 232 187 c 3
 232 121 270 95 347 95 c 3
 446 95 497 138 519 240 c 2
 617 700 l 1
 735 700 l 1
 635 232 l 2
 603 82 486 -5 326 -5 c 3xe8
EndSplineSet
Layer: 2
SplineSet
326 -5 m 259,0,1
 213 -5 213 -5 161.5 36.5 c 128,-1,2
 110 78 110 78 110 159 c 259,3,4
 110 197 110 197 118 232 c 2,5,-1
 218 700 l 1,6,-1
 336 700 l 1,7,-1
 238 240 l 2,8,9
 232 210 232 210 232 187 c 259,10,11
 232 138 232 138 260 116.5 c 128,-1,12
 288 95 288 95 347 95 c 259,13,14
 421 95 421 95 461.5 129 c 128,-1,15
 502 163 502 163 519 240 c 2,16,-1
 617 700 l 1,17,-1
 735 700 l 1,18,-1
 635 232 l 2,19,20
 611 120 611 120 529 57.5 c 128,-1,21
 447 -5 447 -5 326 -5 c 259,0,1
EndSplineSet
EndChar

StartChar: V
Encoding: 86 86 55
Width: 588
Flags: W
HStem: 0 21G<221 383.514> 680 20G<187 305.697 579.801 707>
VStem: 187 118<560 700>
DStem2: 325 126 374 0 0.429583 0.903027<0 631.748>
LayerCount: 3
Fore
SplineSet
374 0 m 1
 222 0 l 1
 187 700 l 1
 305 700 l 1
 325 126 l 1
 589 700 l 1
 707 700 l 1
 374 0 l 1
EndSplineSet
Validated: 1
Layer: 2
SplineSet
374 0 m 1,0,-1
 222 0 l 1,1,-1
 187 700 l 1,2,-1
 305 700 l 1,3,-1
 325 126 l 1,4,-1
 589 700 l 1,5,-1
 707 700 l 1,6,-1
 374 0 l 1,0,-1
EndSplineSet
EndChar

StartChar: W
Encoding: 87 87 56
Width: 882
Flags: W
HStem: 0 21G<189.571 333.703 560.76 704.943> 680 20G<175 293.161 523.044 652.442 882.325 1009>
VStem: 175 118<373.333 700> 190 107<202 326.667> 555 97<383.091 501> 561 102<202 501>
DStem2: 309 202 325 0 0.398994 0.916954<0 367.534> 675 202 696 0 0.408194 0.912895<0 542.792>
LayerCount: 3
Fore
SplineSet
696 0 m 1xc4
 561 0 l 1xc4
 555 501 l 1
 543 501 l 1
 325 0 l 1
 190 0 l 1xd8
 175 700 l 1
 293 700 l 1xe0
 297 202 l 1
 309 202 l 1
 532 700 l 1
 652 700 l 1xd8
 663 202 l 1
 675 202 l 1
 891 700 l 1
 1009 700 l 1
 696 0 l 1xc4
EndSplineSet
Validated: 1
Layer: 2
SplineSet
696 0 m 1,0,-1
 561 0 l 1,1,-1
 555 501 l 1,2,-1
 543 501 l 1,3,-1
 325 0 l 1,4,-1
 190 0 l 1,5,-1
 175 700 l 1,6,-1
 293 700 l 1,7,-1
 297 202 l 1,8,-1
 309 202 l 1,9,-1
 532 700 l 1,10,-1
 652 700 l 1,11,-1
 663 202 l 1,12,-1
 675 202 l 1,13,-1
 891 700 l 1,14,-1
 1009 700 l 1,15,-1
 696 0 l 1,0,-1
EndSplineSet
EndChar

StartChar: X
Encoding: 88 88 57
Width: 628
Flags: W
HStem: 0 21G<46 185.403 433.629 579> 680 20G<215 360.445 568.645 708>
VStem: 46 124<0 124> 215 139<561 700> 440 139<0 139> 584 124<576 700>
DStem2: 46 0 170 0 0.609382 0.792877<75.5634 388.589 616.844 882.861> 354 700 215 700 0.306009 -0.952029<0 221.687 432.459 692.737>
LayerCount: 3
Fore
SplineSet
215 700 m 1
 354 700 l 1
 422 489 l 1
 584 700 l 1
 708 700 l 1
 459 375 l 1
 579 0 l 1
 440 0 l 1
 361 248 l 1
 170 0 l 1
 46 0 l 1
 324 361 l 1
 215 700 l 1
EndSplineSet
Validated: 1
Layer: 2
SplineSet
215 700 m 1,0,-1
 354 700 l 1,1,-1
 422 489 l 1,2,-1
 584 700 l 1,3,-1
 708 700 l 1,4,-1
 459 375 l 1,5,-1
 579 0 l 1,6,-1
 440 0 l 1,7,-1
 361 248 l 1,8,-1
 170 0 l 1,9,-1
 46 0 l 1,10,-1
 324 361 l 1,11,-1
 215 700 l 1,0,-1
EndSplineSet
EndChar

StartChar: Y
Encoding: 89 89 58
Width: 588
Flags: W
HStem: 0 21G<236 358.255> 680 20G<184 329.894 572.383 705>
VStem: 184 141<559 700> 236 118<0 118> 586 119<581 700>
DStem2: 325 700 184 700 0.273152 -0.961971<0 290.123> 236 0 354 0 0.207912 0.978148<24.5336 301.652> 394 418 414 282 0.571352 0.820705<0 341.138>
LayerCount: 3
Fore
SplineSet
414 282 m 1xe8
 354 0 l 1
 236 0 l 1xd8
 299 295 l 1
 184 700 l 1
 325 700 l 1
 394 418 l 1
 586 700 l 1
 705 700 l 1
 414 282 l 1xe8
EndSplineSet
Validated: 1
Layer: 2
SplineSet
414 282 m 1,0,-1
 354 0 l 1,1,-1
 236 0 l 1,2,-1
 299 295 l 1,3,-1
 184 700 l 1,4,-1
 325 700 l 1,5,-1
 394 418 l 1,6,-1
 586 700 l 1,7,-1
 705 700 l 1,8,-1
 414 282 l 1,0,-1
EndSplineSet
EndChar

StartChar: Z
Encoding: 90 90 59
Width: 646
Flags: W
HStem: 0 100<241 593> 600 100<259 574>
DStem2: 107 100 241 100 0.684135 0.729355<91.6741 684.169>
LayerCount: 3
Fore
SplineSet
86 0 m 1
 107 100 l 1
 574 600 l 1
 238 600 l 1
 259 700 l 1
 731 700 l 1
 710 600 l 1
 241 100 l 1
 614 100 l 1
 593 0 l 1
 86 0 l 1
EndSplineSet
Validated: 1
Layer: 2
SplineSet
86 0 m 1,0,-1
 107 100 l 1,1,-1
 574 600 l 1,2,-1
 238 600 l 1,3,-1
 259 700 l 1,4,-1
 731 700 l 1,5,-1
 710 600 l 1,6,-1
 241 100 l 1,7,-1
 614 100 l 1,8,-1
 593 0 l 1,9,-1
 86 0 l 1,0,-1
EndSplineSet
EndChar

StartChar: bracketleft
Encoding: 91 91 60
Width: 387
Flags: W
HStem: -190 86<183 249> 614 86<336 420>
DStem2: 58 -190 164.72 -190 0.207912 0.978148<110.11 844.23>
LayerCount: 3
Fore
SplineSet
58 -190 m 1
 247 700 l 1
 438 700 l 1
 420 614 l 1
 336 614 l 1
 183 -104 l 1
 267 -104 l 1
 249 -190 l 1
 58 -190 l 1
EndSplineSet
Validated: 1
Layer: 2
SplineSet
58 -190 m 1,0,-1
 247 700 l 1,1,-1
 438 700 l 1,2,-1
 420 614 l 1,3,-1
 336 614 l 1,4,-1
 183 -104 l 1,5,-1
 267 -104 l 1,6,-1
 249 -190 l 1,7,-1
 58 -190 l 1,0,-1
EndSplineSet
EndChar

StartChar: backslash
Encoding: 92 92 61
Width: 415
Flags: W
HStem: 0 21G<246.314 360> 680 20G<189 302.686>
VStem: 189 112<588 700> 248 112<0 112>
DStem2: 301 700 189 700 0.0839879 -0.996467<0 693.075>
LayerCount: 3
Fore
SplineSet
248 0 m 1xd0
 189 700 l 1
 301 700 l 1xe0
 360 0 l 1
 248 0 l 1xd0
EndSplineSet
Validated: 1
Layer: 2
SplineSet
248 0 m 1,0,-1
 189 700 l 1,1,-1
 301 700 l 1,2,-1
 360 0 l 1,3,-1
 248 0 l 1,0,-1
EndSplineSet
EndChar

StartChar: bracketright
Encoding: 93 93 62
Width: 387
Flags: W
HStem: -201 86<74 158> 614 86<247 313>
DStem2: 139.72 -201 246 -201 0.207912 0.978148<87.9213 833.217>
LayerCount: 3
Fore
SplineSet
55 -201 m 1
 74 -115 l 1
 158 -115 l 1
 313 614 l 1
 229 614 l 1
 247 700 l 1
 438 700 l 1
 246 -201 l 1
 55 -201 l 1
EndSplineSet
Validated: 1
Layer: 2
SplineSet
55 -201 m 1,0,-1
 74 -115 l 1,1,-1
 158 -115 l 1,2,-1
 313 614 l 1,3,-1
 229 614 l 1,4,-1
 247 700 l 1,5,-1
 438 700 l 1,6,-1
 246 -201 l 1,7,-1
 55 -201 l 1,0,-1
EndSplineSet
EndChar

StartChar: asciicircum
Encoding: 94 94 63
Width: 588
Flags: W
HStem: 696 20G<366.863 513.831>
VStem: 465 107<285 392>
DStem2: 138 285 245 285 0.486503 0.873679<52.0558 404.927> 511 716 419 592 0.140135 -0.990132<109.884 420.301>
LayerCount: 3
Fore
SplineSet
419 592 m 1
 245 285 l 1
 138 285 l 1
 378 716 l 1
 511 716 l 1
 572 285 l 1
 465 285 l 1
 419 592 l 1
EndSplineSet
Validated: 1
Layer: 2
SplineSet
419 592 m 1,0,-1
 245 285 l 1,1,-1
 138 285 l 1,2,-1
 378 716 l 1,3,-1
 511 716 l 1,4,-1
 572 285 l 1,5,-1
 465 285 l 1,6,-1
 419 592 l 1,0,-1
EndSplineSet
EndChar

StartChar: underscore
Encoding: 95 95 64
Width: 556
VWidth: 2048
Flags: W
HStem: -199 64<-44 527>
LayerCount: 3
Fore
SplineSet
-57 -199 m 1
 -44 -135 l 1
 540 -135 l 1
 527 -199 l 1
 -57 -199 l 1
EndSplineSet
Validated: 1
Layer: 2
SplineSet
-57 -199 m 1,0,-1
 -44 -135 l 1,1,-1
 540 -135 l 1,2,-1
 527 -199 l 1,3,-1
 -57 -199 l 1,0,-1
EndSplineSet
EndChar

StartChar: grave
Encoding: 96 96 65
Width: 372
Flags: W
HStem: 592 206
VStem: 208 247
LayerCount: 3
Fore
SplineSet
414 592 m 1
 208 679 l 1
 260 798 l 1
 455 681 l 1
 414 592 l 1
EndSplineSet
Validated: 1
Layer: 2
SplineSet
414 592 m 1,0,-1
 208 679 l 1,1,-1
 260 798 l 1,2,-1
 455 681 l 1,3,-1
 414 592 l 1,0,-1
EndSplineSet
EndChar

StartChar: a
Encoding: 97 97 66
Width: 536
Flags: W
HStem: -5 86<196.391 334.696 500.754 522> 440 86<281.631 421.74>
VStem: 71 114<61.5 179.956> 434 114<323.812 427.107>
DStem2: 355.663 -5 463.329 -5 0.207912 0.978148<159.855 248.571 329.822 389.57>
LayerCount: 3
Fore
SplineSet
257 298 m 0
 297 309 378 320 426 324 c 1
 430 345 l 2
 432 357 434 369 434 377 c 3
 434 419 411 440 361 440 c 3
 302 440 262 416 242 368 c 1
 144 368 l 1
 180 474 266 526 394 526 c 3
 499 526 548 491 548 417 c 3
 548 402 546 387 542 369 c 2
 495 144 l 2
 494 139 493 134 493 129 c 3
 493 101 511 81 540 81 c 1
 522 -5 l 1
 504 -5 l 2
 434 -5 413 11 400 69 c 1
 362 16 315 -5 226 -5 c 2
 186 -5 l 2
 110 -5 71 31 71 92 c 3
 71 196 149 269 257 298 c 0
408 238 m 1
 363 234 291 224 265 216 c 0
 216 201 185 173 185 133 c 3
 185 100 213 81 261 81 c 3
 332 81 385 131 402 213 c 2
 408 238 l 1
EndSplineSet
Layer: 2
SplineSet
257 298 m 0,0,1
 319 315 319 315 426 324 c 1,2,-1
 430 345 l 2,3,4
 434 369 434 369 434 377 c 259,5,6
 434 440 434 440 361 440 c 259,7,8
 272 440 272 440 242 368 c 1,9,-1
 144 368 l 1,10,11
 198 526 198 526 394 526 c 259,12,13
 548 526 548 526 548 417 c 259,14,15
 548 396 548 396 542 369 c 2,16,-1
 495 144 l 2,17,18
 493 134 493 134 493 129 c 259,19,20
 493 108 493 108 506 94.5 c 128,-1,21
 519 81 519 81 540 81 c 1,22,-1
 522 -5 l 1,23,-1
 504 -5 l 2,24,25
 452 -5 452 -5 431 10 c 128,-1,26
 410 25 410 25 400 69 c 1,27,28
 371 29 371 29 331.5 12 c 128,-1,29
 292 -5 292 -5 226 -5 c 2,30,-1
 186 -5 l 2,31,32
 130 -5 130 -5 100.5 20.5 c 128,-1,33
 71 46 71 46 71 92 c 259,34,35
 71 168 71 168 122 221.5 c 128,-1,36
 173 275 173 275 257 298 c 0,0,1
408 238 m 1,37,38
 307 229 307 229 265 216 c 0,39,40
 185 192 185 192 185 133 c 259,41,42
 185 108 185 108 205 94.5 c 128,-1,43
 225 81 225 81 261 81 c 259,44,45
 314 81 314 81 351.5 116 c 128,-1,46
 389 151 389 151 402 213 c 2,47,-1
 408 238 l 1,37,38
EndSplineSet
EndChar

StartChar: b
Encoding: 98 98 67
Width: 541
Flags: W
HStem: -5 86<227.264 352.62> 440 86<312.092 420.859> 680 20G<207.743 319>
VStem: 212 107<593 700> 459 112<212.868 399.911>
DStem2: 61.9372 -5 168.937 -5 0.207912 0.978148<27.3583 67.1693 194.662 435.951 503.758 720.794>
LayerCount: 3
Fore
SplineSet
309 -5 m 3
 237 -5 190 9 178 39 c 1
 170 0 l 1
 63 0 l 1
 212 700 l 1
 319 700 l 1
 269 466 l 1
 296 506 345 526 415 526 c 3
 515 526 571 464 571 351 c 3
 571 257 540 168 499 105 c 0
 455 38 386 -5 309 -5 c 3
365 440 m 3
 299 440 252 389 232 294 c 2
 216 216 l 2
 212 196 209 178 209 162 c 3
 209 107 235 81 285 81 c 3
 328 81 366 102 405 153 c 0
 440 199 459 255 459 310 c 3
 459 393 423 440 365 440 c 3
EndSplineSet
Layer: 2
SplineSet
309 -5 m 259,0,1
 196 -5 196 -5 178 39 c 1,2,-1
 170 0 l 1,3,-1
 63 0 l 1,4,-1
 212 700 l 1,5,-1
 319 700 l 1,6,7
 269 466 l 1,8,9
 310 526 310 526 415 526 c 259,10,11
 490 526 490 526 530.5 481 c 128,-1,12
 571 436 571 436 571 351 c 259,13,14
 571 216 571 216 499 105 c 0,15,16
 465 54 465 54 415.5 24.5 c 128,-1,17
 366 -5 366 -5 309 -5 c 259,0,1
365 440 m 259,18,19
 315 440 315 440 281 402.5 c 128,-1,20
 247 365 247 365 232 294 c 2,21,-1
 216 216 l 2,22,23
 209 181 209 181 209 162 c 259,24,25
 209 81 209 81 285 81 c 259,26,27
 350 81 350 81 405 153 c 0,28,29
 459 224 459 224 459 310 c 259,30,31
 459 372 459 372 434 406 c 128,-1,32
 409 440 409 440 365 440 c 259,18,19
EndSplineSet
EndChar

StartChar: c
Encoding: 99 99 68
Width: 530
Flags: W
HStem: -5 86<236.81 355.492> 440 86<301.136 432.243>
VStem: 91 111<117.362 304.812> 457 102<349 415.493>
LayerCount: 3
Fore
SplineSet
268 -5 m 3
 156 -5 91 63 91 177 c 3
 91 276 129 361 175 419 c 0
 228 486 303 526 389 526 c 3
 496 526 559 469 559 366 c 3
 559 362 559 356 558 349 c 1
 456 349 l 1
 457 353 457 356 457 358 c 3
 457 407 424 440 375 440 c 3
 324 440 277 411 248 364 c 0
 223 324 202 264 202 201 c 3
 202 126 236 81 294 81 c 3
 344 81 400 126 421 180 c 1
 525 178 l 1
 482 63 390 -5 268 -5 c 3
EndSplineSet
Layer: 2
SplineSet
268 -5 m 259,0,1
 184 -5 184 -5 137.5 43 c 128,-1,2
 91 91 91 91 91 177 c 259,3,4
 91 313 91 313 175 419 c 0,5,6
 260 526 260 526 389 526 c 259,7,8
 470 526 470 526 514.5 484.5 c 128,-1,9
 559 443 559 443 559 366 c 0,10,11
 559 356 559 356 558 349 c 1,12,-1
 456 349 l 1,13,14
 457 353 457 353 457 358 c 0,15,16
 457 395 457 395 434.5 417.5 c 128,-1,17
 412 440 412 440 375 440 c 259,18,19
 295 440 295 440 248 364 c 0,20,21
 202 290 202 290 202 201 c 259,22,23
 202 145 202 145 226.5 113 c 128,-1,24
 251 81 251 81 294 81 c 259,25,26
 331 81 331 81 368 110 c 128,-1,27
 405 139 405 139 421 180 c 1,28,-1
 525 178 l 1,29,30
 493 91 493 91 426 43 c 128,-1,31
 359 -5 359 -5 268 -5 c 259,0,1
EndSplineSet
EndChar

StartChar: d
Encoding: 100 100 69
Width: 530
Flags: W
HStem: -5 86<191.835 350.895> 440 86<310.675 420.246> 680 20G<521.732 633>
VStem: 92 113<123.652 299.29> 526 107<593 700>
DStem2: 375.937 -5 482.937 -5 0.207912 0.978148<27.3583 52.1856 139.697 349.313 476.413 720.794>
LayerCount: 3
Fore
SplineSet
377 0 m 1
 387 46 l 1
 353 6 317 -5 229 -5 c 3
 142 -5 92 62 92 167 c 3
 92 261 127 352 167 412 c 0
 214 482 278 526 345 526 c 3
 423 526 449 511 475 461 c 1
 526 700 l 1
 633 700 l 1
 484 0 l 1
 377 0 l 1
294 81 m 3
 350 81 408 147 424 221 c 2
 441 301 l 2
 444 313 445 326 445 338 c 3
 445 394 418 440 378 440 c 3
 333 440 289 412 256 366 c 0
 228 327 205 269 205 208 c 3
 205 137 239 81 294 81 c 3
EndSplineSet
Layer: 2
SplineSet
377 0 m 1,0,-1
 387 46 l 1,1,2
 362 16 362 16 328.5 5.5 c 128,-1,3
 295 -5 295 -5 229 -5 c 259,4,5
 164 -5 164 -5 128 41 c 128,-1,6
 92 87 92 87 92 167 c 259,7,8
 92 299 92 299 167 412 c 0,9,10
 244 526 244 526 345 526 c 259,11,12
 403 526 403 526 429 512.5 c 128,-1,13
 455 499 455 499 475 461 c 1,14,-1
 526 700 l 1,15,-1
 633 700 l 1,16,-1
 484 0 l 1,17,-1
 377 0 l 1,0,-1
294 81 m 259,18,19
 335 81 335 81 373.5 123 c 128,-1,20
 412 165 412 165 424 221 c 2,21,-1
 441 301 l 2,22,23
 445 317 445 317 445 338 c 259,24,25
 445 381 445 381 426 410.5 c 128,-1,26
 407 440 407 440 378 440 c 259,27,28
 309 440 309 440 256 366 c 0,29,30
 205 295 205 295 205 208 c 259,31,32
 205 153 205 153 229.5 117 c 128,-1,33
 254 81 254 81 294 81 c 259,18,19
EndSplineSet
EndChar

StartChar: e
Encoding: 101 101 70
Width: 530
Flags: W
HStem: -5 86<233.464 365.42> 249 86<237 444.736> 440 86<290.282 427.384>
VStem: 91 112<110.014 247.498> 445 102<335.511 422.868>
LayerCount: 3
Fore
SplineSet
212 249 m 1
 206 212 l 2
 204 200 203 188 203 178 c 3
 203 116 237 81 296 81 c 3
 348 81 385 106 407 157 c 1
 510 157 l 1
 446 42 378 -5 270 -5 c 3
 158 -5 91 73 91 191 c 3
 91 277 120 358 164 420 c 0
 218 496 284 526 368 526 c 3
 493 526 547 485 547 376 c 3
 547 341 542 299 531 249 c 1
 212 249 l 1
370 440 m 3
 300 440 259 409 237 335 c 1
 442 335 l 1
 444 346 445 356 445 365 c 3
 445 415 420 440 370 440 c 3
EndSplineSet
Layer: 2
SplineSet
212 249 m 1,0,-1
 206 212 l 2,1,2
 203 194 203 194 203 178 c 259,3,4
 203 132 203 132 227.5 106.5 c 128,-1,5
 252 81 252 81 296 81 c 259,6,7
 374 81 374 81 407 157 c 1,8,-1
 510 157 l 1,9,10
 462 70 462 70 406.5 32.5 c 128,-1,11
 351 -5 351 -5 270 -5 c 259,12,13
 187 -5 187 -5 139 48.5 c 128,-1,14
 91 102 91 102 91 191 c 259,15,16
 91 317 91 317 164 420 c 0,17,18
 239 526 239 526 368 526 c 259,19,20
 463 526 463 526 505 491.5 c 128,-1,21
 547 457 547 457 547 376 c 259,22,23
 547 322 547 322 531 249 c 1,24,-1
 212 249 l 1,0,-1
370 440 m 259,25,26
 317 440 317 440 285 415 c 128,-1,27
 253 390 253 390 237 335 c 1,28,-1
 442 335 l 1,29,30
 445 351 445 351 445 365 c 259,31,32
 445 440 445 440 370 440 c 259,25,26
EndSplineSet
EndChar

StartChar: f
Encoding: 102 102 71
Width: 294
Flags: W
HStem: 0 21G<86 197.23> 435 86<139 178 304 374> 628 86<335.645 427>
VStem: 86 107<0 107>
DStem2: 86 0 193 0 0.207912 0.978148<22.2466 444.622 554.94 657.39>
LayerCount: 3
Fore
SplineSet
388 628 m 3
 344 628 322 608 310 552 c 2
 304 521 l 1
 393 521 l 1
 374 435 l 1
 285 435 l 1
 193 0 l 1
 86 0 l 1
 178 435 l 1
 120 435 l 1
 139 521 l 1
 197 521 l 1
 206 566 l 2
 227 664 284 714 383 714 c 3
 393 714 432 711 445 710 c 1
 427 627 l 1
 410 628 398 628 388 628 c 3
EndSplineSet
Layer: 2
SplineSet
388 628 m 259,0,1
 355 628 355 628 337 611 c 128,-1,2
 319 594 319 594 310 552 c 2,3,-1
 304 521 l 1,4,-1
 393 521 l 1,5,-1
 374 435 l 1,6,-1
 285 435 l 1,7,-1
 193 0 l 1,8,-1
 86 0 l 1,9,-1
 178 435 l 1,10,-1
 120 435 l 1,11,-1
 139 521 l 1,12,-1
 197 521 l 1,13,-1
 206 566 l 2,14,15
 222 642 222 642 266.5 678 c 128,-1,16
 311 714 311 714 383 714 c 259,17,18
 393 714 393 714 445 710 c 1,19,-1
 427 627 l 1,20,21
 410 628 410 628 388 628 c 259,0,1
EndSplineSet
EndChar

StartChar: g
Encoding: 103 103 72
Width: 525
Flags: W
HStem: -215 86<143.173 299.516> -5 86<207.438 321.13> 440 86<270.969 394.506>
VStem: 14 108<-106.266 -34> 64 110<115.349 300.139>
DStem2: 316.489 -215 423.006 -215 0.207912 0.978148<162.643 269.772 354.619 549.587 690.087 752.457>
LayerCount: 3
Fore
SplineSet
460 460 m 1xe8
 473 521 l 1
 580 521 l 1
 494 119 l 2
 442 -124 363 -215 196 -215 c 3
 86 -215 14 -157 14 -70 c 3
 14 -59 15 -46 18 -34 c 1
 125 -34 l 1
 123 -42 122 -51 122 -58 c 3xf0
 122 -105 158 -129 223 -129 c 3
 291 -129 344 -87 359 -15 c 2
 372 49 l 1
 322 11 281 -5 233 -5 c 3
 126 -5 64 64 64 174 c 3
 64 273 103 358 150 419 c 0
 202 485 271 526 344 526 c 3
 397 526 429 507 460 460 c 1xe8
340 440 m 3
 294 440 252 414 222 365 c 0
 192 316 174 259 174 193 c 3xe8
 174 122 207 81 268 81 c 3
 341 81 392 140 416 254 c 0
 421 280 424 304 424 325 c 3
 424 397 394 440 340 440 c 3
EndSplineSet
Layer: 2
SplineSet
460 460 m 1,0,-1
 473 521 l 1,1,-1
 580 521 l 1,2,-1
 494 119 l 2,3,4
 455 -64 455 -64 388 -139.5 c 128,-1,5
 321 -215 321 -215 196 -215 c 259,6,7
 114 -215 114 -215 64 -175 c 128,-1,8
 14 -135 14 -135 14 -70 c 259,9,10
 14 -50 14 -50 18 -34 c 1,11,-1
 125 -34 l 1,12,13
 122 -46 122 -46 122 -58 c 259,14,15
 122 -129 122 -129 223 -129 c 259,16,17
 275 -129 275 -129 311.5 -98.5 c 128,-1,18
 348 -68 348 -68 359 -15 c 2,19,-1
 372 49 l 1,20,21
 301 -5 301 -5 233 -5 c 259,22,23
 153 -5 153 -5 108.5 43 c 128,-1,24
 64 91 64 91 64 174 c 259,25,26
 64 307 64 307 150 419 c 0,27,28
 234 526 234 526 344 526 c 259,29,30
 383 526 383 526 410 511 c 128,-1,31
 437 496 437 496 460 460 c 1,0,-1
340 440 m 259,32,33
 268 440 268 440 222 365 c 0,34,35
 174 287 174 287 174 193 c 259,36,37
 174 139 174 139 198.5 110 c 128,-1,38
 223 81 223 81 268 81 c 259,39,40
 380 81 380 81 416 254 c 256,41,42
 424 296 424 296 424 325 c 259,43,44
 424 379 424 379 402 409.5 c 128,-1,45
 380 440 380 440 340 440 c 259,32,33
EndSplineSet
EndChar

StartChar: h
Encoding: 104 104 73
Width: 530
Flags: W
HStem: 0 21G<64 175.226 365 476.266> 440 86<352.243 490> 680 20G<208.743 320>
VStem: 64 107<0 107> 213 107<593 700> 365 107<0 107> 445 111<293.219 436.287>
DStem2: 64 0 171 0 0.207912 0.978148<22.2466 403.964 474.131 715.682> 365 0 472 0 0.207912 0.978148<22.2466 405.199>
LayerCount: 3
Fore
SplineSet
365 0 m 1xfc
 436 335 l 2
 442 362 445 382 445 398 c 3
 445 429 433 440 402 440 c 3
 316 440 251 376 227 265 c 2
 171 0 l 1
 64 0 l 1
 213 700 l 1
 320 700 l 1
 265 442 l 1
 267 438 l 1
 293 488 378 526 458 526 c 3
 522 526 556 488 556 420 c 3xfa
 556 402 554 383 549 361 c 2
 472 0 l 1
 365 0 l 1xfc
EndSplineSet
Layer: 2
SplineSet
365 0 m 1,0,-1
 436 335 l 2,1,2
 445 376 445 376 445 398 c 259,3,4
 445 421 445 421 435 430.5 c 128,-1,5
 425 440 425 440 402 440 c 259,6,7
 337 440 337 440 291 394 c 128,-1,8
 245 348 245 348 227 265 c 2,9,-1
 171 0 l 1,10,-1
 64 0 l 1,11,-1
 213 700 l 1,12,-1
 320 700 l 1,13,-1
 265 442 l 1,14,-1
 267 438 l 1,15,16
 286 475 286 475 342 500.5 c 128,-1,17
 398 526 398 526 458 526 c 259,18,19
 506 526 506 526 531 498.5 c 128,-1,20
 556 471 556 471 556 420 c 259,21,22
 556 392 556 392 549 361 c 2,23,-1
 472 0 l 1,24,-1
 365 0 l 1,0,-1
EndSplineSet
EndChar

StartChar: i
Encoding: 105 105 74
Width: 254
Flags: W
HStem: 0 21G<72 183.261> 501 20G<178.739 290> 595 105<221 305>
VStem: 72 107<0 107> 183 107<414 521> 198 107<595 702> 221 107<593 700>
DStem2: 72 0 179 0 0.207912 0.978148<22.2466 532.693 630.441 715.682>
LayerCount: 3
Fore
SplineSet
198 595 m 1xf4
 221 700 l 1
 328 700 l 1xf2
 305 595 l 1
 198 595 l 1xf4
72 0 m 1
 183 521 l 1
 290 521 l 1xf8
 179 0 l 1
 72 0 l 1
EndSplineSet
Validated: 1
Layer: 2
SplineSet
198 595 m 1,0,-1
 221 700 l 1,1,-1
 328 700 l 1,2,-1
 305 595 l 1,3,-1
 198 595 l 1,0,-1
72 0 m 1,4,-1
 183 521 l 1,5,-1
 290 521 l 1,6,-1
 179 0 l 1,7,-1
 72 0 l 1,4,-1
EndSplineSet
EndChar

StartChar: j
Encoding: 106 106 75
Width: 254
Flags: W
HStem: -215 86<-52.1395 30.6225> 501 20G<178.739 290> 595 105<221 305>
VStem: 183 107<414 521> 198 107<595 702> 221 107<593 700>
DStem2: 26.3003 -215 133.3 -215 0.207912 0.978148<102.588 752.496 850.244 935.485>
LayerCount: 3
Fore
SplineSet
198 595 m 1xe8
 221 700 l 1
 328 700 l 1xe4
 305 595 l 1
 198 595 l 1xe8
-52 -215 m 3
 -58 -215 -61 -215 -68 -213 c 1
 -50 -127 l 1
 -40 -129 -32 -129 -23 -129 c 3
 29 -129 51 -100 72 0 c 2
 183 521 l 1
 290 521 l 1xf0
 179 0 l 2
 141 -179 104 -215 -52 -215 c 3
EndSplineSet
Layer: 2
SplineSet
198 595 m 1,0,-1
 221 700 l 1,1,-1
 328 700 l 1,2,-1
 305 595 l 1,3,-1
 198 595 l 1,0,-1
-52 -215 m 259,4,5
 -61 -215 -61 -215 -68 -213 c 1,6,-1
 -50 -127 l 1,7,8
 -40 -129 -40 -129 -23 -129 c 259,9,10
 16 -129 16 -129 36 -102 c 128,-1,11
 56 -75 56 -75 72 0 c 2,12,-1
 183 521 l 1,13,-1
 290 521 l 1,14,-1
 179 0 l 2,15,16
 150 -135 150 -135 107.5 -175 c 128,-1,17
 65 -215 65 -215 -52 -215 c 259,4,5
EndSplineSet
EndChar

StartChar: k
Encoding: 107 107 76
Width: 548
Flags: W
HStem: 0 21G<74 185.298 392.521 517> 501 20G<478.611 614> 680 20G<218.743 330>
VStem: 74 107<0 107> 223 107<593 700> 397 120<0 120> 499 115<406 521>
DStem2: 74 0 181 0 0.207912 0.978148<22.2466 146.008 292.121 715.682> 237 264 339 259 0.713886 0.700262<0 69.315 208.656 367.005> 441 354 339 259 0.209906 -0.977722<71.4731 336.878>
LayerCount: 3
Fore
SplineSet
397 0 m 1xfc
 339 259 l 1
 207 121 l 1
 181 0 l 1
 74 0 l 1
 223 700 l 1
 330 700 l 1
 237 264 l 1
 499 521 l 1
 614 521 l 1xfa
 441 354 l 1
 517 0 l 1
 397 0 l 1xfc
EndSplineSet
Validated: 1
Layer: 2
SplineSet
397 0 m 1,0,-1
 339 259 l 1,1,-1
 207 121 l 1,2,-1
 181 0 l 1,3,-1
 74 0 l 1,4,-1
 223 700 l 1,5,-1
 330 700 l 1,6,-1
 237 264 l 1,7,-1
 499 521 l 1,8,-1
 614 521 l 1,9,-1
 441 354 l 1,10,-1
 517 0 l 1,11,-1
 397 0 l 1,0,-1
EndSplineSet
EndChar

StartChar: l
Encoding: 108 108 77
Width: 254
Flags: W
HStem: 0 21G<72 183.257> 680 20G<216.743 328>
VStem: 72 107<0 107> 221 107<593 700>
DStem2: 72 0 179 0 0.207912 0.978148<22.2466 715.682>
LayerCount: 3
Fore
SplineSet
72 0 m 1
 221 700 l 1
 328 700 l 1
 179 0 l 1
 72 0 l 1
EndSplineSet
Validated: 1
Layer: 2
SplineSet
72 0 m 1,0,-1
 221 700 l 1,1,-1
 328 700 l 1,2,-1
 179 0 l 1,3,-1
 72 0 l 1,0,-1
EndSplineSet
EndChar

StartChar: m
Encoding: 109 109 78
Width: 804
Flags: W
HStem: 0 21G<66 177.235 348 459.272 630 741.247> 440 86<324.89 442.567 591.122 701.19>
VStem: 66 107<0 107> 348 107<0 107> 630 107<0 107> 710 111<296.867 430.431>
DStem2: 66 0 173 0 0.207912 0.978148<22.2466 416.695 477.005 532.693> 348 0 455 0 0.207912 0.978148<22.2466 389.557> 630 0 737 0 0.207912 0.978148<22.2466 394.808>
LayerCount: 3
Fore
SplineSet
630 0 m 1xf8
 706 359 l 2
 708 369 710 379 710 387 c 3
 710 423 689 440 643 440 c 3
 598 440 536 379 521 309 c 2
 455 0 l 1
 348 0 l 1
 414 309 l 2
 421 340 424 364 424 383 c 3
 424 425 407 440 367 440 c 3
 306 440 251 370 227 255 c 2
 173 0 l 1
 66 0 l 1
 177 521 l 1
 278 521 l 1
 262 446 l 1
 306 505 349 526 425 526 c 3
 468 526 512 480 514 435 c 1
 563 500 613 526 689 526 c 3
 774 526 821 489 821 417 c 3xf4
 821 403 819 388 816 372 c 2
 737 0 l 1
 630 0 l 1xf8
EndSplineSet
Layer: 2
SplineSet
630 0 m 1,0,-1
 706 359 l 2,1,2
 710 379 710 379 710 387 c 259,3,4
 710 440 710 440 643 440 c 259,5,6
 608 440 608 440 570 400 c 128,-1,7
 532 360 532 360 521 309 c 2,8,-1
 455 0 l 1,9,-1
 348 0 l 1,10,-1
 414 309 l 2,11,12
 424 353 424 353 424 383 c 0,13,14
 424 414 424 414 410.5 427 c 128,-1,15
 397 440 397 440 367 440 c 259,16,17
 321 440 321 440 283 390.5 c 128,-1,18
 245 341 245 341 227 255 c 2,19,-1
 173 0 l 1,20,-1
 66 0 l 1,21,-1
 177 521 l 1,22,-1
 278 521 l 1,23,-1
 262 446 l 1,24,25
 295 490 295 490 331.5 508 c 128,-1,26
 368 526 368 526 425 526 c 259,27,28
 457 526 457 526 484.5 497.5 c 128,-1,29
 512 469 512 469 514 435 c 1,30,31
 551 484 551 484 591.5 505 c 128,-1,32
 632 526 632 526 689 526 c 259,33,34
 821 526 821 526 821 417 c 259,35,36
 821 399 821 399 816 372 c 2,37,-1
 737 0 l 1,38,-1
 630 0 l 1,0,-1
EndSplineSet
EndChar

StartChar: n
Encoding: 110 110 79
Width: 530
Flags: W
HStem: 0 21G<67 178.26 356 467.248> 440 81<329.799 422.316>
VStem: 67 107<0 107> 356 107<0 107> 431 115<290.039 431.943>
DStem2: 67 0 174 0 0.207912 0.978148<22.2466 416.345 474.694 532.693> 356 0 463 0 0.207912 0.978148<22.2466 386.415>
LayerCount: 3
Fore
SplineSet
356 0 m 1xf0
 421 308 l 2
 427 338 431 361 431 380 c 3
 431 423 414 440 376 440 c 3
 312 440 254 375 233 277 c 2
 174 0 l 1
 67 0 l 1
 178 521 l 1
 283 521 l 1
 266 443 l 1
 315 500 363 526 413 526 c 3
 507 526 546 499 546 424 c 3xe8
 546 401 542 372 535 339 c 2
 463 0 l 1
 356 0 l 1xf0
EndSplineSet
Layer: 2
SplineSet
356 0 m 1,0,-1
 421 308 l 2,1,2
 431 358 431 358 431 380 c 259,3,4
 431 412 431 412 418 426 c 128,-1,5
 405 440 405 440 376 440 c 259,6,7
 328 440 328 440 288.5 395 c 128,-1,8
 249 350 249 350 233 277 c 2,9,-1
 174 0 l 1,10,-1
 67 0 l 1,11,-1
 178 521 l 1,12,-1
 283 521 l 1,13,-1
 266 443 l 1,14,15
 337 526 337 526 413 526 c 259,16,17
 484 526 484 526 515 503 c 128,-1,18
 546 480 546 480 546 424 c 259,19,20
 546 391 546 391 535 339 c 2,21,-1
 463 0 l 1,22,-1
 356 0 l 1,0,-1
EndSplineSet
EndChar

StartChar: o
Encoding: 111 111 80
Width: 536
Flags: W
HStem: -5 86<226.847 349.821> 440 86<297.991 420.981>
VStem: 87 108<114.633 306.558> 452 108<213.573 407.067>
LayerCount: 3
Fore
SplineSet
267 -5 m 3
 153 -5 87 70 87 185 c 3
 87 279 124 364 171 421 c 0
 226 488 297 526 380 526 c 3
 494 526 560 452 560 337 c 3
 560 239 522 156 476 99 c 0
 423 34 350 -5 267 -5 c 3
362 440 m 3
 321 440 279 416 245 363 c 0
 216 319 195 260 195 195 c 3
 195 125 226 81 285 81 c 3
 332 81 374 111 405 161 c 0
 431 203 452 265 452 327 c 3
 452 397 421 440 362 440 c 3
EndSplineSet
Layer: 2
SplineSet
267 -5 m 259,0,1
 182 -5 182 -5 134.5 46.5 c 128,-1,2
 87 98 87 98 87 185 c 259,3,4
 87 319 87 319 171 421 c 0,5,6
 257 526 257 526 380 526 c 259,7,8
 465 526 465 526 512.5 475 c 128,-1,9
 560 424 560 424 560 337 c 259,10,11
 560 203 560 203 476 99 c 0,12,13
 391 -5 391 -5 267 -5 c 259,0,1
362 440 m 259,14,15
 294 440 294 440 245 363 c 0,16,17
 195 287 195 287 195 195 c 259,18,19
 195 142 195 142 218 111.5 c 128,-1,20
 241 81 241 81 285 81 c 259,21,22
 355 81 355 81 405 161 c 0,23,24
 452 237 452 237 452 327 c 259,25,26
 452 380 452 380 429 410 c 128,-1,27
 406 440 406 440 362 440 c 259,14,15
EndSplineSet
EndChar

StartChar: p
Encoding: 112 112 81
Width: 536
Flags: W
HStem: -199 21G<12 123.219> -5 86<230.272 341.572> 440 86<324.322 461.129>
VStem: 12 107<-199 -92> 449 111<211.563 398.971>
DStem2: 12 -199 119 -199 0.207912 0.978148<22.2466 264.463 410.302 626.579 683.592 736.077>
LayerCount: 3
Fore
SplineSet
267 -5 m 3
 217 -5 183 8 169 38 c 1
 119 -199 l 1
 12 -199 l 1
 165 521 l 1
 272 521 l 1
 256 448 l 1
 298 501 354 526 425 526 c 3
 509 526 560 458 560 349 c 3
 560 251 529 164 484 103 c 0
 429 28 361 -5 267 -5 c 3
362 440 m 3
 298 440 242 381 225 299 c 2
 209 225 l 2
 206 209 204 193 204 179 c 3
 204 120 233 81 282 81 c 3
 320 81 363 110 396 155 c 0
 425 195 449 251 449 313 c 3
 449 384 416 440 362 440 c 3
EndSplineSet
Layer: 2
SplineSet
267 -5 m 259,0,1
 189 -5 189 -5 169 38 c 1,2,-1
 119 -199 l 1,3,-1
 12 -199 l 1,4,-1
 165 521 l 1,5,-1
 272 521 l 1,6,-1
 256 448 l 1,7,8
 318 526 318 526 425 526 c 259,9,10
 488 526 488 526 524 478.5 c 128,-1,11
 560 431 560 431 560 349 c 259,12,13
 560 206 560 206 484 103 c 0,14,15
 405 -5 405 -5 267 -5 c 259,0,1
362 440 m 259,16,17
 314 440 314 440 276 400.5 c 128,-1,18
 238 361 238 361 225 299 c 2,19,-1
 209 225 l 2,20,21
 204 198 204 198 204 179 c 259,22,23
 204 134 204 134 225 107.5 c 128,-1,24
 246 81 246 81 282 81 c 259,25,26
 342 81 342 81 396 155 c 0,27,28
 449 228 449 228 449 313 c 259,29,30
 449 368 449 368 425.5 404 c 128,-1,31
 402 440 402 440 362 440 c 259,16,17
EndSplineSet
EndChar

StartChar: q
Encoding: 113 113 82
Width: 530
Flags: W
HStem: -199 21G<332 443.25> -5 86<215.314 340.151> 440 86<296.336 420.646>
VStem: 80 107<108.991 298.131> 332 107<-199 -92>
DStem2: 332 -199 439 -199 0.207912 0.978148<22.2466 250.458 345.778 559.946 677.827 736.077>
LayerCount: 3
Fore
SplineSet
592 521 m 1
 439 -199 l 1
 332 -199 l 1
 384 46 l 1
 350 8 319 -5 255 -5 c 3
 145 -5 80 63 80 179 c 3
 80 276 116 358 159 417 c 0
 211 487 276 526 351 526 c 3
 425 526 457 508 473 464 c 1
 485 521 l 1
 592 521 l 1
440 312 m 2
 443 325 445 338 445 350 c 3
 445 405 415 440 366 440 c 3
 317 440 271 409 238 359 c 0
 210 316 187 249 187 185 c 3
 187 114 219 81 277 81 c 3
 339 81 406 150 422 225 c 2
 440 312 l 2
EndSplineSet
Layer: 2
SplineSet
592 521 m 1,0,-1
 439 -199 l 1,1,-1
 332 -199 l 1,2,-1
 384 46 l 1,3,4
 358 17 358 17 330.5 6 c 128,-1,5
 303 -5 303 -5 255 -5 c 259,6,7
 172 -5 172 -5 126 43.5 c 128,-1,8
 80 92 80 92 80 179 c 259,9,10
 80 309 80 309 159 417 c 0,11,12
 240 526 240 526 351 526 c 259,13,14
 406 526 406 526 433.5 511.5 c 128,-1,15
 461 497 461 497 473 464 c 1,16,-1
 485 521 l 1,17,-1
 592 521 l 1,0,-1
440 312 m 2,18,19
 445 334 445 334 445 350 c 259,20,21
 445 391 445 391 424 415.5 c 128,-1,22
 403 440 403 440 366 440 c 259,23,24
 291 440 291 440 238 359 c 0,25,26
 187 281 187 281 187 185 c 259,27,28
 187 81 187 81 277 81 c 259,29,30
 323 81 323 81 366.5 124.5 c 128,-1,31
 410 168 410 168 422 225 c 2,32,-1
 440 312 l 2,18,19
EndSplineSet
EndChar

StartChar: r
Encoding: 114 114 83
Width: 346
Flags: W
HStem: 0 21G<49 160.215> 426 95<302.475 410>
VStem: 49 107<0 107>
DStem2: 49 0 156 0 0.207912 0.978148<22.2466 401.111 487.471 532.693>
LayerCount: 3
Fore
SplineSet
390 426 m 2
 289 426 234 367 211 261 c 2
 156 0 l 1
 49 0 l 1
 160 521 l 1
 267 521 l 1
 253 455 l 1
 296 503 337 526 376 526 c 2
 431 526 l 1
 410 426 l 1
 390 426 l 2
EndSplineSet
Layer: 2
SplineSet
390 426 m 2,0,1
 247 426 247 426 211 261 c 2,2,-1
 156 0 l 1,3,-1
 49 0 l 1,4,-1
 160 521 l 1,5,-1
 267 521 l 1,6,-1
 253 455 l 1,7,8
 317 526 317 526 376 526 c 2,9,-1
 431 526 l 1,10,-1
 410 426 l 1,11,-1
 390 426 l 2,0,1
EndSplineSet
EndChar

StartChar: s
Encoding: 115 115 84
Width: 482
Flags: W
HStem: -5 86<193.038 353.235> 440 86<259.647 390.848>
VStem: 64 110<101.15 184.157> 123 111<346.742 415.723> 381 112<109.985 190.542> 404 109<349 427.125>
LayerCount: 3
Fore
SplineSet
282 227 m 0xe8
 164 267 123 300 123 352 c 3
 123 403 150 445 181 472 c 0
 220 506 278 526 350 526 c 3
 462 526 513 487 513 400 c 3
 513 384 511 368 508 349 c 1
 401 349 l 1
 403 360 404 370 404 379 c 3
 404 422 380 440 324 440 c 3
 300 440 277 432 260 420 c 0
 246 409 234 393 234 378 c 3xd4
 234 354 263 335 327 318 c 0
 445 287 493 246 493 187 c 3
 493 142 470 97 431 58 c 0
 386 14 329 -5 264 -5 c 3
 124 -5 64 31 64 123 c 3
 64 141 66 162 71 185 c 1
 178 185 l 1
 175 172 174 159 174 149 c 3
 174 100 207 81 285 81 c 3
 318 81 342 90 358 106 c 0
 369 117 381 135 381 157 c 3
 381 183 354 202 282 227 c 0xe8
EndSplineSet
Layer: 2
SplineSet
282 227 m 0,0,1
 194 257 194 257 158.5 285 c 128,-1,2
 123 313 123 313 123 352 c 259,3,4
 123 421 123 421 181 472 c 0,5,6
 243 526 243 526 350 526 c 259,7,8
 434 526 434 526 473.5 495.5 c 128,-1,9
 513 465 513 465 513 400 c 259,10,11
 513 381 513 381 508 349 c 1,12,-1
 401 349 l 1,13,14
 404 365 404 365 404 379 c 259,15,16
 404 411 404 411 385 425.5 c 128,-1,17
 366 440 366 440 324 440 c 259,18,19
 288 440 288 440 260 420 c 0,20,21
 234 400 234 400 234 378 c 259,22,23
 234 343 234 343 327 318 c 0,24,25
 414 295 414 295 453.5 263.5 c 128,-1,26
 493 232 493 232 493 187 c 259,27,28
 493 120 493 120 431 58 c 0,29,30
 367 -5 367 -5 264 -5 c 259,31,32
 158 -5 158 -5 111 24.5 c 128,-1,33
 64 54 64 54 64 123 c 259,34,35
 64 153 64 153 71 185 c 1,36,-1
 178 185 l 1,37,38
 174 168 174 168 174 149 c 259,39,40
 174 112 174 112 200 96.5 c 128,-1,41
 226 81 226 81 285 81 c 259,42,43
 333 81 333 81 358 106 c 0,44,45
 381 129 381 129 381 157 c 259,46,47
 381 176 381 176 358.5 192 c 128,-1,48
 336 208 336 208 282 227 c 0,0,1
EndSplineSet
EndChar

StartChar: t
Encoding: 116 116 85
Width: 372
Flags: W
HStem: -5 86<248.902 326.998> 435 86<134 197 323 414> 680 20G<249.754 361>
VStem: 129 115<48.5 214.016> 254 107<593 700>
DStem2: 104.141 -5 210.551 -5 0.207912 0.978148<161.82 449.691 560.009 720.752>
LayerCount: 3
Fore
SplineSet
326 2 m 1
 299 -2 278 -5 253 -5 c 3
 165 -5 129 15 129 82 c 3
 129 103 132 128 139 159 c 2
 197 435 l 1
 115 435 l 1
 134 521 l 1
 216 521 l 1
 254 700 l 1
 361 700 l 1
 323 521 l 1
 433 521 l 1
 414 435 l 1
 304 435 l 1
 252 190 l 2
 247 165 244 145 244 130 c 3
 244 91 262 81 303 81 c 3
 313 81 319 81 344 84 c 1
 326 2 l 1
EndSplineSet
Layer: 2
SplineSet
326 2 m 1,0,1
 279 -5 279 -5 253 -5 c 259,2,3
 185 -5 185 -5 157 14 c 128,-1,4
 129 33 129 33 129 82 c 259,5,6
 129 115 129 115 139 159 c 2,7,-1
 197 435 l 1,8,-1
 115 435 l 1,9,-1
 134 521 l 1,10,-1
 216 521 l 1,11,-1
 254 700 l 1,12,-1
 361 700 l 1,13,-1
 323 521 l 1,14,-1
 433 521 l 1,15,-1
 414 435 l 1,16,-1
 304 435 l 1,17,-1
 252 190 l 2,18,19
 244 150 244 150 244 130 c 259,20,21
 244 102 244 102 257.5 91.5 c 128,-1,22
 271 81 271 81 303 81 c 259,23,24
 319 81 319 81 344 84 c 1,25,-1
 326 2 l 1,0,1
EndSplineSet
EndChar

StartChar: u
Encoding: 117 117 86
Width: 530
Flags: W
HStem: -5 86<176.903 305.222> 501 20G<178.71 290 457.71 569>
VStem: 100 113<86.1034 236.547> 183 107<414 521> 462 107<414 521>
DStem2: 70.5515 -5 177.551 -5 0.207912 0.978148<171.114 537.885> 349.937 -5 456.937 -5 0.207912 0.978148<27.3583 75.7226 137.764 537.805>
LayerCount: 3
Fore
SplineSet
351 0 m 1xe8
 366 69 l 1
 320 15 280 -5 209 -5 c 3
 134 -5 100 24 100 96 c 3xe8
 100 122 104 153 112 190 c 2
 183 521 l 1
 290 521 l 1xd8
 219 190 l 2
 215 170 213 153 213 139 c 3
 213 100 228 81 257 81 c 3
 317 81 380 139 394 204 c 2
 462 521 l 1
 569 521 l 1
 458 0 l 1
 351 0 l 1xe8
EndSplineSet
Layer: 2
SplineSet
351 0 m 1,0,-1
 366 69 l 1,1,2
 331 28 331 28 296.5 11.5 c 128,-1,3
 262 -5 262 -5 209 -5 c 259,4,5
 152 -5 152 -5 126 18.5 c 128,-1,6
 100 42 100 42 100 96 c 259,7,8
 100 134 100 134 112 190 c 2,9,-1
 183 521 l 1,10,-1
 290 521 l 1,11,-1
 219 190 l 2,12,13
 213 160 213 160 213 139 c 259,14,15
 213 81 213 81 257 81 c 259,16,17
 302 81 302 81 342.5 118 c 128,-1,18
 383 155 383 155 394 204 c 2,19,-1
 462 521 l 1,20,-1
 569 521 l 1,21,-1
 458 0 l 1,22,-1
 351 0 l 1,0,-1
EndSplineSet
EndChar

StartChar: v
Encoding: 118 118 87
Width: 469
Flags: W
HStem: 0 21G<183.234 306.326> 501 20G<139 255.709 444.313 565>
VStem: 139 115<406 521>
DStem2: 254 521 139 521 0.0879496 -0.996125<0 352.278> 284 170 296 0 0.458773 0.888553<0 389.874>
LayerCount: 3
Fore
SplineSet
296 0 m 1
 185 0 l 1
 139 521 l 1
 254 521 l 1
 284 170 l 1
 454 521 l 1
 565 521 l 1
 296 0 l 1
EndSplineSet
Validated: 1
Layer: 2
SplineSet
296 0 m 1,0,-1
 185 0 l 1,1,-1
 139 521 l 1,2,-1
 254 521 l 1,3,-1
 284 170 l 1,4,-1
 454 521 l 1,5,-1
 565 521 l 1,6,-1
 296 0 l 1,0,-1
EndSplineSet
EndChar

StartChar: w
Encoding: 119 119 88
Width: 726
Flags: W
HStem: 0 21G<165.848 284.877 457.572 568.635> 501 20G<137 252.39 415.148 534.616 702.919 810>
VStem: 137 115<399.433 521> 450 84<293.818 374> 458 87<164 327.25>
DStem2: 266 164 276 0 0.405685 0.914013<0 263.343> 549 162 559 0 0.434024 0.900902<0 394.169>
LayerCount: 3
Fore
SplineSet
559 0 m 1xe8
 458 0 l 1xe8
 450 374 l 1
 442 374 l 1
 276 0 l 1
 167 0 l 1
 137 521 l 1
 252 521 l 1
 259 162 l 1
 266 164 l 1
 424 521 l 1
 534 521 l 1xf0
 545 164 l 1
 549 162 l 1
 712 521 l 1
 810 521 l 1
 559 0 l 1xe8
EndSplineSet
Validated: 1
Layer: 2
SplineSet
559 0 m 1,0,-1
 458 0 l 1,1,-1
 450 374 l 1,2,-1
 442 374 l 1,3,-1
 276 0 l 1,4,-1
 167 0 l 1,5,-1
 137 521 l 1,6,-1
 252 521 l 1,7,-1
 259 162 l 1,8,-1
 266 164 l 1,9,-1
 424 521 l 1,10,-1
 534 521 l 1,11,-1
 545 164 l 1,12,-1
 549 162 l 1,13,-1
 712 521 l 1,14,-1
 810 521 l 1,15,-1
 559 0 l 1,0,-1
EndSplineSet
EndChar

StartChar: x
Encoding: 120 120 89
Width: 530
Flags: W
HStem: 0 21G<49 177.647 346.176 477> 501 20G<176 306.809 443.255 572>
VStem: 49 113<0 113> 459 113<408 521>
DStem2: 49 0 162 0 0.618421 0.785847<69.8816 285.726 483.53 662.979> 300 521 176 521 0.321675 -0.94685<0 148.946 330.736 510.358>
LayerCount: 3
Fore
SplineSet
162 0 m 1
 49 0 l 1
 261 270 l 1
 176 521 l 1
 300 521 l 1
 348 380 l 1
 459 521 l 1
 572 521 l 1
 382 280 l 1
 477 0 l 1
 353 0 l 1
 295 170 l 1
 162 0 l 1
EndSplineSet
Validated: 1
Layer: 2
SplineSet
162 0 m 1,0,-1
 49 0 l 1,1,-1
 261 270 l 1,2,-1
 176 521 l 1,3,-1
 300 521 l 1,4,-1
 348 380 l 1,5,-1
 459 521 l 1,6,-1
 572 521 l 1,7,-1
 382 280 l 1,8,-1
 477 0 l 1,9,-1
 353 0 l 1,10,-1
 295 170 l 1,11,-1
 162 0 l 1,0,-1
EndSplineSet
EndChar

StartChar: y
Encoding: 121 121 90
Width: 470
Flags: W
HStem: -215 21G<1.74797 64.1504> 501 20G<148.742 265.568 454.709 559.742>
VStem: 148.742 115<406 521>
DStem2: 263.742 521 148.742 521 0.0960184 -0.99538<0 340.405> 294.686 182 264.972 -66 0.44876 0.893652<0 379.263>
LayerCount: 3
Fore
SplineSet
264.971679688 -66 m 2
 221.266601562 -154 153.212890625 -206 64.150390625 -211 c 2
 -2.69921875 -215 l 1
 19.9814453125 -113 l 1
 32.7685546875 -114 45.5556640625 -115 54.5556640625 -115 c 3
 121.555664062 -115 163.5703125 -82 199 0 c 1
 148.7421875 521 l 1
 263.7421875 521 l 1
 294.685546875 182 l 1
 464.7421875 521 l 1
 559.7421875 521 l 1
 264.971679688 -66 l 2
EndSplineSet
Layer: 2
SplineSet
265 -66 m 2,0,1
 197 -204 197 -204 64 -211 c 2,2,-1
 -3 -215 l 1,3,-1
 20 -113 l 1,4,5
 46 -115 46 -115 55 -115 c 0,6,7
 105 -115 105 -115 138.5 -88 c 128,-1,8
 172 -61 172 -61 199 0 c 1,9,-1
 149 521 l 1,10,-1
 264 521 l 1,11,-1
 295 182 l 1,12,-1
 465 521 l 1,13,-1
 560 521 l 1,14,-1
 265 -66 l 2,0,1
EndSplineSet
EndChar

StartChar: z
Encoding: 122 122 91
Width: 412
Flags: W
HStem: 0 86<148 379> 435 86<152 353>
DStem2: 40 78 148 86 0.660438 0.75088<77.3344 474.781>
LayerCount: 3
Fore
SplineSet
23 0 m 1
 40 78 l 1
 353 435 l 1
 133 435 l 1
 152 521 l 1
 479 521 l 1
 462 443 l 1
 148 86 l 1
 397 86 l 1
 379 0 l 1
 23 0 l 1
EndSplineSet
Validated: 1
Layer: 2
SplineSet
23 0 m 1,0,-1
 40 78 l 1,1,-1
 353 435 l 1,2,-1
 133 435 l 1,3,-1
 152 521 l 1,4,-1
 479 521 l 1,5,-1
 462 443 l 1,6,-1
 148 86 l 1,7,-1
 397 86 l 1,8,-1
 379 0 l 1,9,-1
 23 0 l 1,0,-1
EndSplineSet
EndChar

StartChar: braceleft
Encoding: 123 123 92
Width: 402
Flags: W
HStem: -182 86<250.335 296> 222 86<132 168.519> 616 86<391.52 466>
VStem: 129 117<-116 17.1562> 180 108<58.5312 209.922>
DStem2: 108.469 -182 215.416 -182 0.207912 0.978148<156.122 353.969 523.907 830.79>
LayerCount: 3
Fore
SplineSet
202 -182 m 2xf0
 161 -182 129 -138 129 -94 c 3xf0
 129 -88 130 -82 131 -76 c 2
 178 144 l 2
 180 152 180 158 180 165 c 3
 180 201 156 222 114 222 c 1
 132 308 l 1
 182 308 218 334 227 376 c 2
 273 591 l 2
 285 646 344 702 390 702 c 2
 484 702 l 1
 466 616 l 1
 449 616 l 2
 402 616 381 596 370 544 c 2
 335 379 l 2
 324 325 273 278 218 273 c 1
 214 254 l 1
 261 251 288 221 288 174 c 3xe8
 288 165 287 156 284 142 c 2
 249 -24 l 2
 247 -34 246 -44 246 -52 c 3
 246 -82 262 -96 298 -96 c 2
 315 -96 l 1
 296 -182 l 1
 202 -182 l 2xf0
EndSplineSet
Layer: 2
SplineSet
202 -182 m 2,0,1
 172 -182 172 -182 150.5 -155 c 128,-1,2
 129 -128 129 -128 129 -94 c 3,3,4
 129 -88 129 -88 131 -76 c 2,5,-1
 178 144 l 2,6,7
 180 152 180 152 180 165 c 3,8,9
 180 192 180 192 162.5 207 c 128,-1,10
 145 222 145 222 114 222 c 1,11,-1
 132 308 l 1,12,13
 169 308 169 308 194.5 326 c 128,-1,14
 220 344 220 344 227 376 c 2,15,-1
 273 591 l 2,16,17
 282 632 282 632 319 667 c 128,-1,18
 356 702 356 702 390 702 c 2,19,-1
 484 702 l 1,20,-1
 466 616 l 1,21,-1
 449 616 l 2,22,23
 414 616 414 616 396 599.5 c 128,-1,24
 378 583 378 583 370 544 c 2,25,-1
 335 379 l 2,26,27
 327 338 327 338 293 307.5 c 128,-1,28
 259 277 259 277 218 273 c 1,29,-1
 214 254 l 1,30,31
 249 252 249 252 268.5 230.5 c 128,-1,32
 288 209 288 209 288 174 c 3,33,34
 288 161 288 161 284 142 c 2,35,-1
 249 -24 l 2,36,37
 246 -39 246 -39 246 -52 c 3,38,39
 246 -96 246 -96 298 -96 c 2,40,-1
 315 -96 l 1,41,-1
 296 -182 l 1,42,-1
 202 -182 l 2,0,1
EndSplineSet
EndChar

StartChar: bar
Encoding: 124 124 93
Width: 294
Flags: W
HStem: 694 20G<251.736 342>
VStem: 62 86<-196 -110> 256 86<628 714>
DStem2: 62 -196 148 -196 0.207912 0.978148<17.8804 930.449>
LayerCount: 3
Fore
SplineSet
62 -196 m 1
 256 714 l 1
 342 714 l 1
 148 -196 l 1
 62 -196 l 1
EndSplineSet
Validated: 1
Layer: 2
SplineSet
62 -196 m 1,0,-1
 256 714 l 1,1,-1
 342 714 l 1,2,-1
 148 -196 l 1,3,-1
 62 -196 l 1,0,-1
EndSplineSet
EndChar

StartChar: braceright
Encoding: 125 125 94
Width: 402
Flags: W
HStem: -185 86<46 120.328> 219 86<343.209 382> 613 86<216 262.966>
VStem: 222 110<316.463 450.133> 267 115<496.398 630.615>
DStem2: 108.416 -185 215.469 -185 0.207912 0.978148<95.1088 418.567 576.781 771.195>
LayerCount: 3
Fore
SplineSet
285 141 m 2xe8
 238 -79 l 2
 227 -130 167 -185 123 -185 c 2
 28 -185 l 1
 46 -99 l 1
 65 -99 l 2
 111 -99 132 -76 142 -27 c 2
 181 156 l 2
 194 219 229 246 295 250 c 1
 300 271 l 1
 254 276 222 298 222 339 c 3xf0
 222 345 222 352 224 359 c 2
 263 541 l 2
 266 554 267 564 267 570 c 3
 267 600 250 613 216 613 c 2
 197 613 l 1
 216 699 l 1
 311 699 l 2
 353 699 382 653 382 608 c 3xe8
 382 604 382 596 380 588 c 2
 334 373 l 2
 332 365 332 360 332 357 c 3xf0
 332 325 357 305 400 305 c 1
 382 219 l 1
 332 219 295 190 285 141 c 2xe8
EndSplineSet
Layer: 2
SplineSet
285 141 m 2,0,-1
 238 -79 l 2,1,2
 230 -117 230 -117 193 -151 c 128,-1,3
 156 -185 156 -185 123 -185 c 2,4,-1
 28 -185 l 1,5,-1
 46 -99 l 1,6,-1
 65 -99 l 2,7,8
 99 -99 99 -99 116.5 -82 c 128,-1,9
 134 -65 134 -65 142 -27 c 2,10,-1
 181 156 l 2,11,12
 191 203 191 203 218 225 c 128,-1,13
 245 247 245 247 295 250 c 1,14,-1
 300 271 l 1,15,16
 264 275 264 275 243 292 c 128,-1,17
 222 309 222 309 222 339 c 0,18,19
 222 352 222 352 224 359 c 2,20,-1
 263 541 l 2,21,22
 267 558 267 558 267 570 c 0,23,24
 267 613 267 613 216 613 c 2,25,-1
 197 613 l 1,26,-1
 216 699 l 1,27,-1
 311 699 l 2,28,29
 341 699 341 699 361.5 671 c 128,-1,30
 382 643 382 643 382 608 c 0,31,32
 382 596 382 596 380 588 c 2,33,-1
 334 373 l 2,34,35
 332 365 332 365 332 357 c 0,36,37
 332 333 332 333 350 319 c 128,-1,38
 368 305 368 305 400 305 c 1,39,-1
 382 219 l 1,40,41
 344 219 344 219 318 198.5 c 128,-1,42
 292 178 292 178 285 141 c 2,0,-1
EndSplineSet
EndChar

StartChar: asciitilde
Encoding: 126 126 95
Width: 588
Flags: W
HStem: 220 86<431.549 514.241> 339 86<212.366 299.158>
VStem: 82 107<253 311.948> 538 107<331.773 391>
LayerCount: 3
Fore
SplineSet
645 391 m 1
 612 274 563 220 480 220 c 3
 443 220 404 237 341 287 c 0
 293 325 267 339 245 339 c 3
 220 339 201 311 189 253 c 1
 82 253 l 1
 114 369 166 425 239 425 c 3
 281 425 327 404 397 352 c 0
 444 317 463 306 483 306 c 3
 509 306 521 327 538 391 c 1
 645 391 l 1
EndSplineSet
Layer: 2
SplineSet
645 391 m 1,0,1
 620 302 620 302 581 261 c 128,-1,2
 542 220 542 220 480 220 c 259,3,4
 425 220 425 220 341 287 c 0,5,6
 275 339 275 339 245 339 c 259,7,8
 207 339 207 339 189 253 c 1,9,-1
 82 253 l 1,10,11
 129 425 129 425 239 425 c 259,12,13
 299 425 299 425 397 352 c 0,14,15
 459 306 459 306 483 306 c 259,16,17
 502 306 502 306 513.5 324 c 128,-1,18
 525 342 525 342 538 391 c 1,19,-1
 645 391 l 1,0,1
EndSplineSet
EndChar

StartChar: uni0E10.descless
Encoding: 63232 63232 96
Width: 613
Flags: W
HStem: -5 78<333.769 419.75> 163 68<204.021 225> 306 68<210.547 280.618> 494 78<490.12 677.557> 526 78<315.476 514.879>
VStem: 131 72<232.629 298.161> 215 117<76.0056 163.898> 282 85<239.428 304.24> 468 122<271.162 361.272>
DStem2: 404.155 -5 522.392 -5 0.207912 0.978148<80.5197 319.113>
LayerCount: 3
Fore
SplineSet
299 491 m 1xee80
 386 491 500 458 542 425 c 0
 571 403 590 363 590 325 c 3
 590 317 589 310 587 302 c 2
 553 139 l 2
 531 34 481 -5 356 -5 c 3
 263 -5 215 29 215 99 c 3xee80
 215 112 217 126 220 141 c 2
 225 163 l 1
 166 163 131 193 131 242 c 3
 131 319 197 374 269 374 c 3
 329 374 367 337 367 288 c 3xed80
 367 281 367 274 365 267 c 2
 339 144 l 2
 335 125 332 112 332 102 c 3
 332 77 346 73 379 73 c 3
 411 73 424 89 432 126 c 2
 466 286 l 2
 468 293 468 301 468 308 c 3
 468 325 464 340 456 351 c 0
 426 396 327 426 160 441 c 1
 203 545 292 604 406 604 c 3xee80
 441 604 475 598 516 588 c 0
 558 577 585 572 606 572 c 3
 643 572 666 581 682 598 c 1
 703 532 l 1
 673 507 637 494 594 494 c 3xf680
 565 494 528 500 492 510 c 0
 454 521 425 526 399 526 c 3
 352 526 324 516 299 491 c 1xee80
282 277 m 3xe580
 282 295 269 306 250 306 c 3
 228 306 203 288 203 260 c 3
 203 243 216 231 234 231 c 3
 258 231 282 249 282 277 c 3xe580
EndSplineSet
Layer: 2
SplineSet
299 491 m 1,0,1
 363 491 363 491 436.5 470.5 c 128,-1,2
 510 450 510 450 542 425 c 0,3,4
 564 409 564 409 577 381.5 c 128,-1,5
 590 354 590 354 590 325 c 259,6,7
 590 314 590 314 587 302 c 2,8,-1
 553 139 l 2,9,10
 536 60 536 60 492.5 27.5 c 128,-1,11
 449 -5 449 -5 356 -5 c 259,12,13
 215 -5 215 -5 215 99 c 259,14,15
 215 116 215 116 220 141 c 2,16,-1
 225 163 l 1,17,18
 181 163 181 163 156 184 c 128,-1,19
 131 205 131 205 131 242 c 259,20,21
 131 298 131 298 172.5 336 c 128,-1,22
 214 374 214 374 269 374 c 259,23,24
 313 374 313 374 340 349.5 c 128,-1,25
 367 325 367 325 367 288 c 259,26,27
 367 274 367 274 365 267 c 2,28,-1
 339 144 l 2,29,30
 332 111 332 111 332 102 c 259,31,32
 332 84 332 84 342.5 78.5 c 128,-1,33
 353 73 353 73 379 73 c 259,34,35
 402 73 402 73 414 85 c 128,-1,36
 426 97 426 97 432 126 c 2,37,-1
 466 286 l 2,38,39
 468 293 468 293 468 308 c 259,40,41
 468 334 468 334 456 351 c 0,42,43
 411 418 411 418 160 441 c 1,44,45
 192 519 192 519 256.5 561.5 c 128,-1,46
 321 604 321 604 406 604 c 259,47,48
 450 604 450 604 516 588 c 0,49,50
 577 572 577 572 606 572 c 259,51,52
 658 572 658 572 682 598 c 1,53,-1
 703 532 l 1,54,55
 657 494 657 494 594 494 c 259,56,57
 550 494 550 494 492 510 c 0,58,59
 437 526 437 526 399 526 c 259,60,61
 334 526 334 526 299 491 c 1,0,1
282 277 m 259,62,63
 282 306 282 306 250 306 c 259,64,65
 232 306 232 306 217.5 293 c 128,-1,66
 203 280 203 280 203 260 c 259,67,68
 203 247 203 247 211.5 239 c 128,-1,69
 220 231 220 231 234 231 c 259,70,71
 253 231 253 231 267.5 244 c 128,-1,72
 282 257 282 257 282 277 c 259,62,63
EndSplineSet
EndChar

StartChar: ellipsis
Encoding: 8230 8230 101
Width: 637
VWidth: 2048
Flags: W
HStem: 0 133<85.9003 174.576 295.9 384.576 507.9 596.576>
VStem: 61 139<24.8007 107.106> 271 139<24.8007 107.106> 483 139<24.8007 107.106>
LayerCount: 3
Fore
SplineSet
538 0 m 3
 501 0 483 15 483 45 c 3
 483 101 518 133 566 133 c 3
 603 133 622 117 622 86 c 3
 622 30 586 0 538 0 c 3
326 0 m 3
 289 0 271 15 271 45 c 3
 271 101 306 133 354 133 c 3
 391 133 410 117 410 86 c 3
 410 30 374 0 326 0 c 3
116 0 m 3
 79 0 61 15 61 45 c 3
 61 101 96 133 144 133 c 3
 181 133 200 117 200 86 c 3
 200 30 164 0 116 0 c 3
EndSplineSet
Layer: 2
SplineSet
538 0 m 259,0,1
 483 0 483 0 483 45 c 259,2,3
 483 86 483 86 506 109.5 c 128,-1,4
 529 133 529 133 566 133 c 259,5,6
 622 133 622 133 622 86 c 259,7,8
 622 45 622 45 598.5 22.5 c 128,-1,9
 575 0 575 0 538 0 c 259,0,1
326 0 m 259,10,11
 271 0 271 0 271 45 c 259,12,13
 271 86 271 86 294 109.5 c 128,-1,14
 317 133 317 133 354 133 c 259,15,16
 410 133 410 133 410 86 c 259,17,18
 410 45 410 45 386.5 22.5 c 128,-1,19
 363 0 363 0 326 0 c 259,10,11
116 0 m 259,20,21
 61 0 61 0 61 45 c 259,22,23
 61 86 61 86 84 109.5 c 128,-1,24
 107 133 107 133 144 133 c 259,25,26
 200 133 200 133 200 86 c 259,27,28
 200 45 200 45 176.5 22.5 c 128,-1,29
 153 0 153 0 116 0 c 259,20,21
EndSplineSet
EndChar

StartChar: uni0E48.low
Encoding: 63242 63242 107
Width: 0
Flags: W
HStem: 684 254<-3 61>
VStem: -57 118<684 802> -3 118<820 938>
DStem2: -57 684 61 684 0.207912 0.978148<24.5336 259.677>
AnchorPoint: "AboveMark" 67 988 basemark 0
AnchorPoint: "AboveBase" 43 613 mark 0
LayerCount: 3
Fore
SplineSet
-57 684 m 1xc0
 -3 938 l 1
 115 938 l 1xa0
 61 684 l 1
 -57 684 l 1xc0
EndSplineSet
Validated: 1
Layer: 2
SplineSet
-57 684 m 1,0,-1
 -3 938 l 1,1,-1
 115 938 l 1,2,-1
 61 684 l 1,3,-1
 -57 684 l 1,0,-1
EndSplineSet
Substitution2: "Thai Phinthu Mai Ek Reordering" uni0E3A
EndChar

StartChar: uni0E49.low
Encoding: 63243 63243 108
Width: 0
Flags: W
HStem: 946 58<-191.144 -110.837>
VStem: -270 65<853.013 931.502> -107 74<864.76 942.488>
AnchorPoint: "AboveMark" 1 1054 basemark 0
AnchorPoint: "AboveBase" 43 613 mark 0
LayerCount: 3
Fore
SplineSet
184 814 m 1
 68 723 -68 678 -240 678 c 3
 -262 678 -280 679 -295 681 c 1
 -248 702 -204 748 -188 791 c 1
 -238 791 -270 825 -270 872 c 3
 -270 948 -203 1004 -135 1004 c 3
 -70 1004 -33 970 -33 916 c 3
 -33 860 -75 786 -111 760 c 1
 16 777 135 861 218 976 c 1
 184 814 l 1
-107 909 m 3
 -107 931 -122 946 -146 946 c 3
 -176 946 -205 922 -205 887 c 3
 -205 865 -190 850 -166 850 c 3
 -136 850 -107 874 -107 909 c 3
EndSplineSet
Layer: 2
SplineSet
184 814 m 1,0,1
 11 678 11 678 -240 678 c 259,2,3
 -272 678 -272 678 -295 681 c 1,4,5
 -260 697 -260 697 -230 728 c 128,-1,6
 -200 759 -200 759 -188 791 c 1,7,8
 -225 791 -225 791 -247.5 813.5 c 128,-1,9
 -270 836 -270 836 -270 872 c 259,10,11
 -270 927 -270 927 -229 965.5 c 128,-1,12
 -188 1004 -188 1004 -135 1004 c 259,13,14
 -87 1004 -87 1004 -60 980.5 c 128,-1,15
 -33 957 -33 957 -33 916 c 259,16,17
 -33 876 -33 876 -58 828 c 128,-1,18
 -83 780 -83 780 -111 760 c 1,19,20
 -18 772 -18 772 68 830 c 128,-1,21
 154 888 154 888 218 976 c 1,22,-1
 184 814 l 1,0,1
-107 909 m 259,23,24
 -107 926 -107 926 -117.5 936 c 128,-1,25
 -128 946 -128 946 -146 946 c 259,26,27
 -169 946 -169 946 -187 929 c 128,-1,28
 -205 912 -205 912 -205 887 c 259,29,30
 -205 870 -205 870 -194.5 860 c 128,-1,31
 -184 850 -184 850 -166 850 c 259,32,33
 -143 850 -143 850 -125 867 c 128,-1,34
 -107 884 -107 884 -107 909 c 259,23,24
EndSplineSet
Substitution2: "Thai Phinthu Mai Tho Reordering" uni0E3A
EndChar

StartChar: uni0E4A.low
Encoding: 63244 63244 109
Width: 0
Flags: W
HStem: 677 40<-250.549 -183.205> 797 41<-228.328 -174.46> 901 74<-208.853 -114.808 -55.3996 42.5>
VStem: -315 62<718.19 788.753> -173 46<725.915 795.145> 9 88<807.028 895.053>
AnchorPoint: "AboveMark" -69 1023 basemark 0
AnchorPoint: "AboveBase" 43 613 mark 0
LayerCount: 3
Fore
SplineSet
-164 901 m 3
 -197 901 -229 868 -229 829 c 1
 -217 835 -202 838 -188 838 c 3
 -150 838 -127 813 -127 777 c 3
 -127 719 -178 677 -230 677 c 3
 -285 677 -315 714 -315 772 c 3
 -315 823 -293 873 -271 907 c 0
 -243 950 -201 975 -157 975 c 3
 -124 975 -93 957 -84 933 c 1
 -50 961 -16 975 18 975 c 3
 67 975 97 941 97 890 c 3
 97 844 75 797 52 771 c 1
 121 802 178 883 196 966 c 1
 280 920 l 1
 207 768 89 694 -100 682 c 1
 -40 718 9 787 9 856 c 3
 9 884 -4 898 -30 898 c 3
 -47 898 -72 888 -101 868 c 1
 -126 890 -144 901 -164 901 c 3
-222 717 m 3
 -197 717 -173 738 -173 767 c 3
 -173 785 -185 797 -205 797 c 3
 -230 797 -253 776 -253 747 c 3
 -253 729 -242 717 -222 717 c 3
EndSplineSet
Layer: 2
SplineSet
-164 901 m 259,0,1
 -189 901 -189 901 -209 879.5 c 128,-1,2
 -229 858 -229 858 -229 829 c 1,3,4
 -211 838 -211 838 -188 838 c 259,5,6
 -160 838 -160 838 -143.5 821 c 128,-1,7
 -127 804 -127 804 -127 777 c 259,8,9
 -127 735 -127 735 -158.5 706 c 128,-1,10
 -190 677 -190 677 -230 677 c 259,11,12
 -271 677 -271 677 -293 702.5 c 128,-1,13
 -315 728 -315 728 -315 772 c 259,14,15
 -315 839 -315 839 -271 907 c 128,-1,16
 -227 975 -227 975 -157 975 c 259,17,18
 -132 975 -132 975 -111.5 963 c 128,-1,19
 -91 951 -91 951 -84 933 c 1,20,21
 -33 975 -33 975 18 975 c 259,22,23
 54 975 54 975 75.5 952 c 128,-1,24
 97 929 97 929 97 890 c 259,25,26
 97 822 97 822 52 771 c 1,27,28
 103 794 103 794 142.5 848.5 c 128,-1,29
 182 903 182 903 196 966 c 1,30,-1
 280 920 l 1,31,32
 225 806 225 806 133.5 748.5 c 128,-1,33
 42 691 42 691 -100 682 c 1,34,35
 -53 710 -53 710 -22 758 c 128,-1,36
 9 806 9 806 9 856 c 259,37,38
 9 898 9 898 -30 898 c 259,39,40
 -58 898 -58 898 -101 868 c 1,41,42
 -138 901 -138 901 -164 901 c 259,0,1
-222 717 m 259,43,44
 -203 717 -203 717 -188 731.5 c 128,-1,45
 -173 746 -173 746 -173 767 c 259,46,47
 -173 797 -173 797 -205 797 c 259,48,49
 -224 797 -224 797 -238.5 782.5 c 128,-1,50
 -253 768 -253 768 -253 747 c 259,51,52
 -253 717 -253 717 -222 717 c 259,43,44
EndSplineSet
Substitution2: "Thai Phinthu Mai Tri Reordering" uni0E3A
EndChar

StartChar: uni0E4B.low
Encoding: 63245 63245 110
Width: 0
Flags: W
HStem: 808 98<-150 -32 107 226>
VStem: -59 118<682 800> 16 118<915 1033>
DStem2: -59 682 59 682 0.207912 0.978148<24.5336 128.86 253.618 358.923>
AnchorPoint: "AboveMark" 85 1083 basemark 0
AnchorPoint: "AboveBase" 147 613 mark 0
LayerCount: 3
Fore
SplineSet
16 1033 m 1xa0
 134 1033 l 1xa0
 107 906 l 1
 247 906 l 1
 226 808 l 1
 86 808 l 1
 59 682 l 1
 -59 682 l 1xc0
 -32 808 l 1
 -171 808 l 1
 -150 906 l 1
 -11 906 l 1
 16 1033 l 1xa0
EndSplineSet
Validated: 1
Layer: 2
SplineSet
16 1033 m 1,0,-1
 134 1033 l 1,1,-1
 107 906 l 1,2,-1
 247 906 l 1,3,-1
 226 808 l 1,4,-1
 86 808 l 1,5,-1
 59 682 l 1,6,-1
 -59 682 l 1,7,-1
 -32 808 l 1,8,-1
 -171 808 l 1,9,-1
 -150 906 l 1,10,-1
 -11 906 l 1,11,-1
 16 1033 l 1,0,-1
EndSplineSet
Substitution2: "Thai Phinthu Mai Chattawa Reordering" uni0E3A
EndChar

StartChar: uni0E4C.low
Encoding: 63246 63246 111
Width: 0
Flags: W
HStem: 668 48<-71.6055 9.54211>
VStem: -141 66<720.075 799.234> 25 50<731.669 810.36> 180 95<1003.58 1056>
AnchorPoint: "AboveMark" 23 988 basemark 0
AnchorPoint: "AboveBase" 43 613 mark 0
LayerCount: 3
Fore
SplineSet
-51 668 m 3
 -107 668 -141 706 -141 760 c 3
 -141 807 -120 845 -94 875 c 0
 -61 912 -11 935 53 948 c 0
 134 964 167 993 180 1056 c 1
 275 1056 l 1
 244 953 182 903 60 895 c 0
 25 893 -1 880 -13 861 c 1
 45 858 75 832 75 786 c 3
 75 715 18 668 -51 668 c 3
-35 716 m 3
 -5 716 25 741 25 777 c 3
 25 799 10 814 -14 814 c 3
 -45 814 -75 789 -75 753 c 3
 -75 731 -60 716 -35 716 c 3
EndSplineSet
Layer: 2
SplineSet
-51 668 m 259,0,1
 -92 668 -92 668 -116.5 693.5 c 128,-1,2
 -141 719 -141 719 -141 760 c 259,3,4
 -141 821 -141 821 -94 875 c 0,5,6
 -47 928 -47 928 53 948 c 0,7,8
 113 960 113 960 141.5 984.5 c 128,-1,9
 170 1009 170 1009 180 1056 c 1,10,-1
 275 1056 l 1,11,12
 251 978 251 978 201 939.5 c 128,-1,13
 151 901 151 901 60 895 c 0,14,15
 7 892 7 892 -13 861 c 1,16,17
 75 856 75 856 75 786 c 259,18,19
 75 734 75 734 38.5 701 c 128,-1,20
 2 668 2 668 -51 668 c 259,0,1
-35 716 m 259,21,22
 -12 716 -12 716 6.5 733.5 c 128,-1,23
 25 751 25 751 25 777 c 259,24,25
 25 794 25 794 14.5 804 c 128,-1,26
 4 814 4 814 -14 814 c 259,27,28
 -38 814 -38 814 -56.5 796.5 c 128,-1,29
 -75 779 -75 779 -75 753 c 259,30,31
 -75 736 -75 736 -64.5 726 c 128,-1,32
 -54 716 -54 716 -35 716 c 259,21,22
EndSplineSet
Substitution2: "Thai Phinthu Thanthakhat Reordering" uni0E3A
EndChar

StartChar: uni0E0D.descless
Encoding: 63247 63247 112
Width: 882
Flags: W
HStem: -5 68<219.964 282.297> 0 78<424 463 581 698.439> 524 78<340.717 510.733> 575 20G<800.776 923>
VStem: 131 88<63.4436 134.449> 290 72<71.2163 141.249> 536 121<335.719 500.037> 805 118<477 595>
DStem2: 445.358 -5 563.358 -5 0.207912 0.978148<109.388 455.526> 678.131 -5 796.305 -5 0.207912 0.978148<84.868 613.266>
LayerCount: 3
Fore
SplineSet
656 78 m 2x6f
 681 78 699 91 703 112 c 2
 805 595 l 1
 923 595 l 1
 825 130 l 2
 810 58 756 0 699 0 c 2
 407 0 l 1
 424 78 l 1
 463 78 l 1x5f
 531 402 l 2
 534 417 536 430 536 442 c 3
 536 497 503 524 438 524 c 3
 394 524 353 513 312 486 c 1
 341 468 373 438 399 405 c 1
 334 375 298 334 286 279 c 2
 272 210 l 1
 329 210 362 181 362 132 c 3
 362 56 295 -5 226 -5 c 3xaf
 166 -5 131 28 131 87 c 3
 131 99 133 112 136 127 c 2
 168 279 l 2
 180 337 212 376 268 400 c 1
 251 424 184 473 152 484 c 1
 230 558 341 602 458 602 c 3
 586 602 657 551 657 459 c 3
 657 445 655 430 652 414 c 2
 581 78 l 1
 656 78 l 2x6f
262 142 m 3
 238 142 219 117 219 91 c 3
 219 75 227 63 245 63 c 3x8f
 272 63 290 87 290 113 c 3
 290 129 282 142 262 142 c 3
EndSplineSet
Layer: 2
SplineSet
656 78 m 2,0,1
 697 78 697 78 703 112 c 2,2,-1
 805 595 l 1,3,-1
 923 595 l 1,4,-1
 825 130 l 2,5,6
 814 75 814 75 777.5 37.5 c 128,-1,7
 741 0 741 0 699 0 c 2,8,-1
 407 0 l 1,9,-1
 424 78 l 1,10,-1
 463 78 l 1,11,-1
 531 402 l 2,12,13
 536 427 536 427 536 442 c 259,14,15
 536 524 536 524 438 524 c 259,16,17
 370 524 370 524 312 486 c 1,18,19
 357 458 357 458 399 405 c 1,20,21
 304 361 304 361 286 279 c 2,22,-1
 272 210 l 1,23,24
 315 210 315 210 338.5 189.5 c 128,-1,25
 362 169 362 169 362 132 c 259,26,27
 362 76 362 76 320.5 35.5 c 128,-1,28
 279 -5 279 -5 226 -5 c 259,29,30
 181 -5 181 -5 156 19 c 128,-1,31
 131 43 131 43 131 87 c 259,32,33
 131 102 131 102 136 127 c 2,34,-1
 168 279 l 2,35,36
 186 365 186 365 268 400 c 1,37,38
 255 418 255 418 215.5 447 c 128,-1,39
 176 476 176 476 152 484 c 1,40,41
 211 540 211 540 291 571 c 128,-1,42
 371 602 371 602 458 602 c 259,43,44
 554 602 554 602 605.5 565 c 128,-1,45
 657 528 657 528 657 459 c 259,46,47
 657 441 657 441 652 414 c 2,48,-1
 581 78 l 1,49,-1
 656 78 l 2,0,1
262 142 m 259,50,51
 244 142 244 142 231.5 126.5 c 128,-1,52
 219 111 219 111 219 91 c 259,53,54
 219 63 219 63 245 63 c 259,55,56
 265 63 265 63 277.5 78 c 128,-1,57
 290 93 290 93 290 113 c 259,58,59
 290 142 290 142 262 142 c 259,50,51
EndSplineSet
EndChar

StartChar: quoteleft
Encoding: 8216 8216 113
Width: 295
Flags: W
HStem: 575 20G<266 287> 684 39<302.939 341>
VStem: 170 156<483.235 582.12>
LayerCount: 3
Fore
SplineSet
230 450 m 3
 191 450 170 473 170 513 c 3
 170 612 268 716 350 723 c 1
 341 684 l 1
 306 677 258 630 250 593 c 1
 256 595 263 595 269 595 c 3
 305 595 326 573 326 541 c 3
 326 487 282 450 230 450 c 3
EndSplineSet
Layer: 2
SplineSet
230 450 m 259,0,1
 170 450 170 450 170 513 c 259,2,3
 170 586 170 586 228.5 652 c 128,-1,4
 287 718 287 718 350 723 c 1,5,-1
 341 684 l 1,6,7
 315 679 315 679 285.5 650 c 128,-1,8
 256 621 256 621 250 593 c 1,9,10
 256 595 256 595 269 595 c 259,11,12
 296 595 296 595 311 580 c 128,-1,13
 326 565 326 565 326 541 c 259,14,15
 326 501 326 501 298 475.5 c 128,-1,16
 270 450 270 450 230 450 c 259,0,1
EndSplineSet
EndChar

StartChar: quoteright
Encoding: 8217 8217 114
Width: 280
Flags: W
HStem: 460 40<190 229.678>
VStem: 207 159<598.93 700.188>
LayerCount: 3
Fore
SplineSet
303 733 m 3
 344 733 366 712 366 673 c 3
 366 583 276 471 182 460 c 1
 190 500 l 1
 230 508 276 556 283 590 c 1
 276 588 270 588 264 588 c 3
 228 588 207 610 207 642 c 3
 207 697 251 733 303 733 c 3
EndSplineSet
Layer: 2
SplineSet
303 733 m 259,0,1
 366 733 366 733 366 673 c 259,2,3
 366 604 366 604 308.5 536 c 128,-1,4
 251 468 251 468 182 460 c 1,5,-1
 190 500 l 1,6,7
 219 506 219 506 248.5 535 c 128,-1,8
 278 564 278 564 283 590 c 1,9,10
 276 588 276 588 264 588 c 259,11,12
 237 588 237 588 222 603 c 128,-1,13
 207 618 207 618 207 642 c 259,14,15
 207 682 207 682 235 707.5 c 128,-1,16
 263 733 263 733 303 733 c 259,0,1
EndSplineSet
EndChar

StartChar: bullet
Encoding: 8226 8226 117
Width: 531
Flags: W
HStem: 100 337<287.692 388.937>
VStem: 166 345<221.057 315.976>
LayerCount: 3
Fore
SplineSet
374 437 m 3
 459 437 511 385 511 308 c 3
 511 190 409 100 302 100 c 3
 218 100 166 151 166 228 c 3
 166 348 268 437 374 437 c 3
EndSplineSet
Layer: 2
SplineSet
374 437 m 259,0,1
 437 437 437 437 474 401.5 c 128,-1,2
 511 366 511 366 511 308 c 259,3,4
 511 221 511 221 447.5 160.5 c 128,-1,5
 384 100 384 100 302 100 c 259,6,7
 239 100 239 100 202.5 135 c 128,-1,8
 166 170 166 170 166 228 c 259,9,10
 166 316 166 316 229 376.5 c 128,-1,11
 292 437 292 437 374 437 c 259,0,1
EndSplineSet
EndChar

StartChar: endash
Encoding: 8211 8211 118
Width: 665
Flags: W
HStem: 245 100<121 661>
LayerCount: 3
Fore
SplineSet
661 245 m 1
 100 245 l 1
 121 345 l 1
 682 345 l 1
 661 245 l 1
EndSplineSet
Validated: 1
Layer: 2
SplineSet
661 245 m 1,0,-1
 100 245 l 1,1,-1
 121 345 l 1,2,-1
 682 345 l 1,3,-1
 661 245 l 1,0,-1
EndSplineSet
EndChar

StartChar: emdash
Encoding: 8212 8212 119
Width: 1056
Flags: W
HStem: 245 100<122 1059>
LayerCount: 3
Fore
SplineSet
1059 245 m 1
 101 245 l 1
 122 345 l 1
 1080 345 l 1
 1059 245 l 1
EndSplineSet
Validated: 1
Layer: 2
SplineSet
1059 245 m 1,0,-1
 101 245 l 1,1,-1
 122 345 l 1,2,-1
 1080 345 l 1,3,-1
 1059 245 l 1,0,-1
EndSplineSet
EndChar

StartChar: uni0E01
Encoding: 3585 3585 129
Width: 674
Flags: W
HStem: 0 21G<116 238.275 474 596.234> 524 78<356.066 535.213>
VStem: 116 118<0 118> 474 118<0 118> 565 119<379.728 495.167>
DStem2: 116 0 234 0 0.207912 0.978148<24.5336 364.912> 474 0 592 0 0.207912 0.978148<24.5336 448.891>
LayerCount: 3
Fore
SplineSet
274 397 m 1xe8
 253 426 196 467 159 478 c 1
 225 549 355 602 464 602 c 3
 601 602 684 544 684 450 c 3xe8
 684 438 682 424 679 411 c 2
 592 0 l 1
 474 0 l 1xf0
 561 409 l 2
 563 420 565 431 565 440 c 3
 565 496 524 524 450 524 c 3
 402 524 359 509 320 483 c 1
 349 465 380 435 406 402 c 1
 344 374 305 331 293 276 c 2
 234 0 l 1
 116 0 l 1
 175 276 l 2
 187 333 215 367 274 397 c 1xe8
EndSplineSet
Layer: 2
SplineSet
274 397 m 1,0,1
 258 419 258 419 222 444.5 c 128,-1,2
 186 470 186 470 159 478 c 1,3,4
 209 531 209 531 295.5 566.5 c 128,-1,5
 382 602 382 602 464 602 c 259,6,7
 567 602 567 602 625.5 561.5 c 128,-1,8
 684 521 684 521 684 450 c 259,9,10
 684 433 684 433 679 411 c 2,11,-1
 592 0 l 1,12,-1
 474 0 l 1,13,-1
 561 409 l 2,14,15
 565 431 565 431 565 440 c 259,16,17
 565 524 565 524 450 524 c 259,18,19
 382 524 382 524 320 483 c 1,20,21
 363 456 363 456 406 402 c 1,22,23
 311 359 311 359 293 276 c 2,24,-1
 234 0 l 1,25,-1
 116 0 l 1,26,-1
 175 276 l 2,27,28
 184 319 184 319 207 346.5 c 128,-1,29
 230 374 230 374 274 397 c 1,0,1
EndSplineSet
EndChar

StartChar: uni0E02
Encoding: 3586 3586 130
Width: 659
Flags: W
HStem: 0 78<137 207 325 475.838> 335 68<196.189 260.353> 524 78<307.975 373.189> 575 20G<583.783 706>
VStem: 121 74<404.613 473.284> 268 70<410.747 479.929> 387 99<397.039 509.893> 588 118<477 595>
DStem2: 190.421 0 308.421 0 0.207912 0.978148<104.276 299.823> 462.305 0 579.73 0 0.207912 0.978148<82.5484 608.131>
LayerCount: 3
Fore
SplineSet
427 78 m 2xef
 461 78 483 96 491 135 c 2
 588 595 l 1
 706 595 l 1xdf
 608 133 l 2
 590 50 534 0 449 0 c 2
 120 0 l 1
 137 78 l 1
 207 78 l 1
 238 224 l 2
 245 255 263 282 306 322 c 0
 362 374 387 409 387 459 c 3
 387 499 363 524 324 524 c 3
 319 524 313 524 307 523 c 1
 326 513 338 487 338 459 c 3
 338 387 273 335 212 335 c 3
 155 335 121 369 121 419 c 3
 121 466 148 513 182 547 c 0
 218 582 271 602 335 602 c 3
 429 602 486 553 486 480 c 3
 486 427 463 384 411 319 c 0
 373 271 362 253 357 230 c 2
 325 78 l 1
 427 78 l 2xef
195 432 m 3
 195 415 206 403 225 403 c 3
 246 403 268 422 268 452 c 3
 268 469 257 481 240 481 c 3
 217 481 195 459 195 432 c 3
EndSplineSet
Layer: 2
SplineSet
427 78 m 2,0,1
 479 78 479 78 491 135 c 2,2,-1
 588 595 l 1,3,-1
 706 595 l 1,4,-1
 608 133 l 2,5,6
 594 70 594 70 553 35 c 128,-1,7
 512 0 512 0 449 0 c 2,8,-1
 120 0 l 1,9,-1
 137 78 l 1,10,-1
 207 78 l 1,11,-1
 238 224 l 2,12,13
 248 268 248 268 306 322 c 0,14,15
 350 363 350 363 368.5 393 c 128,-1,16
 387 423 387 423 387 459 c 259,17,18
 387 489 387 489 370 506.5 c 128,-1,19
 353 524 353 524 324 524 c 259,20,21
 313 524 313 524 307 523 c 1,22,23
 338 507 338 507 338 459 c 259,24,25
 338 407 338 407 299 371 c 128,-1,26
 260 335 260 335 212 335 c 259,27,28
 170 335 170 335 145.5 358 c 128,-1,29
 121 381 121 381 121 419 c 259,30,31
 121 486 121 486 182 547 c 0,32,33
 239 602 239 602 335 602 c 259,34,35
 405 602 405 602 445.5 568.5 c 128,-1,36
 486 535 486 535 486 480 c 259,37,38
 486 441 486 441 468.5 405.5 c 128,-1,39
 451 370 451 370 411 319 c 0,40,41
 363 259 363 259 357 230 c 2,42,-1
 325 78 l 1,43,-1
 427 78 l 2,0,1
195 432 m 259,44,45
 195 403 195 403 225 403 c 259,46,47
 242 403 242 403 255 417 c 128,-1,48
 268 431 268 431 268 452 c 259,49,50
 268 465 268 465 260.5 473 c 128,-1,51
 253 481 253 481 240 481 c 259,52,53
 222 481 222 481 208.5 466.5 c 128,-1,54
 195 452 195 452 195 432 c 259,44,45
EndSplineSet
EndChar

StartChar: uni0E03
Encoding: 3587 3587 131
Width: 669
Flags: W
HStem: 0 78<149 221 339 479.23> 275 68<157.453 214.768> 421 68<184.5 221.938> 524 78<209.18 295.831 379.236 457> 575 20G<584.756 707>
VStem: 87 69<344.205 415.307> 223 72<349.247 420.248> 409 101<420.28 523.141> 589 118<477 595>
DStem2: 204.421 0 322.421 0 0.207912 0.978148<104.276 308.314> 462.706 0 581.493 0 0.207912 0.978148<83.015 608.256>
LayerCount: 3
Fore
SplineSet
426 78 m 2xf780
 460 78 482 92 488 119 c 2
 589 595 l 1
 707 595 l 1xef80
 607 120 l 2
 590 41 531 0 432 0 c 2
 132 0 l 1
 149 78 l 1
 221 78 l 1
 252 227 l 2
 259 259 276 284 330 346 c 0
 377 400 409 442 409 481 c 3
 409 503 401 524 390 524 c 3
 375 524 353 505 320 464 c 1
 310 497 277 524 248 524 c 3
 227 524 206 507 202 487 c 1
 206 488 211 489 217 489 c 3
 266 489 295 457 295 409 c 3
 295 331 233 275 165 275 c 3
 115 275 87 308 87 362 c 3
 87 425 110 476 142 523 c 0
 175 572 218 602 264 602 c 3
 295 602 322 582 342 549 c 1
 382 587 410 602 435 602 c 3
 479 602 510 556 510 499 c 3
 510 429 480 385 431 329 c 0
 391 282 377 257 369 221 c 2
 339 78 l 1
 426 78 l 2xf780
223 392 m 3
 223 408 214 421 196 421 c 3
 173 421 156 398 156 373 c 3
 156 357 165 343 182 343 c 3
 205 343 223 367 223 392 c 3
EndSplineSet
Layer: 2
SplineSet
426 78 m 2,0,1
 479 78 479 78 488 119 c 2,2,-1
 589 595 l 1,3,-1
 707 595 l 1,4,-1
 607 120 l 2,5,6
 581 0 581 0 432 0 c 2,7,-1
 132 0 l 1,8,-1
 149 78 l 1,9,-1
 221 78 l 1,10,-1
 252 227 l 2,11,12
 257 251 257 251 273 275 c 128,-1,13
 289 299 289 299 330 346 c 0,14,15
 370 392 370 392 389.5 423 c 128,-1,16
 409 454 409 454 409 481 c 259,17,18
 409 498 409 498 403.5 511 c 128,-1,19
 398 524 398 524 390 524 c 259,20,21
 368 524 368 524 320 464 c 1,22,23
 313 489 313 489 291.5 506.5 c 128,-1,24
 270 524 270 524 248 524 c 259,25,26
 232 524 232 524 218.5 513 c 128,-1,27
 205 502 205 502 202 487 c 1,28,29
 210 489 210 489 217 489 c 259,30,31
 253 489 253 489 274 467 c 128,-1,32
 295 445 295 445 295 409 c 259,33,34
 295 352 295 352 256 313.5 c 128,-1,35
 217 275 217 275 165 275 c 259,36,37
 128 275 128 275 107.5 298 c 128,-1,38
 87 321 87 321 87 362 c 259,39,40
 87 442 87 442 142 523 c 0,41,42
 195 602 195 602 264 602 c 259,43,44
 310 602 310 602 342 549 c 1,45,46
 398 602 398 602 435 602 c 259,47,48
 468 602 468 602 489 572 c 128,-1,49
 510 542 510 542 510 499 c 259,50,51
 510 450 510 450 491 413 c 128,-1,52
 472 376 472 376 431 329 c 0,53,54
 380 269 380 269 369 221 c 2,55,-1
 339 78 l 1,56,-1
 426 78 l 2,0,1
223 392 m 259,57,58
 223 421 223 421 196 421 c 259,59,60
 179 421 179 421 167.5 406.5 c 128,-1,61
 156 392 156 392 156 373 c 259,62,63
 156 360 156 360 163 351.5 c 128,-1,64
 170 343 170 343 182 343 c 259,65,66
 199 343 199 343 211 358 c 128,-1,67
 223 373 223 373 223 392 c 259,57,58
EndSplineSet
EndChar

StartChar: uni0E04
Encoding: 3588 3588 132
Width: 702
Flags: W
HStem: 0 21G<147 274 502 624.271> 205 68<379.839 447.835> 348 68<387.445 454.519> 524 78<358.674 557.847>
VStem: 136 111<169.573 393.414> 456 71<280.556 346.735> 502 118<0 118> 589 118<312.516 494.055>
DStem2: 502 0 620 0 0.207912 0.978148<24.5336 440.891>
LayerCount: 3
Fore
SplineSet
232 519 m 0xfd
 292 573 377 602 481 602 c 3
 628 602 707 539 707 435 c 3xfd
 707 419 706 402 702 384 c 2
 620 0 l 1
 502 0 l 1xfa
 582 378 l 2
 586 399 589 417 589 433 c 3
 589 497 552 524 462 524 c 3
 394 524 342 505 304 460 c 0
 258 406 247 315 247 212 c 3
 247 196 248 181 249 169 c 1
 302 351 353 416 442 416 c 3
 494 416 527 379 527 331 c 3
 527 258 465 205 400 205 c 3
 380 205 362 211 347 221 c 1
 311 144 281 64 267 0 c 1
 147 0 l 1
 151 21 l 2
 154 37 157 56 157 77 c 3
 157 108 153 145 146 187 c 0
 139 227 136 264 136 296 c 3
 136 399 175 468 232 519 c 0xfd
426 348 m 3
 402 348 379 329 379 301 c 3
 379 284 391 273 410 273 c 3
 434 273 456 295 456 319 c 3
 456 336 445 348 426 348 c 3
EndSplineSet
Layer: 2
SplineSet
232 519 m 0,0,1
 324 602 324 602 481 602 c 259,2,3
 590 602 590 602 648.5 558 c 128,-1,4
 707 514 707 514 707 435 c 259,5,6
 707 406 707 406 702 384 c 2,7,-1
 620 0 l 1,8,-1
 502 0 l 1,9,-1
 582 378 l 2,10,11
 589 415 589 415 589 433 c 259,12,13
 589 481 589 481 559 502.5 c 128,-1,14
 529 524 529 524 462 524 c 259,15,16
 358 524 358 524 304 460 c 0,17,18
 247 393 247 393 247 212 c 259,19,20
 247 193 247 193 249 169 c 1,21,22
 289 305 289 305 332 360.5 c 128,-1,23
 375 416 375 416 442 416 c 259,24,25
 480 416 480 416 503.5 392 c 128,-1,26
 527 368 527 368 527 331 c 259,27,28
 527 278 527 278 488.5 241.5 c 128,-1,29
 450 205 450 205 400 205 c 259,30,31
 371 205 371 205 347 221 c 1,32,33
 288 94 288 94 267 0 c 1,34,-1
 147 0 l 1,35,-1
 151 21 l 2,36,37
 157 53 157 53 157 77 c 259,38,39
 157 121 157 121 146 187 c 0,40,41
 136 244 136 244 136 296 c 259,42,43
 136 433 136 433 232 519 c 0,0,1
426 348 m 259,44,45
 407 348 407 348 393 334.5 c 128,-1,46
 379 321 379 321 379 301 c 259,47,48
 379 273 379 273 410 273 c 259,49,50
 428 273 428 273 442 287 c 128,-1,51
 456 301 456 301 456 319 c 259,52,53
 456 348 456 348 426 348 c 259,44,45
EndSplineSet
EndChar

StartChar: uni0E05
Encoding: 3589 3589 133
Width: 698
Flags: W
HStem: 0 21G<136 264.5 494 616.244> 182 68<366.858 433.988> 325 68<373.693 441.078> 582 20G<338 401.772 526.404 611>
VStem: 125 111<169.279 390.082> 442 72<258.677 324> 494 118<0 118> 585 120<379.14 497.151>
DStem2: 494 0 612 0 0.207912 0.978148<24.5336 456.578>
LayerCount: 3
Fore
SplineSet
141 25 m 2xfd
 145 43 147 63 147 86 c 3
 147 118 143 153 136 193 c 0
 129 230 125 263 125 294 c 3
 125 381 155 447 197 498 c 0
 241 553 303 590 373 602 c 1
 455 545 l 1
 565 602 l 1
 657 592 705 542 705 462 c 3xfd
 705 446 703 428 699 410 c 2
 612 0 l 1
 494 0 l 1xfa
 580 405 l 2
 584 422 585 436 585 448 c 3
 585 485 569 503 537 503 c 1
 436 456 l 1
 350 502 l 1
 322 499 294 471 273 430 c 0
 246 375 236 292 236 204 c 3
 236 188 236 176 238 169 c 1
 288 331 342 393 431 393 c 3
 484 393 514 363 514 315 c 3
 514 240 450 182 381 182 c 3
 361 182 346 186 331 195 c 1
 303 138 275 64 254 0 c 1
 136 0 l 1
 141 25 l 2xfd
412 325 m 3
 388 325 366 303 366 279 c 3
 366 262 378 250 396 250 c 3
 419 250 442 270 442 297 c 3
 442 314 431 325 412 325 c 3
EndSplineSet
Layer: 2
SplineSet
141 25 m 2,0,1
 147 52 147 52 147 86 c 259,2,3
 147 130 147 130 136 193 c 0,4,5
 125 251 125 251 125 294 c 259,6,7
 125 411 125 411 197 498 c 0,8,9
 265 584 265 584 373 602 c 1,10,-1
 455 545 l 1,11,-1
 565 602 l 1,12,13
 634 595 634 595 669.5 558.5 c 128,-1,14
 705 522 705 522 705 462 c 259,15,16
 705 437 705 437 699 410 c 2,17,-1
 612 0 l 1,18,-1
 494 0 l 1,19,-1
 580 405 l 2,20,21
 585 426 585 426 585 448 c 259,22,23
 585 503 585 503 537 503 c 1,24,-1
 436 456 l 1,25,-1
 350 502 l 1,26,27
 308 497 308 497 273 430 c 0,28,29
 236 355 236 355 236 204 c 259,30,31
 236 176 236 176 238 169 c 1,32,33
 275 290 275 290 319.5 341.5 c 128,-1,34
 364 393 364 393 431 393 c 259,35,36
 470 393 470 393 492 372 c 128,-1,37
 514 351 514 351 514 315 c 259,38,39
 514 260 514 260 474 221 c 128,-1,40
 434 182 434 182 381 182 c 259,41,42
 353 182 353 182 331 195 c 1,43,44
 292 115 292 115 254 0 c 1,45,-1
 136 0 l 1,46,-1
 141 25 l 2,0,1
412 325 m 259,47,48
 394 325 394 325 380 311 c 128,-1,49
 366 297 366 297 366 279 c 259,50,51
 366 266 366 266 374.5 258 c 128,-1,52
 383 250 383 250 396 250 c 259,53,54
 414 250 414 250 428 263.5 c 128,-1,55
 442 277 442 277 442 297 c 259,56,57
 442 325 442 325 412 325 c 259,47,48
EndSplineSet
EndChar

StartChar: uni0E06
Encoding: 3590 3590 134
Width: 767
Flags: W
HStem: -5 78<247.934 295.843> 203 78<271.558 318.766> 274 68<167.264 223.91> 421 68<195 231.513> 524 78<220.646 305.336 393.54 466.5> 575 20G<682.789 805>
VStem: 97 69<342.641 415.414> 163 82<75.9902 175.768> 232 72<349.536 420.375> 416 105<431.702 523.23> 687 118<477 595>
DStem2: 274.744 -5 393.107 -5 0.207912 0.978148<78.2735 188.159 287.092 440.32> 560.392 -5 678.02 -5 0.207912 0.978148<137.593 613.212>
LayerCount: 3
Fore
SplineSet
149 519 m 0xbae0
 183 571 228 602 275 602 c 3
 303 602 328 586 353 549 c 1
 404 591 423 602 445 602 c 3xbae0
 488 602 521 556 521 503 c 3
 521 478 514 460 493 416 c 0
 479 387 472 365 468 348 c 2
 449 258 l 1
 489 238 515 213 565 153 c 0
 577 139 585 130 587 130 c 3
 588 130 590 132 591 139 c 2
 687 595 l 1
 805 595 l 1
 698 89 l 2
 686 33 642 -5 588 -5 c 3
 554 -5 534 12 486 83 c 0
 468 108 444 138 427 155 c 1
 415 98 l 2
 400 29 352 -5 270 -5 c 3
 203 -5 163 37 163 99 c 3
 163 156 186 197 217 228 c 0
 249 261 296 281 336 281 c 1xd560
 351 351 l 2
 354 365 364 386 381 411 c 0
 402 443 416 465 416 493 c 3
 416 510 410 524 401 524 c 3
 385 524 362 504 329 464 c 1
 311 505 287 524 259 524 c 3
 237 524 221 511 213 487 c 1
 217 488 221 489 227 489 c 3
 275 489 304 457 304 409 c 3
 304 334 243 274 175 274 c 3
 124 274 97 306 97 360 c 3
 97 414 123 479 149 519 c 0xbae0
245 109 m 3xd160
 245 85 258 73 284 73 c 3
 289 73 293 80 296 95 c 2
 319 201 l 1
 314 202 309 203 305 203 c 3
 289 203 274 190 263 170 c 0
 255 155 245 131 245 109 c 3xd160
232 393 m 3xb2e0
 232 410 223 421 207 421 c 3
 183 421 166 398 166 370 c 3
 166 353 178 342 191 342 c 3
 212 342 232 365 232 393 c 3xb2e0
EndSplineSet
Layer: 2
SplineSet
149 519 m 0,0,1
 203 602 203 602 275 602 c 259,2,3
 317 602 317 602 353 549 c 1,4,5
 417 602 417 602 445 602 c 259,6,7
 477 602 477 602 499 572.5 c 128,-1,8
 521 543 521 543 521 503 c 259,9,10
 521 475 521 475 493 416 c 0,11,12
 475 380 475 380 468 348 c 2,13,-1
 449 258 l 1,14,15
 498 234 498 234 565 153 c 0,16,17
 585 130 585 130 587 130 c 259,18,19
 590 130 590 130 591 139 c 2,20,-1
 687 595 l 1,21,-1
 805 595 l 1,22,-1
 698 89 l 2,23,24
 689 47 689 47 658.5 21 c 128,-1,25
 628 -5 628 -5 588 -5 c 259,26,27
 562 -5 562 -5 542 12.5 c 128,-1,28
 522 30 522 30 486 83 c 0,29,30
 453 129 453 129 427 155 c 1,31,-1
 415 98 l 2,32,33
 393 -5 393 -5 270 -5 c 259,34,35
 220 -5 220 -5 191.5 23.5 c 128,-1,36
 163 52 163 52 163 99 c 259,37,38
 163 174 163 174 217 228 c 0,39,40
 268 281 268 281 336 281 c 1,41,-1
 351 351 l 2,42,43
 356 374 356 374 381 411 c 0,44,45
 416 464 416 464 416 493 c 259,46,47
 416 524 416 524 401 524 c 259,48,49
 378 524 378 524 329 464 c 1,50,51
 303 524 303 524 259 524 c 259,52,53
 225 524 225 524 213 487 c 1,54,55
 221 489 221 489 227 489 c 259,56,57
 263 489 263 489 283.5 467 c 128,-1,58
 304 445 304 445 304 409 c 259,59,60
 304 353 304 353 265.5 313.5 c 128,-1,61
 227 274 227 274 175 274 c 259,62,63
 137 274 137 274 117 296.5 c 128,-1,64
 97 319 97 319 97 360 c 259,65,66
 97 439 97 439 149 519 c 0,0,1
245 109 m 259,67,68
 245 73 245 73 284 73 c 259,69,70
 292 73 292 73 296 95 c 2,71,-1
 319 201 l 1,72,73
 309 203 309 203 305 203 c 0,74,75
 281 203 281 203 263 170 c 0,76,77
 245 136 245 136 245 109 c 259,67,68
232 393 m 259,78,79
 232 421 232 421 207 421 c 259,80,81
 189 421 189 421 177.5 406 c 128,-1,82
 166 391 166 391 166 370 c 259,83,84
 166 358 166 358 173.5 350 c 128,-1,85
 181 342 181 342 191 342 c 259,86,87
 207 342 207 342 219.5 357 c 128,-1,88
 232 372 232 372 232 393 c 259,78,79
EndSplineSet
EndChar

StartChar: uni0E07
Encoding: 3591 3591 135
Width: 510
Flags: W
HStem: -5 78<244.433 313.81> 388 68<352.226 389.571> 534 68<358.518 429.051>
VStem: 278 72<457.535 525.227> 431 91<465.273 532.073>
DStem2: 298.667 -5 417.054 -5 0.207912 0.978148<87.5519 402.924>
LayerCount: 3
Fore
SplineSet
415 602 m 3
 487 602 522 570 522 510 c 3
 522 497 520 483 517 467 c 2
 450 150 l 2
 429 52 359 -5 262 -5 c 3
 172 -5 139 34 133 138 c 0
 128 214 115 238 69 240 c 1
 91 343 l 1
 98 344 106 344 112 344 c 3
 188 344 209 313 224 184 c 0
 233 99 246 73 272 73 c 3
 304 73 319 90 328 133 c 2
 383 389 l 1
 379 388 374 388 371 388 c 3
 315 388 278 419 278 469 c 3
 278 546 346 602 415 602 c 3
431 504 m 3
 431 522 420 534 400 534 c 3
 375 534 350 515 350 486 c 3
 350 468 363 456 383 456 c 3
 408 456 431 475 431 504 c 3
EndSplineSet
Layer: 2
SplineSet
415 602 m 259,0,1
 522 602 522 602 522 510 c 259,2,3
 522 494 522 494 517 467 c 2,4,-1
 450 150 l 2,5,6
 434 77 434 77 384.5 36 c 128,-1,7
 335 -5 335 -5 262 -5 c 259,8,9
 195 -5 195 -5 166.5 27 c 128,-1,10
 138 59 138 59 133 138 c 0,11,12
 129 196 129 196 116 217.5 c 128,-1,13
 103 239 103 239 69 240 c 1,14,-1
 91 343 l 1,15,16
 98 344 98 344 112 344 c 259,17,18
 169 344 169 344 191 312.5 c 128,-1,19
 213 281 213 281 224 184 c 0,20,21
 231 121 231 121 241.5 97 c 128,-1,22
 252 73 252 73 272 73 c 259,23,24
 296 73 296 73 308.5 87 c 128,-1,25
 321 101 321 101 328 133 c 2,26,-1
 383 389 l 2,27,28
 379 388 379 388 371 388 c 259,29,30
 329 388 329 388 303.5 410 c 128,-1,31
 278 432 278 432 278 469 c 259,32,33
 278 525 278 525 319.5 563.5 c 128,-1,34
 361 602 361 602 415 602 c 259,0,1
431 504 m 259,35,36
 431 534 431 534 400 534 c 259,37,38
 380 534 380 534 365 520.5 c 128,-1,39
 350 507 350 507 350 486 c 259,40,41
 350 472 350 472 359 464 c 128,-1,42
 368 456 368 456 383 456 c 259,43,44
 402 456 402 456 416.5 469.5 c 128,-1,45
 431 483 431 483 431 504 c 259,35,36
EndSplineSet
EndChar

StartChar: uni0E08
Encoding: 3592 3592 136
Width: 606
Flags: W
HStem: -5 78<339.81 419.618> 192 68<210.021 231> 335 68<217.789 287.056> 524 78<269.761 462.925>
VStem: 137 72<261.494 326.736> 220 117<76.8341 192.898> 288 85<268.428 333.24> 494 121<378 493.878>
DStem2: 404.155 -5 522.228 -5 0.207912 0.978148<93.356 449.446>
LayerCount: 3
Fore
SplineSet
119 490 m 1xfd
 162 557 270 602 395 602 c 3
 537 602 615 548 615 452 c 3
 615 438 613 424 610 408 c 2
 559 168 l 2
 535 54 468 -5 356 -5 c 3
 269 -5 220 40 220 119 c 3xfd
 220 135 222 152 226 170 c 2
 231 192 l 1
 172 192 137 222 137 271 c 3
 137 346 206 403 276 403 c 3
 335 403 373 366 373 317 c 3xfb
 373 310 373 303 371 296 c 2
 345 173 l 2
 340 148 337 129 337 114 c 3
 337 82 350 73 379 73 c 3
 410 73 424 89 432 126 c 2
 489 393 l 2
 492 409 494 423 494 436 c 3
 494 498 453 524 372 524 c 3
 306 524 262 506 178 448 c 1
 119 490 l 1xfd
288 306 m 3xfb
 288 324 276 335 256 335 c 3
 232 335 209 315 209 288 c 3
 209 271 221 260 240 260 c 3
 264 260 288 278 288 306 c 3xfb
EndSplineSet
Layer: 2
SplineSet
119 490 m 1,0,1
 151 541 151 541 226.5 571.5 c 128,-1,2
 302 602 302 602 395 602 c 259,3,4
 501 602 501 602 558 563 c 128,-1,5
 615 524 615 524 615 452 c 259,6,7
 615 435 615 435 610 408 c 2,8,-1
 559 168 l 2,9,10
 523 -5 523 -5 356 -5 c 259,11,12
 291 -5 291 -5 255.5 27.5 c 128,-1,13
 220 60 220 60 220 119 c 259,14,15
 220 143 220 143 226 170 c 2,16,-1
 231 192 l 1,17,18
 187 192 187 192 162 213 c 128,-1,19
 137 234 137 234 137 271 c 259,20,21
 137 326 137 326 179.5 364.5 c 128,-1,22
 222 403 222 403 276 403 c 259,23,24
 320 403 320 403 346.5 378.5 c 128,-1,25
 373 354 373 354 373 317 c 259,26,27
 373 303 373 303 371 296 c 2,28,-1
 345 173 l 2,29,30
 337 133 337 133 337 114 c 259,31,32
 337 91 337 91 346.5 82 c 128,-1,33
 356 73 356 73 379 73 c 259,34,35
 402 73 402 73 414 85.5 c 128,-1,36
 426 98 426 98 432 126 c 2,37,-1
 489 393 l 2,38,39
 494 420 494 420 494 436 c 259,40,41
 494 524 494 524 372 524 c 259,42,43
 323 524 323 524 282.5 508 c 128,-1,44
 242 492 242 492 178 448 c 1,45,-1
 119 490 l 1,0,1
288 306 m 259,46,47
 288 335 288 335 256 335 c 259,48,49
 237 335 237 335 223 321.5 c 128,-1,50
 209 308 209 308 209 288 c 259,51,52
 209 260 209 260 240 260 c 259,53,54
 259 260 259 260 273.5 273 c 128,-1,55
 288 286 288 286 288 306 c 259,46,47
EndSplineSet
EndChar

StartChar: uni0E09
Encoding: 3593 3593 137
Width: 711
Flags: W
HStem: -5 116<230 337.583> -5 78<536 631.55> 317 68<190.231 276.909> 524 78<283.538 501.348>
VStem: 111 72<245.324 311.284> 171 130<36 151.062> 249 88<251.544 316.752> 535 121<334.828 492.45> 651 78<94.1044 209.465>
DStem2: 444.382 -5 561.469 -5 0.207912 0.978148<115.852 168.592 331.205 451.701>
AnchorPoint: "AboveBase" 690 613 basechar 0
LayerCount: 3
Fore
SplineSet
687 57 m 0xb080
 659 17 617 -5 568 -5 c 3
 504 -5 462 26 462 73 c 3x7080
 462 77 463 83 465 92 c 2
 479 160 l 1
 448 131 422 103 402 79 c 0
 347 13 316 -5 257 -5 c 3
 203 -5 171 17 171 55 c 3xb480
 171 60 172 66 173 72 c 2
 196 177 l 1
 143 177 111 210 111 256 c 3
 111 331 179 385 247 385 c 3
 305 385 337 348 337 299 c 3xba
 337 291 336 282 334 274 c 2
 302 122 l 2
 301 119 301 117 301 116 c 3
 301 112 304 111 309 111 c 3
 318 111 335 123 367 158 c 0
 420 214 460 249 503 272 c 1
 532 407 l 2
 534 418 535 428 535 438 c 3
 535 496 491 524 401 524 c 3
 307 524 230 490 196 434 c 1
 126 473 l 1
 175 549 292 602 423 602 c 3
 575 602 656 547 656 454 c 3xb5
 656 442 654 429 651 415 c 2
 626 295 l 1
 697 285 729 253 729 193 c 3
 729 141 709 89 687 57 c 0xb080
609 217 m 1
 584 101 l 2
 582 94 582 88 582 84 c 3
 582 75 587 73 600 73 c 3
 615 73 628 84 637 106 c 0
 643 120 651 144 651 165 c 3
 651 195 636 213 609 217 c 1
249 292 m 3x3a
 249 307 239 317 223 317 c 3
 201 317 183 296 183 270 c 3
 183 255 193 245 208 245 c 3
 230 245 249 265 249 292 c 3x3a
EndSplineSet
Layer: 2
SplineSet
687 57 m 0,0,1
 644 -5 644 -5 568 -5 c 259,2,3
 520 -5 520 -5 491 16.5 c 128,-1,4
 462 38 462 38 462 73 c 259,5,6
 462 78 462 78 465 92 c 2,7,-1
 479 160 l 1,8,9
 436 120 436 120 402 79 c 0,10,11
 361 29 361 29 331 12 c 128,-1,12
 301 -5 301 -5 257 -5 c 259,13,14
 216 -5 216 -5 193.5 11 c 128,-1,15
 171 27 171 27 171 55 c 0,16,17
 171 60 171 60 173 72 c 2,18,-1
 196 177 l 1,19,20
 157 177 157 177 134 199 c 128,-1,21
 111 221 111 221 111 256 c 259,22,23
 111 310 111 310 152.5 347.5 c 128,-1,24
 194 385 194 385 247 385 c 259,25,26
 289 385 289 385 313 361 c 128,-1,27
 337 337 337 337 337 299 c 259,28,29
 337 286 337 286 334 274 c 2,30,-1
 302 122 l 2,31,32
 301 119 301 119 301 116 c 259,33,34
 301 111 301 111 309 111 c 259,35,36
 324 111 324 111 367 158 c 0,37,38
 446 242 446 242 503 272 c 1,39,-1
 532 407 l 2,40,41
 535 424 535 424 535 438 c 259,42,43
 535 524 535 524 401 524 c 259,44,45
 331 524 331 524 276.5 500 c 128,-1,46
 222 476 222 476 196 434 c 1,47,-1
 126 473 l 1,48,49
 163 531 163 531 244.5 566.5 c 128,-1,50
 326 602 326 602 423 602 c 259,51,52
 536 602 536 602 596 563 c 128,-1,53
 656 524 656 524 656 454 c 259,54,55
 656 438 656 438 651 415 c 2,56,-1
 626 295 l 1,57,58
 679 288 679 288 704 263 c 128,-1,59
 729 238 729 238 729 193 c 259,60,61
 729 118 729 118 687 57 c 0,0,1
609 217 m 1,62,-1
 584 101 l 2,63,64
 582 94 582 94 582 84 c 259,65,66
 582 73 582 73 600 73 c 259,67,68
 624 73 624 73 637 106 c 0,69,70
 651 139 651 139 651 165 c 259,71,72
 651 211 651 211 609 217 c 1,62,-1
249 292 m 259,73,74
 249 317 249 317 223 317 c 259,75,76
 206 317 206 317 194.5 303 c 128,-1,77
 183 289 183 289 183 270 c 259,78,79
 183 245 183 245 208 245 c 259,80,81
 225 245 225 245 237 258.5 c 128,-1,82
 249 272 249 272 249 292 c 259,73,74
EndSplineSet
EndChar

StartChar: uni0E0A
Encoding: 3594 3594 138
Width: 656
Flags: W
HStem: 0 78<121 192 310 460.611> 341 68<181.866 246.525> 524 78<293.38 358.761>
VStem: 111 70<410.409 478.346> 255 72<417.165 486.053> 520 115<294.07 408.617>
DStem2: 175.421 0 293.421 0 0.207912 0.978148<104.276 298.772> 448.305 0 565.73 0 0.207912 0.978148<84.7791 360.757>
LayerCount: 3
Fore
SplineSet
318 602 m 3
 411 602 466 561 470 487 c 1
 596 551 684 614 724 670 c 1
 728 561 l 1
 702 533 602 477 557 468 c 1
 609 446 635 407 635 350 c 3
 635 335 634 318 630 300 c 2
 594 133 l 2
 576 49 518 0 434 0 c 2
 104 0 l 1
 121 78 l 1
 192 78 l 1
 223 225 l 2
 229 254 248 279 292 323 c 0
 349 379 372 415 372 462 c 3
 372 500 349 524 305 524 c 2
 292 524 l 1
 316 511 327 495 327 471 c 3
 327 400 261 341 194 341 c 3
 141 341 111 377 111 427 c 3
 111 474 136 518 167 546 c 0
 210 585 258 602 318 602 c 3
412 78 m 2
 447 78 469 98 477 135 c 2
 517 325 l 2
 519 335 520 345 520 354 c 3
 520 395 499 421 459 423 c 1
 450 396 433 368 397 323 c 0
 364 282 348 255 343 233 c 2
 310 78 l 1
 412 78 l 2
181 438 m 3
 181 421 191 409 210 409 c 3
 234 409 255 430 255 458 c 3
 255 475 246 487 227 487 c 3
 203 487 181 463 181 438 c 3
EndSplineSet
Layer: 2
SplineSet
318 602 m 259,0,1
 388 602 388 602 427.5 572 c 128,-1,2
 467 542 467 542 470 487 c 1,3,4
 663 585 663 585 724 670 c 1,5,-1
 728 561 l 1,6,7
 708 539 708 539 649 507 c 128,-1,8
 590 475 590 475 557 468 c 1,9,10
 635 435 635 435 635 350 c 259,11,12
 635 322 635 322 630 300 c 2,13,-1
 594 133 l 2,14,15
 580 70 580 70 538.5 35 c 128,-1,16
 497 0 497 0 434 0 c 2,17,-1
 104 0 l 1,18,-1
 121 78 l 1,19,-1
 192 78 l 1,20,-1
 223 225 l 2,21,22
 231 262 231 262 292 323 c 0,23,24
 336 366 336 366 354 397 c 128,-1,25
 372 428 372 428 372 462 c 259,26,27
 372 491 372 491 354.5 507.5 c 128,-1,28
 337 524 337 524 305 524 c 2,29,-1
 292 524 l 1,30,31
 327 505 327 505 327 471 c 259,32,33
 327 419 327 419 286 380 c 128,-1,34
 245 341 245 341 194 341 c 259,35,36
 155 341 155 341 133 365 c 128,-1,37
 111 389 111 389 111 427 c 259,38,39
 111 495 111 495 167 546 c 0,40,41
 229 602 229 602 318 602 c 259,0,1
412 78 m 2,42,43
 465 78 465 78 477 135 c 2,44,-1
 517 325 l 2,45,46
 520 340 520 340 520 354 c 259,47,48
 520 420 520 420 459 423 c 1,49,50
 446 384 446 384 397 323 c 0,51,52
 350 265 350 265 343 233 c 2,53,-1
 310 78 l 1,54,-1
 412 78 l 2,42,43
181 438 m 259,55,56
 181 409 181 409 210 409 c 259,57,58
 228 409 228 409 241.5 423 c 128,-1,59
 255 437 255 437 255 458 c 259,60,61
 255 487 255 487 227 487 c 259,62,63
 209 487 209 487 195 472 c 128,-1,64
 181 457 181 457 181 438 c 259,55,56
EndSplineSet
EndChar

StartChar: uni0E0B
Encoding: 3595 3595 139
Width: 694
Flags: W
HStem: 0 78<164 236 354 503.383> 295 64<175.77 236.11> 432 57<206 242.763> 524 78<225.292 311.949 396.157 471>
VStem: 106 69<360.209 425.313> 243 59<365.04 431.517> 417 94<485.56 522.874> 563 115<292.395 405.985>
DStem2: 219.421 0 337.421 0 0.207912 0.978148<104.276 355.079> 491.305 0 608.73 0 0.207912 0.978148<82.5692 359.779>
LayerCount: 3
Fore
SplineSet
159 529 m 0
 192 574 236 602 281 602 c 3
 310 602 334 587 359 549 c 1
 395 584 426 602 450 602 c 3
 492 602 511 572 511 505 c 3
 511 498 511 491 511 484 c 1
 627 537 696 586 769 668 c 1
 770 558 l 1
 744 530 645 473 600 464 c 1
 652 442 678 402 678 345 c 3
 678 330 676 314 672 297 c 2
 637 133 l 2
 620 51 560 0 477 0 c 2
 147 0 l 1
 164 78 l 1
 236 78 l 1
 278 276 l 2
 285 311 305 338 350 377 c 0
 399 420 417 452 417 491 c 3
 417 509 413 524 406 524 c 3
 390 524 359 499 335 464 c 1
 325 499 295 524 265 524 c 3
 241 524 226 512 219 487 c 1
 222 488 227 489 233 489 c 3
 276 489 302 460 302 418 c 3
 302 351 248 295 188 295 c 3
 136 295 106 328 106 383 c 3
 106 439 132 493 159 529 c 0
456 78 m 2
 491 78 512 98 520 135 c 2
 560 323 l 2
 562 334 563 344 563 353 c 3
 563 397 537 423 491 423 c 1
 481 409 466 391 455 379 c 0
 416 337 404 316 399 291 c 2
 354 78 l 1
 456 78 l 2
243 406 m 3
 243 422 234 432 217 432 c 3
 195 432 175 413 175 386 c 3
 175 370 184 359 201 359 c 3
 223 359 243 379 243 406 c 3
EndSplineSet
Layer: 2
SplineSet
159 529 m 0,0,1
 213 602 213 602 281 602 c 259,2,3
 324 602 324 602 359 549 c 1,4,5
 414 602 414 602 450 602 c 259,6,7
 511 602 511 602 511 505 c 2,8,-1
 511 484 l 1,9,10
 598 524 598 524 656 565.5 c 128,-1,11
 714 607 714 607 769 668 c 1,12,-1
 770 558 l 1,13,14
 750 536 750 536 691.5 503.5 c 128,-1,15
 633 471 633 471 600 464 c 1,16,17
 678 431 678 431 678 345 c 259,18,19
 678 323 678 323 672 297 c 2,20,-1
 637 133 l 2,21,22
 624 71 624 71 581.5 35.5 c 128,-1,23
 539 0 539 0 477 0 c 2,24,-1
 147 0 l 1,25,-1
 164 78 l 1,26,-1
 236 78 l 1,27,-1
 278 276 l 2,28,29
 287 323 287 323 350 377 c 0,30,31
 417 436 417 436 417 491 c 259,32,33
 417 524 417 524 406 524 c 259,34,35
 394 524 394 524 373.5 507 c 128,-1,36
 353 490 353 490 335 464 c 1,37,38
 328 490 328 490 308 507 c 128,-1,39
 288 524 288 524 265 524 c 259,40,41
 229 524 229 524 219 487 c 1,42,43
 225 489 225 489 233 489 c 259,44,45
 265 489 265 489 283.5 469.5 c 128,-1,46
 302 450 302 450 302 418 c 259,47,48
 302 368 302 368 267.5 331.5 c 128,-1,49
 233 295 233 295 188 295 c 259,50,51
 149 295 149 295 127.5 318.5 c 128,-1,52
 106 342 106 342 106 383 c 259,53,54
 106 458 106 458 159 529 c 0,0,1
456 78 m 2,55,56
 508 78 508 78 520 135 c 2,57,-1
 560 323 l 2,58,59
 563 339 563 339 563 353 c 259,60,61
 563 386 563 386 544 404.5 c 128,-1,62
 525 423 525 423 491 423 c 1,63,64
 476 402 476 402 455 379 c 0,65,66
 406 326 406 326 399 291 c 2,67,-1
 354 78 l 1,68,-1
 456 78 l 2,55,56
243 406 m 259,69,70
 243 432 243 432 217 432 c 259,71,72
 200 432 200 432 187.5 419 c 128,-1,73
 175 406 175 406 175 386 c 259,74,75
 175 359 175 359 201 359 c 259,76,77
 218 359 218 359 230.5 372.5 c 128,-1,78
 243 386 243 386 243 406 c 259,69,70
EndSplineSet
EndChar

StartChar: uni0E0C
Encoding: 3596 3596 140
Width: 882
Flags: W
HStem: -5 68<214.161 276.36 452.734 511.294> 524 78<339.747 516.461> 575 20G<797.753 920>
VStem: 128 85<63.4523 134.358> 284 73<70.9338 141.082> 378 72<64.5343 152.796> 528 73<77.3037 165.097> 535 119<334.656 504.294> 802 118<477 595>
DStem2: 441.774 -5 560.073 -5 0.207912 0.978148<279.159 465.845> 674.566 -5 793.058 -5 0.207912 0.978148<165.619 613.384>
LayerCount: 3
Fore
SplineSet
239 63 m 3x9c80
 266 63 284 87 284 113 c 3
 284 129 276 142 256 142 c 3
 232 142 213 116 213 92 c 3
 213 76 221 63 239 63 c 3x9c80
493 236 m 1
 531 412 l 2
 534 427 535 440 535 452 c 3
 535 504 503 524 433 524 c 3
 389 524 351 513 310 486 c 1
 346 464 374 436 398 405 c 1
 333 375 295 334 283 279 c 2
 269 210 l 1
 326 210 357 182 357 134 c 3
 357 53 293 -5 223 -5 c 3
 163 -5 128 28 128 87 c 3
 128 99 130 113 133 127 c 2
 165 279 l 2
 177 337 208 376 264 400 c 1
 244 428 176 475 148 481 c 1
 216 555 339 602 456 602 c 3
 584 602 654 551 654 460 c 3xdd80
 654 446 652 430 649 414 c 2
 613 244 l 1
 656 237 699 198 709 157 c 1
 802 595 l 1
 920 595 l 1
 809 70 l 2
 799 22 765 -5 719 -5 c 3
 687 -5 678 7 669 51 c 0
 656 120 634 157 598 175 c 1
 600 170 601 163 601 154 c 3xbe80
 601 58 538 -5 463 -5 c 3
 412 -5 378 34 378 87 c 3
 378 162 430 223 493 236 c 1
477 63 m 3
 504 63 528 97 528 132 c 3x9e80
 528 152 518 166 499 166 c 3
 474 166 450 135 450 100 c 3
 450 78 460 63 477 63 c 3
EndSplineSet
Layer: 2
SplineSet
239 63 m 259,0,1
 259 63 259 63 271.5 78 c 128,-1,2
 284 93 284 93 284 113 c 259,3,4
 284 142 284 142 256 142 c 259,5,6
 239 142 239 142 226 126.5 c 128,-1,7
 213 111 213 111 213 92 c 259,8,9
 213 63 213 63 239 63 c 259,0,1
493 236 m 1,10,-1
 531 412 l 2,11,12
 535 432 535 432 535 452 c 259,13,14
 535 491 535 491 510.5 507.5 c 128,-1,15
 486 524 486 524 433 524 c 259,16,17
 368 524 368 524 310 486 c 1,18,19
 358 457 358 457 398 405 c 1,20,21
 301 360 301 360 283 279 c 2,22,-1
 269 210 l 1,23,24
 311 210 311 210 334 190 c 128,-1,25
 357 170 357 170 357 134 c 259,26,27
 357 75 357 75 317 35 c 128,-1,28
 277 -5 277 -5 223 -5 c 259,29,30
 178 -5 178 -5 153 19 c 128,-1,31
 128 43 128 43 128 87 c 259,32,33
 128 104 128 104 133 127 c 2,34,-1
 165 279 l 2,35,36
 183 365 183 365 264 400 c 1,37,38
 249 421 249 421 209 448.5 c 128,-1,39
 169 476 169 476 148 481 c 1,40,41
 199 536 199 536 283.5 569 c 128,-1,42
 368 602 368 602 456 602 c 259,43,44
 552 602 552 602 603 565 c 128,-1,45
 654 528 654 528 654 460 c 259,46,47
 654 441 654 441 649 414 c 2,48,-1
 613 244 l 1,49,50
 645 239 645 239 673 213.5 c 128,-1,51
 701 188 701 188 709 157 c 1,52,-1
 802 595 l 1,53,-1
 920 595 l 1,54,-1
 809 70 l 2,55,56
 802 34 802 34 778 14.5 c 128,-1,57
 754 -5 754 -5 719 -5 c 259,58,59
 695 -5 695 -5 685.5 6 c 128,-1,60
 676 17 676 17 669 51 c 0,61,62
 651 149 651 149 598 175 c 1,63,64
 601 167 601 167 601 154 c 259,65,66
 601 84 601 84 561 39.5 c 128,-1,67
 521 -5 521 -5 463 -5 c 259,68,69
 425 -5 425 -5 401.5 21 c 128,-1,70
 378 47 378 47 378 87 c 259,71,72
 378 142 378 142 411.5 184 c 128,-1,73
 445 226 445 226 493 236 c 1,10,-1
477 63 m 259,74,75
 497 63 497 63 512.5 84 c 128,-1,76
 528 105 528 105 528 132 c 259,77,78
 528 166 528 166 499 166 c 259,79,80
 480 166 480 166 465 146 c 128,-1,81
 450 126 450 126 450 100 c 259,82,83
 450 63 450 63 477 63 c 259,74,75
EndSplineSet
EndChar

StartChar: uni0E0D
Encoding: 3597 3597 141
Width: 882
Flags: W
HStem: -288 62<472.134 586.147> -124 57<406.337 471.115> -5 68<219.964 282.297> 0 78<424 463 581 698.439> 524 78<340.717 510.733> 575 20G<800.776 923>
VStem: 131 88<63.4436 134.449> 290 72<71.2163 141.249> 335 64<-193.03 -131.056> 472 55<-188.316 -124.981> 536 121<335.719 500.037> 666 107<-180 -73> 805 118<477 595>
DStem2: 385.204 -288 503.204 -288 0.207912 0.978148<398.71 744.849> 620.3 -288 727.3 -288 0.207912 0.978148<134.814 219.803 373.707 902.106>
LayerCount: 3
Fore
SplineSet
656 78 m 2xdb78
 681 78 699 91 703 112 c 2
 805 595 l 1
 923 595 l 1xd778
 825 130 l 2
 810 58 756 0 699 0 c 2
 407 0 l 1
 424 78 l 1
 463 78 l 1
 531 402 l 2
 534 417 536 430 536 442 c 3
 536 497 503 524 438 524 c 3
 394 524 353 513 312 486 c 1
 341 468 373 438 399 405 c 1xdaf8
 334 375 298 334 286 279 c 2
 272 210 l 1
 329 210 362 181 362 132 c 3
 362 56 295 -5 226 -5 c 3xeb78
 166 -5 131 28 131 87 c 3
 131 99 133 112 136 127 c 2
 168 279 l 2
 180 337 212 376 268 400 c 1
 251 424 184 473 152 484 c 1
 230 558 341 602 458 602 c 3
 586 602 657 551 657 459 c 3
 657 445 655 430 652 414 c 2
 581 78 l 1
 656 78 l 2xdb78
262 142 m 3
 238 142 219 117 219 91 c 3
 219 75 227 63 245 63 c 3xe378
 272 63 290 87 290 113 c 3
 290 129 282 142 262 142 c 3
773 -73 m 1
 744 -209 639 -288 487 -288 c 3
 392 -288 335 -248 335 -186 c 3xc2f8
 335 -114 391 -67 457 -67 c 3
 500 -67 527 -94 527 -135 c 3
 527 -177 497 -222 470 -224 c 1
 478 -225 487 -226 500 -226 c 3
 590 -226 645 -174 666 -73 c 1
 773 -73 l 1
399 -168 m 3
 399 -183 409 -195 428 -195 c 3
 453 -195 472 -173 472 -150 c 3
 472 -136 464 -124 445 -124 c 3
 418 -124 399 -144 399 -168 c 3
EndSplineSet
Layer: 2
SplineSet
656 78 m 2,0,1
 697 78 697 78 703 112 c 2,2,-1
 805 595 l 1,3,-1
 923 595 l 1,4,-1
 825 130 l 2,5,6
 814 75 814 75 777.5 37.5 c 128,-1,7
 741 0 741 0 699 0 c 2,8,-1
 407 0 l 1,9,-1
 424 78 l 1,10,-1
 463 78 l 1,11,-1
 531 402 l 2,12,13
 536 427 536 427 536 442 c 259,14,15
 536 524 536 524 438 524 c 259,16,17
 370 524 370 524 312 486 c 1,18,19
 357 458 357 458 399 405 c 1,20,21
 304 361 304 361 286 279 c 2,22,-1
 272 210 l 1,23,24
 315 210 315 210 338.5 189.5 c 128,-1,25
 362 169 362 169 362 132 c 259,26,27
 362 76 362 76 320.5 35.5 c 128,-1,28
 279 -5 279 -5 226 -5 c 259,29,30
 181 -5 181 -5 156 19 c 128,-1,31
 131 43 131 43 131 87 c 259,32,33
 131 102 131 102 136 127 c 2,34,-1
 168 279 l 2,35,36
 186 365 186 365 268 400 c 1,37,38
 255 418 255 418 215.5 447 c 128,-1,39
 176 476 176 476 152 484 c 1,40,41
 211 540 211 540 291 571 c 128,-1,42
 371 602 371 602 458 602 c 259,43,44
 554 602 554 602 605.5 565 c 128,-1,45
 657 528 657 528 657 459 c 259,46,47
 657 441 657 441 652 414 c 2,48,-1
 581 78 l 1,49,-1
 656 78 l 2,0,1
262 142 m 259,50,51
 244 142 244 142 231.5 126.5 c 128,-1,52
 219 111 219 111 219 91 c 259,53,54
 219 63 219 63 245 63 c 259,55,56
 265 63 265 63 277.5 78 c 128,-1,57
 290 93 290 93 290 113 c 259,58,59
 290 142 290 142 262 142 c 259,50,51
773 -73 m 1,60,61
 751 -175 751 -175 676 -231.5 c 128,-1,62
 601 -288 601 -288 487 -288 c 259,63,64
 416 -288 416 -288 375.5 -260.5 c 128,-1,65
 335 -233 335 -233 335 -186 c 259,66,67
 335 -133 335 -133 370.5 -100 c 128,-1,68
 406 -67 406 -67 457 -67 c 259,69,70
 489 -67 489 -67 508 -85.5 c 128,-1,71
 527 -104 527 -104 527 -135 c 128,-1,72
 527 -166 527 -166 508.5 -194 c 128,-1,73
 490 -222 490 -222 470 -224 c 1,74,75
 486 -226 486 -226 500 -226 c 259,76,77
 569 -226 569 -226 609.5 -188 c 128,-1,78
 650 -150 650 -150 666 -73 c 1,79,-1
 773 -73 l 1,60,61
399 -168 m 259,80,81
 399 -195 399 -195 428 -195 c 259,82,83
 446 -195 446 -195 459 -181.5 c 128,-1,84
 472 -168 472 -168 472 -150 c 259,85,86
 472 -124 472 -124 445 -124 c 259,87,88
 425 -124 425 -124 412 -137 c 128,-1,89
 399 -150 399 -150 399 -168 c 259,80,81
EndSplineSet
Substitution2: "'ccmp' Pali-Sanskrit Descender Removal" uni0E0D.descless
Substitution2: "Thai Descender Removal Single Substitution" uni0E0D.descless
EndChar

StartChar: uni0E0E
Encoding: 3598 3598 142
Width: 680
Flags: W
HStem: -306 68<86.3884 171.879> -147 68<103.12 206.691> -5 68<132.324 189.718> 137 68<139.234 179> 524 78<373.669 547.57>
VStem: 12 71<-233.503 -168.505> 59 72<63.7242 129.576> 567 119<342.125 503.276>
DStem2: 68.258 -316 186.167 -316 0.207912 0.978148<525.649 691.615> 408.102 -316 526.102 -316 0.207912 0.978148<159.566 782.724>
AnchorPoint: "BelowBase" 527 -309 basechar 0
LayerCount: 3
Fore
SplineSet
349 -35 m 1xfd
 338 -72 326 -101 311 -124 c 1
 334 -139 362 -166 382 -190 c 1
 417 -173 435 -155 447 -133 c 1
 562 409 l 2
 565 425 567 439 567 451 c 3
 567 503 536 524 467 524 c 3
 419 524 377 509 338 483 c 1
 367 465 398 435 424 402 c 1
 361 373 324 331 312 276 c 2
 276 110 l 2
 261 38 211 -5 148 -5 c 3
 94 -5 59 28 59 75 c 3xfb
 59 147 123 205 179 205 c 1
 194 276 l 2
 207 335 235 371 294 397 c 1
 272 425 210 469 177 478 c 1
 262 560 373 602 484 602 c 3
 616 602 686 550 686 458 c 3
 686 443 684 428 680 411 c 2
 565 -133 l 1
 533 -194 458 -260 355 -316 c 1
 332 -277 289 -224 269 -210 c 1
 237 -268 175 -306 109 -306 c 3
 48 -306 12 -273 12 -221 c 3
 12 -135 84 -79 164 -79 c 3
 192 -79 218 -83 240 -90 c 1
 263 -35 l 1
 349 -35 l 1xfd
161 -147 m 3
 125 -147 83 -175 83 -205 c 3xfd
 83 -224 101 -238 125 -238 c 3
 159 -238 189 -209 207 -159 c 1
 202 -153 177 -147 161 -147 c 3
172 137 m 3
 151 137 131 115 131 90 c 3xfb
 131 74 140 63 156 63 c 3
 177 63 197 85 197 110 c 3
 197 126 188 137 172 137 c 3
EndSplineSet
Layer: 2
SplineSet
349 -35 m 1,0,1
 332 -91 332 -91 311 -124 c 1,2,3
 346 -147 346 -147 382 -190 c 1,4,5
 428 -168 428 -168 447 -133 c 1,6,-1
 562 409 l 2,7,8
 567 436 567 436 567 451 c 259,9,10
 567 490 567 490 543 507 c 128,-1,11
 519 524 519 524 467 524 c 259,12,13
 400 524 400 524 338 483 c 1,14,15
 381 456 381 456 424 402 c 1,16,17
 330 359 330 359 312 276 c 2,18,-1
 276 110 l 2,19,20
 265 56 265 56 230.5 25.5 c 128,-1,21
 196 -5 196 -5 148 -5 c 259,22,23
 108 -5 108 -5 83.5 17 c 128,-1,24
 59 39 59 39 59 75 c 259,25,26
 59 127 59 127 97 166 c 128,-1,27
 135 205 135 205 179 205 c 1,28,-1
 194 276 l 2,29,30
 204 321 204 321 227 349.5 c 128,-1,31
 250 378 250 378 294 397 c 1,32,33
 277 418 277 418 239 444.5 c 128,-1,34
 201 471 201 471 177 478 c 1,35,36
 306 602 306 602 484 602 c 259,37,38
 582 602 582 602 634 564.5 c 128,-1,39
 686 527 686 527 686 458 c 259,40,41
 686 436 686 436 680 411 c 2,42,-1
 565 -133 l 1,43,44
 514 -229 514 -229 355 -316 c 1,45,46
 338 -287 338 -287 311 -253.5 c 128,-1,47
 284 -220 284 -220 269 -210 c 1,48,49
 245 -254 245 -254 201.5 -280 c 128,-1,50
 158 -306 158 -306 109 -306 c 259,51,52
 64 -306 64 -306 38 -283 c 128,-1,53
 12 -260 12 -260 12 -221 c 259,54,55
 12 -158 12 -158 57 -118.5 c 128,-1,56
 102 -79 102 -79 164 -79 c 259,57,58
 205 -79 205 -79 240 -90 c 1,59,-1
 263 -35 l 1,60,-1
 349 -35 l 1,0,1
161 -147 m 259,61,62
 133 -147 133 -147 108 -165 c 128,-1,63
 83 -183 83 -183 83 -205 c 259,64,65
 83 -219 83 -219 95 -228.5 c 128,-1,66
 107 -238 107 -238 125 -238 c 259,67,68
 150 -238 150 -238 171.5 -217.5 c 128,-1,69
 193 -197 193 -197 207 -159 c 1,70,71
 197 -147 197 -147 161 -147 c 259,61,62
172 137 m 259,72,73
 156 137 156 137 143.5 123 c 128,-1,74
 131 109 131 109 131 90 c 259,75,76
 131 63 131 63 156 63 c 259,77,78
 172 63 172 63 184.5 77 c 128,-1,79
 197 91 197 91 197 110 c 259,80,81
 197 137 197 137 172 137 c 259,72,73
EndSplineSet
EndChar

StartChar: uni0E0F
Encoding: 3599 3599 143
Width: 689
Flags: W
HStem: -301 68<59.0718 113.8> -142 68<71.9996 132.826> -5 68<139.865 199.732> 137 68<146.96 187> 524 78<377.952 554.588>
VStem: -12 70<-231.934 -153.517> 68 71<63.4866 130.172> 575 119<380.471 502.185>
DStem2: 77.3208 -311 195.229 -311 0.207912 0.978148<520.735 686.503> 417.165 -311 535.165 -311 0.207912 0.978148<145.803 777.612>
AnchorPoint: "BelowBase" 536 -309 basechar 0
LayerCount: 3
Fore
SplineSet
302 397 m 1
 280 425 219 468 185 478 c 1
 264 555 383 602 491 602 c 3
 621 602 694 551 694 458 c 3
 694 444 692 428 689 412 c 2
 573 -133 l 1
 543 -201 463 -277 386 -311 c 1
 327 -193 l 1
 232 -307 l 1
 184 -219 l 1
 163 -264 114 -301 69 -301 c 3
 20 -301 -12 -265 -12 -215 c 3
 -12 -136 48 -74 109 -74 c 3
 129 -74 146 -78 163 -86 c 1
 174 -35 l 1
 255 -35 l 1
 252 -56 249 -67 232 -124 c 1
 254 -175 l 1
 349 -66 l 1
 411 -178 l 1
 426 -172 447 -151 455 -133 c 1
 570 409 l 2
 573 425 575 439 575 451 c 3
 575 503 544 524 471 524 c 3
 423 524 384 509 345 483 c 1
 374 465 405 435 431 402 c 1
 367 373 332 331 320 276 c 2
 284 110 l 2
 269 38 218 -5 155 -5 c 3
 101 -5 68 31 68 79 c 3
 68 153 130 205 187 205 c 1
 202 276 l 2
 215 335 243 371 302 397 c 1
79 -233 m 3
 104 -233 123 -209 133 -162 c 1
 127 -148 118 -142 107 -142 c 3
 80 -142 58 -173 58 -208 c 3
 58 -224 65 -233 79 -233 c 3
181 137 m 3
 160 137 139 117 139 90 c 3
 139 73 149 63 165 63 c 3
 186 63 207 83 207 110 c 3
 207 127 197 137 181 137 c 3
EndSplineSet
Layer: 2
SplineSet
302 397 m 1,0,1
 285 418 285 418 247.5 444.5 c 128,-1,2
 210 471 210 471 185 478 c 1,3,4
 244 535 244 535 326.5 568.5 c 128,-1,5
 409 602 409 602 491 602 c 259,6,7
 589 602 589 602 641.5 565 c 128,-1,8
 694 528 694 528 694 458 c 259,9,10
 694 439 694 439 689 412 c 2,11,-1
 573 -133 l 1,12,13
 551 -184 551 -184 497.5 -234.5 c 128,-1,14
 444 -285 444 -285 386 -311 c 1,15,-1
 327 -193 l 1,16,-1
 232 -307 l 1,17,-1
 184 -219 l 1,18,19
 168 -253 168 -253 135 -277 c 128,-1,20
 102 -301 102 -301 69 -301 c 259,21,22
 33 -301 33 -301 10.5 -277 c 128,-1,23
 -12 -253 -12 -253 -12 -215 c 259,24,25
 -12 -157 -12 -157 25 -115.5 c 128,-1,26
 62 -74 62 -74 109 -74 c 259,27,28
 138 -74 138 -74 163 -86 c 1,29,-1
 174 -35 l 1,30,-1
 255 -35 l 1,31,32
 252 -58 252 -58 232 -124 c 1,33,-1
 254 -175 l 1,34,-1
 349 -66 l 1,35,-1
 411 -178 l 1,36,37
 422 -173 422 -173 435.5 -159.5 c 128,-1,38
 449 -146 449 -146 455 -133 c 2,39,-1
 570 409 l 2,40,41
 575 436 575 436 575 451 c 259,42,43
 575 490 575 490 550.5 507 c 128,-1,44
 526 524 526 524 471 524 c 259,45,46
 406 524 406 524 345 483 c 1,47,48
 388 456 388 456 431 402 c 1,49,50
 338 360 338 360 320 276 c 2,51,-1
 284 110 l 2,52,53
 273 57 273 57 238 26 c 128,-1,54
 203 -5 203 -5 155 -5 c 259,55,56
 115 -5 115 -5 91.5 18.5 c 128,-1,57
 68 42 68 42 68 79 c 259,58,59
 68 132 68 132 105 168.5 c 128,-1,60
 142 205 142 205 187 205 c 1,61,-1
 202 276 l 2,62,63
 212 321 212 321 235 349.5 c 128,-1,64
 258 378 258 378 302 397 c 1,0,1
79 -233 m 259,65,66
 118 -233 118 -233 133 -162 c 1,67,68
 124 -142 124 -142 107 -142 c 259,69,70
 87 -142 87 -142 72.5 -162 c 128,-1,71
 58 -182 58 -182 58 -208 c 259,72,73
 58 -233 58 -233 79 -233 c 259,65,66
181 137 m 259,74,75
 165 137 165 137 152 123.5 c 128,-1,76
 139 110 139 110 139 90 c 259,77,78
 139 63 139 63 165 63 c 259,79,80
 181 63 181 63 194 76.5 c 128,-1,81
 207 90 207 90 207 110 c 259,82,83
 207 137 207 137 181 137 c 259,74,75
EndSplineSet
EndChar

StartChar: uni0E10
Encoding: 3600 3600 144
Width: 613
Flags: W
HStem: -343 68<12.9922 72.3405 292.01 380.291> -188 68<22.8667 87.4615> -111 57<381.614 445.99> -5 78<333.769 419.75> 163 68<204.021 225> 306 68<210.547 280.618> 494 78<490.12 677.557> 526 78<315.476 514.879>
VStem: -51 63<-274.03 -197.394> 131 72<232.629 298.161> 166 79<-139 -60> 215 117<76.0056 163.898> 282 85<239.428 304.24> 315 61<-177.758 -117.218> 447 63<-173.516 -111.991> 468 122<271.162 361.272>
DStem2: 332.311 -343 450.548 -343 0.207912 0.978148<426.071 664.664>
LayerCount: 3
Fore
SplineSet
299 491 m 1xfd91
 386 491 500 458 542 425 c 0
 571 403 590 363 590 325 c 3
 590 317 589 310 587 302 c 2
 553 139 l 2
 531 34 481 -5 356 -5 c 3
 263 -5 215 29 215 99 c 3xfd91
 215 112 217 126 220 141 c 2
 225 163 l 1
 166 163 131 193 131 242 c 3
 131 319 197 374 269 374 c 3
 329 374 367 337 367 288 c 3xfdc8
 367 281 367 274 365 267 c 2
 339 144 l 2
 335 125 332 112 332 102 c 3
 332 77 346 73 379 73 c 3
 411 73 424 89 432 126 c 2
 466 286 l 2
 468 293 468 301 468 308 c 3
 468 325 464 340 456 351 c 0
 426 396 327 426 160 441 c 1
 203 545 292 604 406 604 c 3xfd91
 441 604 475 598 516 588 c 0
 558 577 585 572 606 572 c 3
 643 572 666 581 682 598 c 1
 703 532 l 1
 673 507 637 494 594 494 c 3xfe91
 565 494 528 500 492 510 c 0
 454 521 425 526 399 526 c 3
 352 526 324 516 299 491 c 1xfd91
282 277 m 3xfcc8
 282 295 269 306 250 306 c 3
 228 306 203 288 203 260 c 3
 203 243 216 231 234 231 c 3
 258 231 282 249 282 277 c 3xfcc8
388 -236 m 1
 345 -236 315 -207 315 -166 c 3
 315 -100 372 -54 428 -54 c 3
 484 -54 510 -75 510 -126 c 3
 510 -140 508 -157 504 -176 c 2
 496 -213 l 2
 479 -294 423 -343 339 -343 c 3
 288 -343 254 -322 233 -284 c 1
 165 -343 l 1
 134 -271 l 1
 104 -314 60 -343 24 -343 c 3
 -23 -343 -51 -308 -51 -260 c 3
 -51 -181 9 -120 71 -120 c 3
 95 -120 117 -127 134 -141 c 1
 149 -118 160 -87 166 -60 c 1
 245 -60 l 1xfca6
 238 -95 205 -170 186 -193 c 1
 204 -238 l 1
 255 -196 l 1
 274 -246 306 -275 339 -275 c 3
 365 -275 383 -259 388 -236 c 1
54 -188 m 3
 30 -188 12 -220 12 -246 c 3
 12 -263 21 -275 36 -275 c 3
 59 -275 82 -248 92 -216 c 1
 92 -216 75 -188 54 -188 c 3
419 -111 m 3
 394 -111 376 -131 376 -153 c 3
 376 -167 385 -179 405 -179 c 3
 430 -179 447 -159 447 -137 c 3
 447 -123 438 -111 419 -111 c 3
EndSplineSet
Layer: 2
SplineSet
299 491 m 1,0,1
 363 491 363 491 436.5 470.5 c 128,-1,2
 510 450 510 450 542 425 c 0,3,4
 564 409 564 409 577 381.5 c 128,-1,5
 590 354 590 354 590 325 c 259,6,7
 590 314 590 314 587 302 c 2,8,-1
 553 139 l 2,9,10
 536 60 536 60 492.5 27.5 c 128,-1,11
 449 -5 449 -5 356 -5 c 259,12,13
 215 -5 215 -5 215 99 c 259,14,15
 215 116 215 116 220 141 c 2,16,-1
 225 163 l 1,17,18
 181 163 181 163 156 184 c 128,-1,19
 131 205 131 205 131 242 c 259,20,21
 131 298 131 298 172.5 336 c 128,-1,22
 214 374 214 374 269 374 c 259,23,24
 313 374 313 374 340 349.5 c 128,-1,25
 367 325 367 325 367 288 c 259,26,27
 367 274 367 274 365 267 c 2,28,-1
 339 144 l 2,29,30
 332 111 332 111 332 102 c 259,31,32
 332 84 332 84 342.5 78.5 c 128,-1,33
 353 73 353 73 379 73 c 259,34,35
 402 73 402 73 414 85 c 128,-1,36
 426 97 426 97 432 126 c 2,37,-1
 466 286 l 2,38,39
 468 293 468 293 468 308 c 259,40,41
 468 334 468 334 456 351 c 0,42,43
 411 418 411 418 160 441 c 1,44,45
 192 519 192 519 256.5 561.5 c 128,-1,46
 321 604 321 604 406 604 c 259,47,48
 450 604 450 604 516 588 c 0,49,50
 577 572 577 572 606 572 c 259,51,52
 658 572 658 572 682 598 c 1,53,-1
 703 532 l 1,54,55
 657 494 657 494 594 494 c 259,56,57
 550 494 550 494 492 510 c 0,58,59
 437 526 437 526 399 526 c 259,60,61
 334 526 334 526 299 491 c 1,0,1
282 277 m 259,62,63
 282 306 282 306 250 306 c 259,64,65
 232 306 232 306 217.5 293 c 128,-1,66
 203 280 203 280 203 260 c 259,67,68
 203 247 203 247 211.5 239 c 128,-1,69
 220 231 220 231 234 231 c 259,70,71
 253 231 253 231 267.5 244 c 128,-1,72
 282 257 282 257 282 277 c 259,62,63
388 -236 m 1,73,74
 356 -236 356 -236 335.5 -216.5 c 128,-1,75
 315 -197 315 -197 315 -166 c 259,76,77
 315 -118 315 -118 349.5 -86 c 128,-1,78
 384 -54 384 -54 428 -54 c 259,79,80
 470 -54 470 -54 490 -71 c 128,-1,81
 510 -88 510 -88 510 -126 c 259,82,83
 510 -148 510 -148 504 -176 c 2,84,-1
 496 -213 l 2,85,86
 483 -274 483 -274 442 -308.5 c 128,-1,87
 401 -343 401 -343 339 -343 c 259,88,89
 266 -343 266 -343 233 -284 c 1,90,-1
 165 -343 l 1,91,-1
 134 -271 l 1,92,93
 111 -303 111 -303 81 -323 c 128,-1,94
 51 -343 51 -343 24 -343 c 259,95,96
 -11 -343 -11 -343 -31 -320 c 128,-1,97
 -51 -297 -51 -297 -51 -260 c 259,98,99
 -51 -202 -51 -202 -14 -161 c 128,-1,100
 23 -120 23 -120 71 -120 c 259,101,102
 108 -120 108 -120 134 -141 c 1,103,104
 155 -108 155 -108 166 -60 c 1,105,-1
 245 -60 l 1,106,107
 240 -86 240 -86 220 -131 c 128,-1,108
 200 -176 200 -176 186 -193 c 1,109,-1
 204 -238 l 1,110,-1
 255 -196 l 1,111,112
 269 -233 269 -233 291.5 -254 c 128,-1,113
 314 -275 314 -275 339 -275 c 259,114,115
 358 -275 358 -275 371 -264.5 c 128,-1,116
 384 -254 384 -254 388 -236 c 1,73,74
54 -188 m 259,117,118
 37 -188 37 -188 24.5 -206.5 c 128,-1,119
 12 -225 12 -225 12 -246 c 259,120,121
 12 -275 12 -275 36 -275 c 259,122,123
 53 -275 53 -275 68.5 -258 c 128,-1,124
 84 -241 84 -241 92 -216 c 1,125,126
 75 -188 75 -188 54 -188 c 259,117,118
419 -111 m 259,127,128
 401 -111 401 -111 388.5 -123.5 c 128,-1,129
 376 -136 376 -136 376 -153 c 259,130,131
 376 -179 376 -179 405 -179 c 259,132,133
 423 -179 423 -179 435 -166.5 c 128,-1,134
 447 -154 447 -154 447 -137 c 259,135,136
 447 -111 447 -111 419 -111 c 259,127,128
EndSplineSet
Substitution2: "'ccmp' Pali-Sanskrit Descender Removal" uni0E10.descless
Substitution2: "Thai Descender Removal Single Substitution" uni0E10.descless
EndChar

StartChar: uni0E11
Encoding: 3601 3601 145
Width: 832
Flags: W
HStem: 0 21G<269 395 628 750.237> 257 68<171.926 229.988> 401 66<211.016 236.109> 502 100<685.483 770.811> 526 76<227.275 298.571 387.415 453.409>
VStem: 102 69<325.353 393.73> 237 73<331.271 400.154> 417 103<447.737 525.202> 628 118<0 118> 727 123<389.227 533.5>
DStem2: 269 0 391 0 0.207912 0.978148<25.3652 155.631 317.945 435.241> 628 0 746 0 0.207912 0.978148<24.5336 483.949>
LayerCount: 3
Fore
SplineSet
753 602 m 3xf740
 815 602 850 562 850 505 c 3xf740
 850 495 848 483 846 472 c 2
 746 0 l 1
 628 0 l 1xf780
 724 451 l 2
 726 460 727 468 727 474 c 3
 727 493 719 502 701 502 c 3xf740
 671 502 629 449 500 241 c 0
 465 185 399 38 391 0 c 1
 269 0 l 1
 338 323 l 2
 345 354 359 388 380 420 c 0
 402 455 417 482 417 500 c 3
 417 515 410 526 400 526 c 3
 385 526 355 500 322 457 c 1
 312 496 288 524 263 524 c 3
 238 524 218 501 211 467 c 1
 216 468 224 469 231 469 c 3
 280 469 310 440 310 393 c 3
 310 312 248 257 182 257 c 3
 130 257 102 288 102 346 c 3
 102 408 127 472 155 516 c 0
 188 568 232 602 278 602 c 3
 310 602 333 583 347 546 c 1
 383 582 416 602 444 602 c 3xef40
 490 602 520 564 520 518 c 3
 520 488 512 474 491 434 c 0
 478 409 470 390 467 378 c 2
 448 287 l 1
 541 474 667 602 753 602 c 3xf740
237 374 m 3
 237 391 228 401 212 401 c 3
 191 401 171 381 171 352 c 3
 171 335 180 325 196 325 c 3
 217 325 237 345 237 374 c 3
EndSplineSet
Layer: 2
SplineSet
753 602 m 259,0,1
 799 602 799 602 824.5 575.5 c 128,-1,2
 850 549 850 549 850 505 c 259,3,4
 850 494 850 494 846 472 c 2,5,-1
 746 0 l 1,6,-1
 628 0 l 1,7,-1
 724 451 l 2,8,9
 727 464 727 464 727 474 c 259,10,11
 727 502 727 502 701 502 c 259,12,13
 678 502 678 502 637 448.5 c 128,-1,14
 596 395 596 395 500 241 c 0,15,16
 474 199 474 199 435.5 114 c 128,-1,17
 397 29 397 29 391 0 c 1,18,-1
 269 0 l 1,19,-1
 338 323 l 2,20,21
 349 373 349 373 380 420 c 0,22,23
 417 479 417 479 417 500 c 259,24,25
 417 526 417 526 400 526 c 259,26,27
 375 526 375 526 322 457 c 1,28,29
 314 486 314 486 298 505 c 128,-1,30
 282 524 282 524 263 524 c 259,31,32
 244 524 244 524 230 508.5 c 128,-1,33
 216 493 216 493 211 467 c 1,34,35
 221 469 221 469 231 469 c 259,36,37
 268 469 268 469 289 448.5 c 128,-1,38
 310 428 310 428 310 393 c 259,39,40
 310 334 310 334 271.5 295.5 c 128,-1,41
 233 257 233 257 182 257 c 259,42,43
 102 257 102 257 102 346 c 259,44,45
 102 433 102 433 155 516 c 0,46,47
 210 602 210 602 278 602 c 259,48,49
 326 602 326 602 347 546 c 1,50,51
 403 602 403 602 444 602 c 259,52,53
 478 602 478 602 499 577.5 c 128,-1,54
 520 553 520 553 520 518 c 259,55,56
 520 503 520 503 516.5 490 c 128,-1,57
 513 477 513 477 508.5 468 c 128,-1,58
 504 459 504 459 491 434 c 0,59,60
 472 397 472 397 467 378 c 2,61,-1
 448 287 l 1,62,63
 517 426 517 426 602.5 514 c 128,-1,64
 688 602 688 602 753 602 c 259,0,1
237 374 m 259,65,66
 237 401 237 401 212 401 c 259,67,68
 196 401 196 401 183.5 387 c 128,-1,69
 171 373 171 373 171 352 c 259,70,71
 171 325 171 325 196 325 c 259,72,73
 212 325 212 325 224.5 339 c 128,-1,74
 237 353 237 353 237 374 c 259,65,66
EndSplineSet
EndChar

StartChar: uni0E12
Encoding: 3602 3602 146
Width: 924
Flags: W
HStem: -5 72<513.938 578.362> 342 68<358.295 419.69> 575 20G<329.5 394.471 513 598.5 836.75 959>
VStem: 128 114<112.797 402.745> 140 111<112 280.155> 280 71<265.74 335.6> 420 72<272.23 341.028> 439 72<68.3063 150.175> 579 120<327.469 496.687> 592 69<78.8661 161.961> 841 118<477 595>
DStem2: 251 112 277 0 0.588386 0.80858<0 126.824> 488.837 -5 606.735 -5 0.207912 0.978148<290.321 456.266> 713.489 -5 831.595 -5 0.207912 0.978148<204.468 613.4>
LayerCount: 3
Fore
SplineSet
662 255 m 1xf4a0
 703 253 740 229 756 195 c 1
 841 595 l 1
 959 595 l 1
 852 91 l 2
 837 21 820 0 778 0 c 2
 727 0 l 1
 728 9 728 16 728 23 c 3
 728 109 697 169 652 177 c 1
 658 162 661 146 661 131 c 3xe460
 661 50 597 -5 528 -5 c 3
 471 -5 439 26 439 81 c 3
 439 158 483 214 539 231 c 1
 573 389 l 2
 577 410 579 428 579 443 c 3
 579 482 565 502 535 502 c 1
 432 453 l 1
 358 502 l 1
 325 494 297 470 277 433 c 0
 256 394 242 343 242 281 c 3xf5a0
 242 263 243 243 245 223 c 0
 249 190 251 156 251 129 c 3
 251 123 251 117 251 112 c 1
 325 215 l 1
 297 221 280 246 280 280 c 3
 280 356 345 410 408 410 c 3
 459 410 492 377 492 332 c 3
 492 302 483 283 440 224 c 2
 277 0 l 1
 133 0 l 1
 138 22 140 50 140 84 c 3xee20
 140 114 138 148 135 187 c 0
 131 234 128 270 128 300 c 3
 128 393 158 452 203 508 c 0
 247 562 301 597 358 602 c 1
 451 551 l 1
 553 602 l 1
 644 593 699 537 699 452 c 3
 699 437 698 422 694 405 c 2
 662 255 l 1xf4a0
420 316 m 3xe620
 420 333 411 342 394 342 c 3
 371 342 351 322 351 292 c 3
 351 275 361 265 377 265 c 3
 399 265 420 285 420 316 c 3xe620
562 163 m 3
 536 163 511 136 511 102 c 3
 511 82 522 67 541 67 c 3
 567 67 592 94 592 128 c 3xe560
 592 148 581 163 562 163 c 3
EndSplineSet
Layer: 2
SplineSet
662 255 m 1,0,1
 693 254 693 254 718.5 237.5 c 128,-1,2
 744 221 744 221 756 195 c 1,3,-1
 841 595 l 1,4,-1
 959 595 l 1,5,-1
 852 91 l 2,6,7
 841 38 841 38 825 19 c 128,-1,8
 809 0 809 0 778 0 c 2,9,-1
 727 0 l 1,10,11
 728 9 728 9 728 23 c 259,12,13
 728 87 728 87 707 129 c 128,-1,14
 686 171 686 171 652 177 c 1,15,16
 661 154 661 154 661 131 c 259,17,18
 661 72 661 72 621.5 33.5 c 128,-1,19
 582 -5 582 -5 528 -5 c 259,20,21
 485 -5 485 -5 462 17.5 c 128,-1,22
 439 40 439 40 439 81 c 259,23,24
 439 137 439 137 467 177.5 c 128,-1,25
 495 218 495 218 539 231 c 1,26,-1
 573 389 l 2,27,28
 579 421 579 421 579 443 c 259,29,30
 579 502 579 502 535 502 c 1,31,-1
 432 453 l 1,32,-1
 358 502 l 1,33,34
 308 490 308 490 277 433 c 0,35,36
 242 368 242 368 242 281 c 259,37,38
 242 253 242 253 245 223 c 0,39,40
 251 173 251 173 251 129 c 2,41,-1
 251 112 l 1,42,-1
 325 215 l 1,43,44
 280 225 280 225 280 280 c 259,45,46
 280 335 280 335 319.5 372.5 c 128,-1,47
 359 410 359 410 408 410 c 259,48,49
 446 410 446 410 469 388 c 128,-1,50
 492 366 492 366 492 332 c 259,51,52
 492 309 492 309 482 288.5 c 128,-1,53
 472 268 472 268 440 224 c 2,54,-1
 277 0 l 1,55,-1
 133 0 l 1,56,57
 140 31 140 31 140 84 c 259,58,59
 140 122 140 122 135 187 c 0,60,61
 128 269 128 269 128 300 c 259,62,63
 128 415 128 415 203 508 c 0,64,65
 274 595 274 595 358 602 c 1,66,-1
 451 551 l 1,67,-1
 553 602 l 1,68,69
 621 595 621 595 660 555.5 c 128,-1,70
 699 516 699 516 699 452 c 259,71,72
 699 426 699 426 694 405 c 2,73,-1
 662 255 l 1,0,1
420 316 m 259,74,75
 420 342 420 342 394 342 c 259,76,77
 376 342 376 342 363.5 328 c 128,-1,78
 351 314 351 314 351 292 c 259,79,80
 351 265 351 265 377 265 c 259,81,82
 394 265 394 265 407 279.5 c 128,-1,83
 420 294 420 294 420 316 c 259,74,75
562 163 m 259,84,85
 542 163 542 163 526.5 145 c 128,-1,86
 511 127 511 127 511 102 c 259,87,88
 511 87 511 87 519 77 c 128,-1,89
 527 67 527 67 541 67 c 259,90,91
 561 67 561 67 576.5 85 c 128,-1,92
 592 103 592 103 592 128 c 259,93,94
 592 143 592 143 584 153 c 128,-1,95
 576 163 576 163 562 163 c 259,84,85
EndSplineSet
EndChar

StartChar: uni0E13
Encoding: 3603 3603 147
Width: 958
Flags: W
HStem: -5 78<773.617 878.743> -5 68<213.566 272.487> 233 78<860 888.623> 524 78<343.462 509.449> 575 20G<797.779 920>
VStem: 128 84<64.3621 134.83> 282 72<71.8217 140.988> 534 119<333.156 500.73> 695 121<73.3224 173.914> 802 118<477 595> 901 78<96.2151 220.124>
DStem2: 441.937 -5 560.377 -5 0.207912 0.978148<31.3086 68.8972 205.579 457.777> 674.74 -5 793.412 -5 0.207912 0.978148<131.281 184.021 347.612 613.347>
AnchorPoint: "AboveBase" 921 613 basechar 0
LayerCount: 3
Fore
SplineSet
598 172 m 1x77a0
 626 210 667 244 737 287 c 1
 802 595 l 1
 920 595 l 1x2f40
 860 311 l 1
 933 311 979 263 979 190 c 3
 979 134 957 86 930 54 c 0
 898 17 853 -5 796 -5 c 3xaf20
 731 -5 695 24 695 76 c 3
 695 85 697 95 699 106 c 2
 713 175 l 1
 678 159 636 110 569 0 c 1
 443 0 l 1
 529 403 l 2
 532 418 534 432 534 444 c 3
 534 498 501 524 433 524 c 3
 390 524 343 508 308 483 c 1
 337 465 369 432 397 397 c 1
 336 388 298 349 284 281 c 2
 269 210 l 1
 321 210 354 179 354 129 c 3
 354 52 290 -5 223 -5 c 3
 162 -5 128 28 128 86 c 3
 128 99 130 112 133 127 c 2
 165 276 l 2
 178 336 208 374 263 397 c 1
 242 426 171 475 148 478 c 1
 226 555 328 602 445 602 c 3
 578 602 653 549 653 455 c 3
 653 441 651 427 648 411 c 2
 598 172 l 1x77a0
840 73 m 3xa7a0
 858 73 874 84 885 104 c 0
 893 119 901 144 901 168 c 3
 901 207 880 233 844 233 c 1
 818 111 l 2
 817 107 816 103 816 99 c 3
 816 83 825 73 840 73 c 3xa7a0
255 142 m 3
 232 142 212 121 212 92 c 3
 212 74 221 63 238 63 c 3x67
 260 63 282 86 282 114 c 3
 282 131 272 142 255 142 c 3
EndSplineSet
Layer: 2
SplineSet
598 172 m 1,0,1
 638 226 638 226 737 287 c 1,2,-1
 802 595 l 1,3,-1
 920 595 l 1,4,-1
 860 311 l 1,5,6
 915 311 915 311 947 278 c 128,-1,7
 979 245 979 245 979 190 c 259,8,9
 979 112 979 112 930 54 c 0,10,11
 879 -5 879 -5 796 -5 c 259,12,13
 747 -5 747 -5 721 16 c 128,-1,14
 695 37 695 37 695 76 c 259,15,16
 695 84 695 84 699 106 c 2,17,-1
 713 175 l 1,18,19
 661 151 661 151 569 0 c 1,20,-1
 443 0 l 1,21,-1
 529 403 l 2,22,23
 534 428 534 428 534 444 c 259,24,25
 534 524 534 524 433 524 c 259,26,27
 365 524 365 524 308 483 c 1,28,29
 348 458 348 458 397 397 c 1,30,31
 305 383 305 383 284 281 c 2,32,-1
 269 210 l 1,33,34
 308 210 308 210 331 188 c 128,-1,35
 354 166 354 166 354 129 c 259,36,37
 354 73 354 73 314.5 34 c 128,-1,38
 275 -5 275 -5 223 -5 c 259,39,40
 177 -5 177 -5 152.5 18.5 c 128,-1,41
 128 42 128 42 128 86 c 259,42,43
 128 102 128 102 133 127 c 2,44,-1
 165 276 l 2,45,46
 184 364 184 364 263 397 c 1,47,48
 247 418 247 418 206.5 447 c 128,-1,49
 166 476 166 476 148 478 c 1,50,51
 274 602 274 602 445 602 c 259,52,53
 545 602 545 602 599 563.5 c 128,-1,54
 653 525 653 525 653 455 c 259,55,56
 653 438 653 438 648 411 c 2,57,-1
 598 172 l 1,0,1
840 73 m 259,58,59
 868 73 868 73 885 104 c 0,60,61
 901 134 901 134 901 168 c 259,62,63
 901 198 901 198 886 215.5 c 128,-1,64
 871 233 871 233 844 233 c 1,65,-1
 818 111 l 2,66,67
 816 103 816 103 816 99 c 259,68,69
 816 73 816 73 840 73 c 259,58,59
255 142 m 259,70,71
 237 142 237 142 224.5 127.5 c 128,-1,72
 212 113 212 113 212 92 c 259,73,74
 212 63 212 63 238 63 c 259,75,76
 255 63 255 63 268.5 78 c 128,-1,77
 282 93 282 93 282 114 c 259,78,79
 282 142 282 142 255 142 c 259,70,71
EndSplineSet
EndChar

StartChar: uni0E14
Encoding: 3604 3604 148
Width: 702
Flags: W
HStem: 0 21G<144 287.683 499 621.267> 362 68<371.783 441.819> 524 78<353.192 548.869>
VStem: 131 121<151.086 415.781> 150 108<80.5 311.535> 292 70<283.81 352.652> 444 72<290.472 359.91> 499 118<0 118> 586 119<358.057 489.727>
DStem2: 254 121 270 0 0.662377 0.749171<0 139.515> 499 0 617 0 0.207912 0.978148<24.5336 436.184>
LayerCount: 3
Fore
SplineSet
225 517 m 0xf4
 286 573 372 602 471 602 c 3
 621 602 705 540 705 436 c 3xf480
 705 421 704 406 700 389 c 2
 617 0 l 1
 499 0 l 1xe5
 582 389 l 2
 585 403 586 416 586 428 c 3
 586 491 543 524 456 524 c 3
 392 524 339 505 304 467 c 0
 273 433 252 384 252 319 c 3xf480
 252 300 253 275 255 246 c 0
 257 222 258 200 258 180 c 3
 258 155 257 134 254 121 c 1
 254 121 339 216 347 225 c 1
 312 237 292 270 292 305 c 3
 292 378 358 430 425 430 c 3
 484 430 516 400 516 350 c 3
 516 295 494 253 415 164 c 2
 270 0 l 1
 144 0 l 1
 148 36 150 66 150 95 c 3xee
 150 135 147 174 139 224 c 0
 133 258 131 284 131 306 c 3
 131 400 174 470 225 517 c 0xf4
362 313 m 3
 362 295 375 282 395 282 c 3
 420 282 444 302 444 331 c 3xe6
 444 349 432 362 412 362 c 3
 387 362 362 342 362 313 c 3
EndSplineSet
Layer: 2
SplineSet
225 517 m 0,0,1
 318 602 318 602 471 602 c 259,2,3
 583 602 583 602 644 558 c 128,-1,4
 705 514 705 514 705 436 c 259,5,6
 705 410 705 410 700 389 c 2,7,-1
 617 0 l 1,8,-1
 499 0 l 1,9,-1
 582 389 l 2,10,11
 586 408 586 408 586 428 c 259,12,13
 586 524 586 524 456 524 c 259,14,15
 356 524 356 524 304 467 c 128,-1,16
 252 410 252 410 252 319 c 259,17,18
 252 290 252 290 255 246 c 0,19,20
 258 210 258 210 258 180 c 259,21,22
 258 138 258 138 254 121 c 1,23,24
 339 216 339 216 347 225 c 1,25,26
 321 234 321 234 306.5 256 c 128,-1,27
 292 278 292 278 292 305 c 259,28,29
 292 358 292 358 332.5 394 c 128,-1,30
 373 430 373 430 425 430 c 259,31,32
 469 430 469 430 492.5 409 c 128,-1,33
 516 388 516 388 516 350 c 259,34,35
 516 308 516 308 495 269 c 128,-1,36
 474 230 474 230 415 164 c 2,37,-1
 270 0 l 1,38,-1
 144 0 l 1,39,40
 150 54 150 54 150 95 c 259,41,42
 150 155 150 155 139 224 c 0,43,44
 131 269 131 269 131 306 c 259,45,46
 131 430 131 430 225 517 c 0,0,1
362 313 m 259,47,48
 362 299 362 299 371 290.5 c 128,-1,49
 380 282 380 282 395 282 c 259,50,51
 414 282 414 282 429 296 c 128,-1,52
 444 310 444 310 444 331 c 259,53,54
 444 345 444 345 435.5 353.5 c 128,-1,55
 427 362 427 362 412 362 c 259,56,57
 392 362 392 362 377 348 c 128,-1,58
 362 334 362 334 362 313 c 259,47,48
EndSplineSet
EndChar

StartChar: uni0E15
Encoding: 3605 3605 149
Width: 717
Flags: W
HStem: 0 21G<152 314.5 517 639.238> 364 68<376.603 447.159> 582 20G<348 421.13 534.739 628>
VStem: 133 118<148.674 404.618> 161 112<64 241.113> 295 71<282.823 352.945> 449 71<290.312 361.781> 517 118<0 118> 608 120<388.387 492.111>
DStem2: 272 98 302 0 0.548136 0.83639<0 146.15> 517 0 635 0 0.207912 0.978148<24.5336 450.801>
LayerCount: 3
Fore
SplineSet
152 0 m 1xee
 158 27 161 51 161 77 c 3xee
 161 110 156 146 147 196 c 0
 138 245 133 278 133 305 c 3
 133 375 166 444 206 494 c 0
 252 551 314 592 382 602 c 1
 472 556 l 1
 583 602 l 1
 673 595 728 535 728 457 c 3xf480
 728 445 727 433 724 420 c 2
 635 0 l 1
 517 0 l 1xe5
 604 408 l 2
 607 420 608 432 608 442 c 3
 608 478 592 500 561 502 c 1
 452 453 l 1
 366 502 l 1
 339 495 310 472 289 437 c 0
 268 402 251 358 251 302 c 3xf480
 251 276 254 245 260 208 c 0
 268 157 273 125 273 108 c 3
 273 104 273 100 272 98 c 1
 289 125 343 206 354 219 c 1
 316 233 295 263 295 300 c 3
 295 374 367 432 432 432 c 3
 486 432 520 399 520 347 c 3
 520 301 507 274 448 200 c 0
 388 125 327 43 302 0 c 1
 152 0 l 1xee
366 312 m 3
 366 293 379 281 399 281 c 3
 424 281 449 302 449 332 c 3
 449 351 436 364 416 364 c 3
 391 364 366 342 366 312 c 3
EndSplineSet
Layer: 2
SplineSet
152 0 m 1,0,1
 161 40 161 40 161 77 c 259,2,3
 161 118 161 118 147 196 c 0,4,5
 133 272 133 272 133 305 c 259,6,7
 133 403 133 403 206 494 c 0,8,9
 281 587 281 587 382 602 c 1,10,-1
 472 556 l 1,11,-1
 583 602 l 1,12,13
 650 597 650 597 689 556.5 c 128,-1,14
 728 516 728 516 728 457 c 259,15,16
 728 437 728 437 724 420 c 2,17,-1
 635 0 l 1,18,-1
 517 0 l 1,19,-1
 604 408 l 2,20,21
 608 424 608 424 608 442 c 259,22,23
 608 499 608 499 561 502 c 1,24,-1
 452 453 l 1,25,-1
 366 502 l 1,26,27
 321 490 321 490 289 437 c 0,28,29
 251 374 251 374 251 302 c 259,30,31
 251 264 251 264 260 208 c 0,32,33
 273 125 273 125 273 108 c 259,34,35
 273 100 273 100 272 98 c 1,36,37
 331 192 331 192 354 219 c 1,38,39
 295 241 295 241 295 300 c 259,40,41
 295 354 295 354 338 393 c 128,-1,42
 381 432 381 432 432 432 c 259,43,44
 472 432 472 432 496 409 c 128,-1,45
 520 386 520 386 520 347 c 259,46,47
 520 312 520 312 506 283.5 c 128,-1,48
 492 255 492 255 448 200 c 0,49,50
 339 64 339 64 302 0 c 1,51,-1
 152 0 l 1,0,1
366 312 m 259,52,53
 366 298 366 298 375 289.5 c 128,-1,54
 384 281 384 281 399 281 c 259,55,56
 419 281 419 281 434 295.5 c 128,-1,57
 449 310 449 310 449 332 c 259,58,59
 449 346 449 346 440 355 c 128,-1,60
 431 364 431 364 416 364 c 259,61,62
 397 364 397 364 381.5 349 c 128,-1,63
 366 334 366 334 366 312 c 259,52,53
EndSplineSet
EndChar

StartChar: uni0E16
Encoding: 3606 3606 150
Width: 663
Flags: W
HStem: -5 68<214.864 283.962> 141 68<269 290.926> 524 78<348.472 526.841>
VStem: 131 83<64.3655 133.08> 293 72<71.6325 139.533> 465 118<0 118> 556 119<379.728 495.52>
DStem2: 463.937 -5 581.937 -5 0.207912 0.978148<29.6453 454.935>
LayerCount: 3
Fore
SplineSet
265 397 m 1xfa
 246 424 191 464 150 478 c 1
 231 557 340 602 454 602 c 3
 591 602 675 545 675 450 c 3xfa
 675 438 673 425 670 411 c 2
 583 0 l 1
 465 0 l 1xfc
 552 409 l 2
 554 420 556 431 556 441 c 3
 556 497 516 524 441 524 c 3
 396 524 343 506 309 478 c 1
 347 455 377 428 397 402 c 1
 335 374 296 331 284 276 c 2
 269 209 l 1
 331 209 365 181 365 130 c 3
 365 50 306 -5 230 -5 c 3
 164 -5 131 28 131 89 c 3
 131 103 132 120 136 137 c 2
 166 276 l 2
 179 335 209 373 265 397 c 1xfa
261 141 m 3
 236 141 214 121 214 92 c 3
 214 74 224 63 244 63 c 3
 269 63 293 82 293 111 c 3
 293 129 281 141 261 141 c 3
EndSplineSet
Layer: 2
SplineSet
265 397 m 1,0,1
 250 418 250 418 215 443 c 128,-1,2
 180 468 180 468 150 478 c 1,3,4
 277 602 277 602 454 602 c 259,5,6
 557 602 557 602 616 561.5 c 128,-1,7
 675 521 675 521 675 450 c 259,8,9
 675 434 675 434 670 411 c 2,10,-1
 583 0 l 1,11,-1
 465 0 l 1,12,-1
 552 409 l 2,13,14
 556 431 556 431 556 441 c 259,15,16
 556 524 556 524 441 524 c 259,17,18
 365 524 365 524 309 478 c 1,19,20
 364 445 364 445 397 402 c 1,21,22
 302 359 302 359 284 276 c 2,23,-1
 269 209 l 1,24,25
 365 209 365 209 365 130 c 259,26,27
 365 71 365 71 326.5 33 c 128,-1,28
 288 -5 288 -5 230 -5 c 259,29,30
 131 -5 131 -5 131 89 c 259,31,32
 131 116 131 116 136 137 c 2,33,-1
 166 276 l 2,34,35
 185 363 185 363 265 397 c 1,0,1
261 141 m 259,36,37
 242 141 242 141 228 127 c 128,-1,38
 214 113 214 113 214 92 c 259,39,40
 214 63 214 63 244 63 c 259,41,42
 264 63 264 63 278.5 76.5 c 128,-1,43
 293 90 293 90 293 111 c 259,44,45
 293 141 293 141 261 141 c 259,36,37
EndSplineSet
EndChar

StartChar: uni0E17
Encoding: 3607 3607 151
Width: 721
Flags: W
HStem: 0 21G<159 282 517 639.27> 388 68<212.256 241> 524 78<542.152 659.5> 534 68<217.37 287.469>
VStem: 137 72<457.917 524.723> 289 92<463.773 532.04> 517 118<0 118> 616 121<427.5 522.245>
DStem2: 158.528 0 276.794 0 0.207912 0.978148<24.6317 182.451 367.073 396.668> 517 0 635 0 0.207912 0.978148<24.5336 494.478>
LayerCount: 3
Fore
SplineSet
376 464 m 2xdd
 348 335 l 1
 416 504 522 602 622 602 c 3
 697 602 737 567 737 502 c 3xed
 737 489 736 475 733 459 c 2
 635 0 l 1
 517 0 l 1xee
 611 444 l 2
 614 460 616 474 616 485 c 3
 616 511 607 524 589 524 c 3xed
 542 524 478 449 389 275 c 0
 336 172 287 46 277 0 c 1
 159 0 l 1
 241 388 l 1
 231 388 l 2
 171 388 137 419 137 467 c 3
 137 544 205 602 274 602 c 3
 345 602 381 568 381 507 c 3
 381 494 379 480 376 464 c 2xdd
289 504 m 3
 289 522 278 534 258 534 c 3xdc
 233 534 209 515 209 486 c 3
 209 470 223 456 241 456 c 3
 266 456 289 475 289 504 c 3
EndSplineSet
Layer: 2
SplineSet
376 464 m 2,0,-1
 348 335 l 1,1,2
 398 460 398 460 472 531 c 128,-1,3
 546 602 546 602 622 602 c 259,4,5
 737 602 737 602 737 502 c 259,6,7
 737 480 737 480 733 459 c 2,8,-1
 635 0 l 1,9,-1
 517 0 l 1,10,-1
 611 444 l 2,11,12
 616 471 616 471 616 485 c 259,13,14
 616 524 616 524 589 524 c 259,15,16
 516 524 516 524 389 275 c 0,17,18
 351 201 351 201 318 119 c 128,-1,19
 285 37 285 37 277 0 c 1,20,-1
 159 0 l 1,21,-1
 241 388 l 1,22,-1
 231 388 l 2,23,24
 187 388 187 388 162 409.5 c 128,-1,25
 137 431 137 431 137 467 c 259,26,27
 137 523 137 523 179 562.5 c 128,-1,28
 221 602 221 602 274 602 c 259,29,30
 381 602 381 602 381 507 c 259,31,32
 381 491 381 491 376 464 c 2,0,-1
289 504 m 259,33,34
 289 534 289 534 258 534 c 259,35,36
 238 534 238 534 223.5 520.5 c 128,-1,37
 209 507 209 507 209 486 c 259,38,39
 209 474 209 474 218.5 465 c 128,-1,40
 228 456 228 456 241 456 c 259,41,42
 260 456 260 456 274.5 469.5 c 128,-1,43
 289 483 289 483 289 504 c 259,33,34
EndSplineSet
EndChar

StartChar: uni0E18
Encoding: 3608 3608 152
Width: 646
Flags: W
HStem: 0 78<137 209 327 449.722> 484 78<498.093 668.062> 524 78<325.617 504.937>
VStem: 502 119<204.125 345.126>
DStem2: 192.421 0 310.421 0 0.207912 0.978148<104.276 411.986> 437.604 0 556.368 0 0.207912 0.978148<85.7684 315.451>
LayerCount: 3
Fore
SplineSet
710 527 m 1xb0
 681 499 646 484 602 484 c 3xd0
 571 484 536 491 500 504 c 0
 462 517 429 524 405 524 c 3
 359 524 318 506 306 481 c 1
 330 479 414 460 452 449 c 0
 571 413 621 376 621 319 c 3
 621 311 620 303 618 294 c 2
 584 130 l 2
 566 44 522 0 457 0 c 2
 120 0 l 1
 137 78 l 1
 209 78 l 1
 278 403 l 1
 251 406 198 419 165 430 c 1
 210 539 299 602 409 602 c 3xb0
 435 602 467 595 503 582 c 0
 542 568 569 562 589 562 c 3xd0
 632 562 663 575 691 602 c 1
 710 527 l 1xb0
391 78 m 2
 438 78 458 96 468 143 c 2
 500 293 l 2
 501 299 502 305 502 309 c 3
 502 341 474 357 391 381 c 1
 327 78 l 1
 391 78 l 2
EndSplineSet
Layer: 2
SplineSet
710 527 m 1,0,1
 665 484 665 484 602 484 c 259,2,3
 555 484 555 484 500 504 c 0,4,5
 442 524 442 524 405 524 c 259,6,7
 371 524 371 524 343 512 c 128,-1,8
 315 500 315 500 306 481 c 1,9,10
 356 477 356 477 452 449 c 0,11,12
 542 422 542 422 581.5 391.5 c 128,-1,13
 621 361 621 361 621 319 c 259,14,15
 621 308 621 308 618 294 c 2,16,-1
 584 130 l 2,17,18
 557 0 557 0 457 0 c 2,19,-1
 120 0 l 1,20,-1
 137 78 l 1,21,-1
 209 78 l 1,22,-1
 278 403 l 1,23,24
 230 408 230 408 165 430 c 1,25,26
 199 512 199 512 263 557 c 128,-1,27
 327 602 327 602 409 602 c 259,28,29
 448 602 448 602 503 582 c 0,30,31
 559 562 559 562 589 562 c 259,32,33
 650 562 650 562 691 602 c 1,34,-1
 710 527 l 1,0,1
391 78 m 2,35,36
 426 78 426 78 443 92.5 c 128,-1,37
 460 107 460 107 468 143 c 2,38,-1
 500 293 l 2,39,40
 502 305 502 305 502 309 c 259,41,42
 502 333 502 333 478.5 348 c 128,-1,43
 455 363 455 363 391 381 c 1,44,-1
 327 78 l 1,45,-1
 391 78 l 2,35,36
EndSplineSet
EndChar

StartChar: uni0E19
Encoding: 3609 3609 153
Width: 741
Flags: W
HStem: -5 78<561.002 650.632> 388 68<209.256 237> 534 68<214.37 284.298> 575 20G<584.781 707>
VStem: 134 72<458.402 524.525> 286 91<463.773 532.669> 486 116<75.2297 136.706> 589 118<477 595> 683 74<115.12 251.235>
DStem2: 153.937 -5 271.551 -5 0.207912 0.978148<29.6453 80.5015 223.81 401.682> 461.517 -5 579.619 -5 0.207912 0.978148<124.272 250.558 380.595 613.394>
AnchorPoint: "AboveBase" 708 613 basechar 0
LayerCount: 3
Fore
SplineSet
709 67 m 0xdc80
 677 22 632 -5 582 -5 c 3
 520 -5 486 33 486 91 c 3
 486 103 487 116 490 129 c 2
 514 240 l 1
 454 221 338 108 273 0 c 1
 155 0 l 1
 237 388 l 1
 228 388 l 2
 168 388 134 418 134 466 c 3
 134 544 202 602 271 602 c 3xee80
 340 602 377 570 377 508 c 3
 377 495 375 480 372 464 c 2
 313 190 l 1
 382 254 474 316 535 339 c 1
 589 595 l 1
 707 595 l 1xdd
 654 345 l 1
 722 327 757 285 757 219 c 3
 757 159 734 103 709 67 c 0xdc80
683 196 m 3
 683 235 667 259 636 259 c 1
 603 105 l 2
 602 100 602 96 602 92 c 3
 602 79 608 73 619 73 c 3
 634 73 650 89 662 112 c 0
 674 134 683 164 683 196 c 3
286 504 m 3
 286 522 275 534 255 534 c 3
 230 534 206 515 206 486 c 3
 206 468 221 456 238 456 c 3
 263 456 286 475 286 504 c 3
EndSplineSet
Layer: 2
SplineSet
709 67 m 0,0,1
 658 -5 658 -5 582 -5 c 259,2,3
 536 -5 536 -5 511 21 c 128,-1,4
 486 47 486 47 486 91 c 259,5,6
 486 112 486 112 490 129 c 2,7,-1
 514 240 l 1,8,9
 468 226 468 226 394.5 153 c 128,-1,10
 321 80 321 80 273 0 c 1,11,-1
 155 0 l 1,12,-1
 237 388 l 1,13,-1
 228 388 l 2,14,15
 183 388 183 388 158.5 409 c 128,-1,16
 134 430 134 430 134 466 c 259,17,18
 134 523 134 523 176 562.5 c 128,-1,19
 218 602 218 602 271 602 c 259,20,21
 377 602 377 602 377 508 c 259,22,23
 377 491 377 491 372 464 c 2,24,-1
 313 190 l 1,25,26
 365 238 365 238 427 280 c 128,-1,27
 489 322 489 322 535 339 c 1,28,-1
 589 595 l 1,29,-1
 707 595 l 1,30,-1
 654 345 l 1,31,32
 757 318 757 318 757 219 c 259,33,34
 757 136 757 136 709 67 c 0,0,1
683 196 m 259,35,36
 683 259 683 259 636 259 c 1,37,-1
 603 105 l 2,38,39
 602 100 602 100 602 92 c 259,40,41
 602 73 602 73 619 73 c 259,42,43
 642 73 642 73 662 112 c 0,44,45
 683 151 683 151 683 196 c 259,35,36
286 504 m 259,46,47
 286 534 286 534 255 534 c 259,48,49
 235 534 235 534 220.5 520.5 c 128,-1,50
 206 507 206 507 206 486 c 259,51,52
 206 473 206 473 215.5 464.5 c 128,-1,53
 225 456 225 456 238 456 c 259,54,55
 257 456 257 456 271.5 469.5 c 128,-1,56
 286 483 286 483 286 504 c 259,46,47
EndSplineSet
EndChar

StartChar: uni0E1A
Encoding: 3610 3610 154
Width: 718
Flags: W
HStem: 0 78<117 189 307 530.238> 388 68<224.289 254> 534 68<231.229 301.915> 575 20G<635.769 758>
VStem: 150 72<457.302 525.384> 303 90<464.083 532.414> 640 118<477 595>
DStem2: 172.421 0 290.421 0 0.207912 0.978148<104.276 396.483> 514.005 0 631.744 0 0.207912 0.978148<80.4529 608.194>
LayerCount: 3
Fore
SplineSet
478 78 m 2xee
 516 78 534 92 541 127 c 2
 640 595 l 1
 758 595 l 1xde
 653 100 l 2
 640 39 593 0 530 0 c 2
 100 0 l 1
 117 78 l 1
 189 78 l 1
 254 388 l 1
 243 388 l 2
 183 388 150 419 150 466 c 3
 150 548 216 602 286 602 c 3
 356 602 393 567 393 505 c 3
 393 492 392 479 389 464 c 2
 307 78 l 1
 478 78 l 2xee
303 504 m 3
 303 522 292 534 271 534 c 3xee
 246 534 222 515 222 486 c 3
 222 468 234 456 254 456 c 3
 280 456 303 475 303 504 c 3
EndSplineSet
Layer: 2
SplineSet
478 78 m 2,0,1
 506 78 506 78 521 89.5 c 128,-1,2
 536 101 536 101 541 127 c 2,3,-1
 640 595 l 1,4,-1
 758 595 l 1,5,-1
 653 100 l 2,6,7
 643 54 643 54 610 27 c 128,-1,8
 577 0 577 0 530 0 c 2,9,-1
 100 0 l 1,10,-1
 117 78 l 1,11,-1
 189 78 l 1,12,-1
 254 388 l 1,13,-1
 243 388 l 2,14,15
 199 388 199 388 174.5 409 c 128,-1,16
 150 430 150 430 150 466 c 259,17,18
 150 525 150 525 190.5 563.5 c 128,-1,19
 231 602 231 602 286 602 c 259,20,21
 338 602 338 602 365.5 577 c 128,-1,22
 393 552 393 552 393 505 c 259,23,24
 393 484 393 484 389 464 c 2,25,-1
 307 78 l 1,26,-1
 478 78 l 2,0,1
303 504 m 259,27,28
 303 534 303 534 271 534 c 259,29,30
 251 534 251 534 236.5 520.5 c 128,-1,31
 222 507 222 507 222 486 c 259,32,33
 222 456 222 456 254 456 c 259,34,35
 274 456 274 456 288.5 469.5 c 128,-1,36
 303 483 303 483 303 504 c 259,27,28
EndSplineSet
EndChar

StartChar: uni0E1B
Encoding: 3611 3611 155
Width: 718
Flags: W
HStem: 0 78<117 189 307 530.238> 388 68<224.289 254> 534 68<231.229 301.915>
VStem: 150 72<457.302 525.384> 303 90<464.083 532.414> 702 118<766 884>
DStem2: 172.421 0 290.421 0 0.207912 0.978148<104.276 396.483> 514.005 0 631.744 0 0.207912 0.978148<80.4529 903.769>
AnchorPoint: "AboveBase" 595 613 basechar 0
LayerCount: 3
Fore
SplineSet
478 78 m 2
 516 78 534 92 541 127 c 2
 702 884 l 1
 820 884 l 1
 653 100 l 2
 640 39 593 0 530 0 c 2
 100 0 l 1
 117 78 l 1
 189 78 l 1
 254 388 l 1
 243 388 l 2
 183 388 150 419 150 466 c 3
 150 548 216 602 286 602 c 3
 356 602 393 567 393 505 c 3
 393 492 392 479 389 464 c 2
 307 78 l 1
 478 78 l 2
303 504 m 3
 303 522 292 534 271 534 c 3
 246 534 222 515 222 486 c 3
 222 468 234 456 254 456 c 3
 280 456 303 475 303 504 c 3
EndSplineSet
Layer: 2
SplineSet
478 78 m 2,0,1
 506 78 506 78 521 89.5 c 128,-1,2
 536 101 536 101 541 127 c 2,3,-1
 702 884 l 1,4,-1
 820 884 l 1,5,-1
 653 100 l 2,6,7
 643 54 643 54 610 27 c 128,-1,8
 577 0 577 0 530 0 c 2,9,-1
 100 0 l 1,10,-1
 117 78 l 1,11,-1
 189 78 l 1,12,-1
 254 388 l 1,13,-1
 243 388 l 2,14,15
 199 388 199 388 174.5 409 c 128,-1,16
 150 430 150 430 150 466 c 259,17,18
 150 525 150 525 190.5 563.5 c 128,-1,19
 231 602 231 602 286 602 c 259,20,21
 338 602 338 602 365.5 577 c 128,-1,22
 393 552 393 552 393 505 c 259,23,24
 393 484 393 484 389 464 c 2,25,-1
 307 78 l 1,26,-1
 478 78 l 2,0,1
303 504 m 259,27,28
 303 534 303 534 271 534 c 259,29,30
 251 534 251 534 236.5 520.5 c 128,-1,31
 222 507 222 507 222 486 c 259,32,33
 222 456 222 456 254 456 c 259,34,35
 274 456 274 456 288.5 469.5 c 128,-1,36
 303 483 303 483 303 504 c 259,27,28
EndSplineSet
EndChar

StartChar: uni0E1C
Encoding: 3612 3612 156
Width: 674
Flags: W
HStem: 0 21G<92 227 467 593.235> 388 68<292 359.7> 534 68<299.087 367.887> 575 20G<592.792 715>
VStem: 369 72<464.741 532.296> 597 118<477 595>
DStem2: 92 0 210.44 0 0.207912 0.978148<24.9494 84.5464 200.468 421.104> 471.44 0 589 0 0.207912 0.978148<175.843 608.103>
LayerCount: 3
Fore
SplineSet
303 388 m 2xec
 292 388 l 1
 247 172 l 1
 301 235 347 277 409 323 c 1
 459 273 484 234 508 172 c 1
 597 595 l 1
 715 595 l 1xdc
 589 0 l 1
 471 0 l 1
 463 68 434 143 385 210 c 1
 333 172 242 63 212 0 c 1
 92 0 l 1
 191 464 l 2
 210 554 266 602 352 602 c 3
 409 602 441 570 441 520 c 3
 441 440 379 388 303 388 c 2xec
339 534 m 3xec
 314 534 290 515 290 486 c 3
 290 468 302 456 322 456 c 3
 347 456 369 476 369 505 c 3
 369 523 359 534 339 534 c 3xec
EndSplineSet
Layer: 2
SplineSet
303 388 m 2,0,-1
 292 388 l 1,1,-1
 247 172 l 1,2,3
 320 257 320 257 409 323 c 1,4,5
 475 257 475 257 508 172 c 1,6,-1
 597 595 l 1,7,-1
 715 595 l 1,8,-1
 589 0 l 1,9,-1
 471 0 l 1,10,11
 458 110 458 110 385 210 c 1,12,13
 345 181 345 181 289.5 114 c 128,-1,14
 234 47 234 47 212 0 c 1,15,-1
 92 0 l 1,16,-1
 191 464 l 2,17,18
 220 602 220 602 352 602 c 259,19,20
 394 602 394 602 417.5 580 c 128,-1,21
 441 558 441 558 441 520 c 259,22,23
 441 461 441 461 401 424.5 c 128,-1,24
 361 388 361 388 303 388 c 2,0,-1
339 534 m 259,25,26
 319 534 319 534 304.5 520.5 c 128,-1,27
 290 507 290 507 290 486 c 259,28,29
 290 456 290 456 322 456 c 259,30,31
 341 456 341 456 355 470 c 128,-1,32
 369 484 369 484 369 505 c 259,33,34
 369 534 369 534 339 534 c 259,25,26
EndSplineSet
EndChar

StartChar: uni0E1D
Encoding: 3613 3613 157
Width: 674
Flags: W
HStem: 0 21G<92 227 467 593.253> 388 68<292 359.7> 534 68<299.087 367.887>
VStem: 369 72<464.741 532.296> 659 118<766 884>
DStem2: 92 0 210.44 0 0.207912 0.978148<24.9494 84.5464 200.468 421.104> 471.44 0 589 0 0.207912 0.978148<175.843 903.678>
AnchorPoint: "AboveBase" 551 613 basechar 0
LayerCount: 3
Fore
SplineSet
303 388 m 2
 292 388 l 1
 247 172 l 1
 301 235 347 277 409 323 c 1
 459 273 484 234 508 172 c 1
 659 884 l 1
 777 884 l 1
 589 0 l 1
 471 0 l 1
 463 68 434 143 385 210 c 1
 333 172 242 63 212 0 c 1
 92 0 l 1
 191 464 l 2
 210 554 266 602 352 602 c 3
 409 602 441 570 441 520 c 3
 441 440 379 388 303 388 c 2
339 534 m 3
 314 534 290 515 290 486 c 3
 290 468 302 456 322 456 c 3
 347 456 369 476 369 505 c 3
 369 523 359 534 339 534 c 3
EndSplineSet
Layer: 2
SplineSet
303 388 m 2,0,-1
 292 388 l 1,1,-1
 247 172 l 1,2,3
 320 257 320 257 409 323 c 1,4,5
 475 257 475 257 508 172 c 1,6,-1
 659 884 l 1,7,-1
 777 884 l 1,8,-1
 589 0 l 1,9,-1
 471 0 l 1,10,11
 458 110 458 110 385 210 c 1,12,13
 345 181 345 181 289.5 114 c 128,-1,14
 234 47 234 47 212 0 c 1,15,-1
 92 0 l 1,16,-1
 191 464 l 2,17,18
 220 602 220 602 352 602 c 259,19,20
 394 602 394 602 417.5 580 c 128,-1,21
 441 558 441 558 441 520 c 259,22,23
 441 461 441 461 401 424.5 c 128,-1,24
 361 388 361 388 303 388 c 2,0,-1
339 534 m 259,25,26
 319 534 319 534 304.5 520.5 c 128,-1,27
 290 507 290 507 290 486 c 259,28,29
 290 456 290 456 322 456 c 259,30,31
 341 456 341 456 355 470 c 128,-1,32
 369 484 369 484 369 505 c 259,33,34
 369 534 369 534 339 534 c 259,25,26
EndSplineSet
EndChar

